<svg width="251" height="329" viewBox="0 0 251 329" fill="none" xmlns="http://www.w3.org/2000/svg">
<rect width="251" height="329" rx="40" fill="#F8F6F3"/>
<path d="M27.5093 253L27.5239 251.857H29.7358C30.4927 251.857 31.125 251.699 31.6328 251.381C32.1406 251.059 32.5215 250.61 32.7754 250.034C33.0342 249.453 33.1636 248.771 33.1636 247.99V247.331C33.1636 246.516 33.0342 245.822 32.7754 245.251C32.5215 244.68 32.1479 244.243 31.6548 243.94C31.1616 243.637 30.5635 243.486 29.8604 243.486H27.4653V242.336H29.8604C30.7979 242.336 31.6182 242.541 32.3213 242.951C33.0293 243.356 33.5811 243.935 33.9766 244.687C34.3721 245.434 34.5698 246.32 34.5698 247.346V247.99C34.5698 249.021 34.3721 249.909 33.9766 250.656C33.5811 251.403 33.022 251.982 32.2993 252.392C31.5767 252.797 30.7222 253 29.7358 253H27.5093ZM28.271 253H26.8501V242.336H28.271V253ZM39.7773 253.146C39.04 253.146 38.3979 252.983 37.8511 252.656C37.3091 252.324 36.8867 251.87 36.584 251.293C36.2861 250.717 36.1372 250.058 36.1372 249.316V249.001C36.1372 248.142 36.3008 247.409 36.6279 246.804C36.96 246.193 37.3896 245.729 37.917 245.412C38.4492 245.09 39.0107 244.929 39.6016 244.929C40.3633 244.929 40.9834 245.1 41.4619 245.441C41.9453 245.778 42.2993 246.24 42.5239 246.826C42.7534 247.407 42.8682 248.066 42.8682 248.803V249.411H36.9502V248.312H41.4985V248.21C41.479 247.858 41.4082 247.517 41.2861 247.185C41.1641 246.848 40.9688 246.572 40.7002 246.357C40.4316 246.137 40.0654 246.027 39.6016 246.027C39.1914 246.027 38.8276 246.145 38.5103 246.379C38.1978 246.608 37.9512 246.945 37.7705 247.39C37.5947 247.829 37.5068 248.366 37.5068 249.001V249.316C37.5068 249.819 37.5996 250.278 37.7852 250.693C37.9707 251.103 38.2393 251.433 38.5908 251.682C38.9424 251.926 39.3623 252.048 39.8506 252.048C40.3291 252.048 40.7344 251.95 41.0664 251.755C41.3984 251.56 41.689 251.298 41.938 250.971L42.7656 251.616C42.5117 252.006 42.1455 252.36 41.667 252.678C41.1934 252.99 40.5635 253.146 39.7773 253.146ZM49.0645 250.898C49.0645 250.703 49.0205 250.522 48.9326 250.356C48.8496 250.185 48.6787 250.031 48.4199 249.895C48.1611 249.753 47.7705 249.628 47.248 249.521C46.6621 249.399 46.1543 249.245 45.7246 249.06C45.2998 248.869 44.9702 248.627 44.7358 248.334C44.5063 248.042 44.3916 247.678 44.3916 247.243C44.3916 246.823 44.5112 246.44 44.7505 246.093C44.9946 245.742 45.3364 245.461 45.7759 245.251C46.2202 245.036 46.7378 244.929 47.3286 244.929C47.9634 244.929 48.5054 245.041 48.9546 245.266C49.4087 245.485 49.7554 245.783 49.9946 246.159C50.2339 246.53 50.3535 246.943 50.3535 247.397H48.9839C48.9839 247.07 48.8398 246.76 48.5518 246.467C48.2686 246.174 47.8608 246.027 47.3286 246.027C46.9575 246.027 46.6548 246.086 46.4204 246.203C46.1909 246.315 46.0225 246.462 45.915 246.643C45.8125 246.818 45.7612 247.004 45.7612 247.199C45.7612 247.395 45.8101 247.565 45.9077 247.712C46.0054 247.854 46.1836 247.98 46.4424 248.093C46.7061 248.205 47.0869 248.317 47.585 248.43C48.2344 248.576 48.769 248.752 49.189 248.957C49.6089 249.162 49.9214 249.414 50.1265 249.711C50.3315 250.009 50.4341 250.373 50.4341 250.803C50.4341 251.262 50.3071 251.669 50.0532 252.026C49.7993 252.377 49.4429 252.653 48.9839 252.854C48.5249 253.049 47.9854 253.146 47.3652 253.146C46.667 253.146 46.0762 253.022 45.5928 252.773C45.1094 252.524 44.7432 252.204 44.4941 251.813C44.2451 251.418 44.1206 251 44.1206 250.561H45.4902C45.5146 250.932 45.6221 251.228 45.8125 251.447C46.0078 251.662 46.2446 251.816 46.5229 251.909C46.8062 252.001 47.0869 252.048 47.3652 252.048C47.7363 252.048 48.0464 251.999 48.2954 251.901C48.5493 251.799 48.7397 251.662 48.8667 251.491C48.9985 251.315 49.0645 251.118 49.0645 250.898ZM55.4951 253.146C54.7578 253.146 54.1157 252.983 53.5688 252.656C53.0269 252.324 52.6045 251.87 52.3018 251.293C52.0039 250.717 51.855 250.058 51.855 249.316V249.001C51.855 248.142 52.0186 247.409 52.3457 246.804C52.6777 246.193 53.1074 245.729 53.6348 245.412C54.167 245.09 54.7285 244.929 55.3193 244.929C56.0811 244.929 56.7012 245.1 57.1797 245.441C57.6631 245.778 58.0171 246.24 58.2417 246.826C58.4712 247.407 58.5859 248.066 58.5859 248.803V249.411H52.668V248.312H57.2163V248.21C57.1968 247.858 57.126 247.517 57.0039 247.185C56.8818 246.848 56.6865 246.572 56.418 246.357C56.1494 246.137 55.7832 246.027 55.3193 246.027C54.9092 246.027 54.5454 246.145 54.228 246.379C53.9155 246.608 53.6689 246.945 53.4883 247.39C53.3125 247.829 53.2246 248.366 53.2246 249.001V249.316C53.2246 249.819 53.3174 250.278 53.5029 250.693C53.6885 251.103 53.957 251.433 54.3086 251.682C54.6602 251.926 55.0801 252.048 55.5684 252.048C56.0469 252.048 56.4521 251.95 56.7842 251.755C57.1162 251.56 57.4067 251.298 57.6558 250.971L58.4834 251.616C58.2295 252.006 57.8633 252.36 57.3848 252.678C56.9111 252.99 56.2812 253.146 55.4951 253.146ZM61.5376 253H60.168V245.075H61.4644L61.5376 246.767V253ZM60.644 248.708C60.6538 247.985 60.793 247.341 61.0615 246.774C61.3301 246.203 61.7036 245.754 62.1821 245.427C62.6655 245.095 63.2271 244.929 63.8667 244.929C64.3892 244.929 64.8384 245.026 65.2144 245.222C65.5952 245.412 65.8882 245.717 66.0933 246.137C66.3032 246.557 66.4082 247.114 66.4082 247.807V253H65.0386V247.792C65.0386 247.377 64.9775 247.043 64.8555 246.789C64.7383 246.535 64.5625 246.352 64.3281 246.24C64.0938 246.123 63.8057 246.064 63.4639 246.064C63.127 246.064 62.8218 246.135 62.5483 246.276C62.2749 246.418 62.0381 246.613 61.8379 246.862C61.6377 247.111 61.4839 247.397 61.3765 247.719C61.269 248.037 61.2153 248.374 61.2153 248.73L60.644 248.708ZM73.0293 245.075H74.4282L71.5864 253H70.6636L70.876 251.784L73.0293 245.075ZM71.3008 251.821L71.4619 253H70.5464L67.6753 245.075H69.0742L71.3008 251.821ZM75.2705 248.957C75.2705 248.19 75.417 247.504 75.71 246.899C76.0029 246.293 76.418 245.815 76.9551 245.463C77.4922 245.107 78.1294 244.929 78.8667 244.929C79.6138 244.929 80.2583 245.107 80.8003 245.463C81.3423 245.815 81.7573 246.293 82.0454 246.899C82.3384 247.504 82.4849 248.19 82.4849 248.957V249.125C82.4849 249.887 82.3384 250.573 82.0454 251.184C81.7573 251.789 81.3423 252.268 80.8003 252.619C80.2632 252.971 79.6235 253.146 78.8813 253.146C78.1392 253.146 77.4971 252.971 76.9551 252.619C76.418 252.268 76.0029 251.789 75.71 251.184C75.417 250.573 75.2705 249.887 75.2705 249.125V248.957ZM76.6401 249.125C76.6401 249.648 76.7231 250.131 76.8892 250.576C77.0552 251.02 77.3018 251.376 77.6289 251.645C77.9609 251.914 78.3784 252.048 78.8813 252.048C79.3794 252.048 79.792 251.914 80.1191 251.645C80.4512 251.376 80.7002 251.02 80.8662 250.576C81.0322 250.131 81.1152 249.648 81.1152 249.125V248.957C81.1152 248.435 81.0322 247.951 80.8662 247.507C80.7002 247.062 80.4512 246.706 80.1191 246.438C79.7871 246.164 79.3696 246.027 78.8667 246.027C78.3735 246.027 77.9609 246.164 77.6289 246.438C77.2969 246.706 77.0479 247.062 76.8818 247.507C76.7207 247.951 76.6401 248.435 76.6401 248.957V249.125ZM85.6782 253H84.3086V241.75H85.6782V253ZM92.4092 245.075H93.8081L90.9663 253H90.0435L90.2559 251.784L92.4092 245.075ZM90.6807 251.821L90.8418 253H89.9263L87.0552 245.075H88.4541L90.6807 251.821ZM96.606 253H95.2363V245.075H96.606V253ZM95.1338 242.966C95.1338 242.751 95.1997 242.568 95.3315 242.417C95.4683 242.265 95.6685 242.189 95.9321 242.189C96.1958 242.189 96.396 242.265 96.5327 242.417C96.6743 242.568 96.7451 242.751 96.7451 242.966C96.7451 243.176 96.6743 243.356 96.5327 243.508C96.396 243.654 96.1958 243.728 95.9321 243.728C95.6685 243.728 95.4683 243.654 95.3315 243.508C95.1997 243.356 95.1338 243.176 95.1338 242.966ZM100.129 253H98.7593V245.075H100.056L100.129 246.65V253ZM99.2134 248.708C99.2183 247.985 99.3403 247.341 99.5796 246.774C99.8237 246.203 100.183 245.754 100.656 245.427C101.135 245.095 101.728 244.929 102.436 244.929C103.178 244.929 103.791 245.146 104.274 245.581C104.758 246.015 105 246.728 105 247.719V253H103.63V247.785C103.63 247.37 103.559 247.038 103.417 246.789C103.281 246.535 103.085 246.352 102.832 246.24C102.578 246.123 102.28 246.064 101.938 246.064C101.542 246.064 101.21 246.135 100.942 246.276C100.678 246.418 100.466 246.613 100.305 246.862C100.144 247.111 100.026 247.397 99.9531 247.719C99.8848 248.037 99.8506 248.374 99.8506 248.73L99.2134 248.708ZM104.069 248.261C104.074 247.685 104.196 247.143 104.436 246.635C104.68 246.127 105.036 245.717 105.505 245.405C105.974 245.087 106.545 244.929 107.219 244.929C107.785 244.929 108.266 245.029 108.662 245.229C109.057 245.429 109.357 245.739 109.562 246.159C109.768 246.579 109.87 247.124 109.87 247.792V253H108.5V247.778C108.5 247.333 108.43 246.987 108.288 246.738C108.151 246.489 107.956 246.315 107.702 246.218C107.453 246.115 107.158 246.064 106.816 246.064C106.518 246.064 106.254 246.115 106.025 246.218C105.8 246.32 105.61 246.462 105.454 246.643C105.302 246.818 105.185 247.021 105.102 247.25C105.024 247.48 104.985 247.724 104.985 247.983L104.069 248.261ZM115.217 253.146C114.479 253.146 113.837 252.983 113.291 252.656C112.749 252.324 112.326 251.87 112.023 251.293C111.726 250.717 111.577 250.058 111.577 249.316V249.001C111.577 248.142 111.74 247.409 112.067 246.804C112.399 246.193 112.829 245.729 113.356 245.412C113.889 245.09 114.45 244.929 115.041 244.929C115.803 244.929 116.423 245.1 116.901 245.441C117.385 245.778 117.739 246.24 117.963 246.826C118.193 247.407 118.308 248.066 118.308 248.803V249.411H112.39V248.312H116.938V248.21C116.918 247.858 116.848 247.517 116.726 247.185C116.604 246.848 116.408 246.572 116.14 246.357C115.871 246.137 115.505 246.027 115.041 246.027C114.631 246.027 114.267 246.145 113.95 246.379C113.637 246.608 113.391 246.945 113.21 247.39C113.034 247.829 112.946 248.366 112.946 249.001V249.316C112.946 249.819 113.039 250.278 113.225 250.693C113.41 251.103 113.679 251.433 114.03 251.682C114.382 251.926 114.802 252.048 115.29 252.048C115.769 252.048 116.174 251.95 116.506 251.755C116.838 251.56 117.128 251.298 117.377 250.971L118.205 251.616C117.951 252.006 117.585 252.36 117.106 252.678C116.633 252.99 116.003 253.146 115.217 253.146ZM121.259 253H119.89V245.075H121.186L121.259 246.767V253ZM120.366 248.708C120.375 247.985 120.515 247.341 120.783 246.774C121.052 246.203 121.425 245.754 121.904 245.427C122.387 245.095 122.949 244.929 123.588 244.929C124.111 244.929 124.56 245.026 124.936 245.222C125.317 245.412 125.61 245.717 125.815 246.137C126.025 246.557 126.13 247.114 126.13 247.807V253H124.76V247.792C124.76 247.377 124.699 247.043 124.577 246.789C124.46 246.535 124.284 246.352 124.05 246.24C123.815 246.123 123.527 246.064 123.186 246.064C122.849 246.064 122.543 246.135 122.27 246.276C121.997 246.418 121.76 246.613 121.56 246.862C121.359 247.111 121.206 247.397 121.098 247.719C120.991 248.037 120.937 248.374 120.937 248.73L120.366 248.708ZM131.513 246.108H127.221V245.075H131.513V246.108ZM130.034 243.149V251.037C130.034 251.311 130.075 251.516 130.158 251.652C130.241 251.789 130.349 251.879 130.48 251.923C130.612 251.967 130.754 251.989 130.905 251.989C131.018 251.989 131.135 251.979 131.257 251.96C131.384 251.94 131.477 251.923 131.535 251.909L131.542 253C131.435 253.034 131.293 253.066 131.118 253.095C130.947 253.129 130.739 253.146 130.495 253.146C130.163 253.146 129.858 253.081 129.58 252.949C129.301 252.817 129.079 252.597 128.913 252.29C128.747 251.977 128.664 251.557 128.664 251.03V243.149H130.034ZM132.517 248.957C132.517 248.19 132.663 247.504 132.956 246.899C133.249 246.293 133.664 245.815 134.201 245.463C134.738 245.107 135.375 244.929 136.113 244.929C136.86 244.929 137.504 245.107 138.046 245.463C138.588 245.815 139.003 246.293 139.292 246.899C139.584 247.504 139.731 248.19 139.731 248.957V249.125C139.731 249.887 139.584 250.573 139.292 251.184C139.003 251.789 138.588 252.268 138.046 252.619C137.509 252.971 136.87 253.146 136.127 253.146C135.385 253.146 134.743 252.971 134.201 252.619C133.664 252.268 133.249 251.789 132.956 251.184C132.663 250.573 132.517 249.887 132.517 249.125V248.957ZM133.886 249.125C133.886 249.648 133.969 250.131 134.135 250.576C134.301 251.02 134.548 251.376 134.875 251.645C135.207 251.914 135.625 252.048 136.127 252.048C136.625 252.048 137.038 251.914 137.365 251.645C137.697 251.376 137.946 251.02 138.112 250.576C138.278 250.131 138.361 249.648 138.361 249.125V248.957C138.361 248.435 138.278 247.951 138.112 247.507C137.946 247.062 137.697 246.706 137.365 246.438C137.033 246.164 136.616 246.027 136.113 246.027C135.62 246.027 135.207 246.164 134.875 246.438C134.543 246.706 134.294 247.062 134.128 247.507C133.967 247.951 133.886 248.435 133.886 248.957V249.125ZM150.153 241.75H151.523V253H150.271L150.153 251.462V241.75ZM144.829 248.972C144.829 248.166 144.958 247.46 145.217 246.855C145.48 246.245 145.847 245.771 146.315 245.434C146.784 245.097 147.333 244.929 147.963 244.929C148.627 244.929 149.182 245.083 149.626 245.39C150.07 245.693 150.417 246.125 150.666 246.687C150.92 247.248 151.083 247.917 151.157 248.693V249.404C151.083 250.17 150.922 250.834 150.673 251.396C150.424 251.953 150.075 252.385 149.626 252.692C149.182 252.995 148.623 253.146 147.949 253.146C147.329 253.146 146.784 252.973 146.315 252.626C145.847 252.275 145.48 251.796 145.217 251.191C144.958 250.585 144.829 249.897 144.829 249.125V248.972ZM146.198 249.125C146.198 249.653 146.269 250.134 146.411 250.568C146.557 251.003 146.784 251.352 147.092 251.616C147.399 251.875 147.797 252.004 148.286 252.004C148.735 252.004 149.104 251.909 149.392 251.718C149.685 251.528 149.919 251.276 150.095 250.964C150.271 250.651 150.407 250.312 150.505 249.946V248.166C150.446 247.897 150.361 247.639 150.249 247.39C150.141 247.136 150 246.911 149.824 246.716C149.653 246.516 149.44 246.357 149.187 246.24C148.938 246.123 148.642 246.064 148.3 246.064C147.807 246.064 147.404 246.196 147.092 246.459C146.784 246.723 146.557 247.077 146.411 247.521C146.269 247.961 146.198 248.444 146.198 248.972V249.125ZM156.921 253.146C156.184 253.146 155.542 252.983 154.995 252.656C154.453 252.324 154.03 251.87 153.728 251.293C153.43 250.717 153.281 250.058 153.281 249.316V249.001C153.281 248.142 153.444 247.409 153.771 246.804C154.104 246.193 154.533 245.729 155.061 245.412C155.593 245.09 156.154 244.929 156.745 244.929C157.507 244.929 158.127 245.1 158.605 245.441C159.089 245.778 159.443 246.24 159.667 246.826C159.897 247.407 160.012 248.066 160.012 248.803V249.411H154.094V248.312H158.642V248.21C158.623 247.858 158.552 247.517 158.43 247.185C158.308 246.848 158.112 246.572 157.844 246.357C157.575 246.137 157.209 246.027 156.745 246.027C156.335 246.027 155.971 246.145 155.654 246.379C155.341 246.608 155.095 246.945 154.914 247.39C154.738 247.829 154.65 248.366 154.65 249.001V249.316C154.65 249.819 154.743 250.278 154.929 250.693C155.114 251.103 155.383 251.433 155.734 251.682C156.086 251.926 156.506 252.048 156.994 252.048C157.473 252.048 157.878 251.95 158.21 251.755C158.542 251.56 158.833 251.298 159.082 250.971L159.909 251.616C159.655 252.006 159.289 252.36 158.811 252.678C158.337 252.99 157.707 253.146 156.921 253.146ZM169.929 250.898C169.929 250.703 169.885 250.522 169.797 250.356C169.714 250.185 169.543 250.031 169.284 249.895C169.025 249.753 168.635 249.628 168.112 249.521C167.526 249.399 167.019 249.245 166.589 249.06C166.164 248.869 165.834 248.627 165.6 248.334C165.371 248.042 165.256 247.678 165.256 247.243C165.256 246.823 165.375 246.44 165.615 246.093C165.859 245.742 166.201 245.461 166.64 245.251C167.084 245.036 167.602 244.929 168.193 244.929C168.828 244.929 169.37 245.041 169.819 245.266C170.273 245.485 170.62 245.783 170.859 246.159C171.098 246.53 171.218 246.943 171.218 247.397H169.848C169.848 247.07 169.704 246.76 169.416 246.467C169.133 246.174 168.725 246.027 168.193 246.027C167.822 246.027 167.519 246.086 167.285 246.203C167.055 246.315 166.887 246.462 166.779 246.643C166.677 246.818 166.625 247.004 166.625 247.199C166.625 247.395 166.674 247.565 166.772 247.712C166.87 247.854 167.048 247.98 167.307 248.093C167.57 248.205 167.951 248.317 168.449 248.43C169.099 248.576 169.633 248.752 170.053 248.957C170.473 249.162 170.786 249.414 170.991 249.711C171.196 250.009 171.298 250.373 171.298 250.803C171.298 251.262 171.171 251.669 170.917 252.026C170.664 252.377 170.307 252.653 169.848 252.854C169.389 253.049 168.85 253.146 168.229 253.146C167.531 253.146 166.94 253.022 166.457 252.773C165.974 252.524 165.607 252.204 165.358 251.813C165.109 251.418 164.985 251 164.985 250.561H166.354C166.379 250.932 166.486 251.228 166.677 251.447C166.872 251.662 167.109 251.816 167.387 251.909C167.67 252.001 167.951 252.048 168.229 252.048C168.601 252.048 168.911 251.999 169.16 251.901C169.414 251.799 169.604 251.662 169.731 251.491C169.863 251.315 169.929 251.118 169.929 250.898ZM174.55 253H173.181V245.075H174.55V253ZM173.078 242.966C173.078 242.751 173.144 242.568 173.276 242.417C173.413 242.265 173.613 242.189 173.876 242.189C174.14 242.189 174.34 242.265 174.477 242.417C174.619 242.568 174.689 242.751 174.689 242.966C174.689 243.176 174.619 243.356 174.477 243.508C174.34 243.654 174.14 243.728 173.876 243.728C173.613 243.728 173.413 243.654 173.276 243.508C173.144 243.356 173.078 243.176 173.078 242.966ZM181.325 250.898C181.325 250.703 181.281 250.522 181.193 250.356C181.11 250.185 180.939 250.031 180.681 249.895C180.422 249.753 180.031 249.628 179.509 249.521C178.923 249.399 178.415 249.245 177.985 249.06C177.561 248.869 177.231 248.627 176.997 248.334C176.767 248.042 176.652 247.678 176.652 247.243C176.652 246.823 176.772 246.44 177.011 246.093C177.255 245.742 177.597 245.461 178.037 245.251C178.481 245.036 178.999 244.929 179.589 244.929C180.224 244.929 180.766 245.041 181.215 245.266C181.669 245.485 182.016 245.783 182.255 246.159C182.495 246.53 182.614 246.943 182.614 247.397H181.245C181.245 247.07 181.101 246.76 180.812 246.467C180.529 246.174 180.122 246.027 179.589 246.027C179.218 246.027 178.916 246.086 178.681 246.203C178.452 246.315 178.283 246.462 178.176 246.643C178.073 246.818 178.022 247.004 178.022 247.199C178.022 247.395 178.071 247.565 178.168 247.712C178.266 247.854 178.444 247.98 178.703 248.093C178.967 248.205 179.348 248.317 179.846 248.43C180.495 248.576 181.03 248.752 181.45 248.957C181.87 249.162 182.182 249.414 182.387 249.711C182.592 250.009 182.695 250.373 182.695 250.803C182.695 251.262 182.568 251.669 182.314 252.026C182.06 252.377 181.704 252.653 181.245 252.854C180.786 253.049 180.246 253.146 179.626 253.146C178.928 253.146 178.337 253.022 177.854 252.773C177.37 252.524 177.004 252.204 176.755 251.813C176.506 251.418 176.381 251 176.381 250.561H177.751C177.775 250.932 177.883 251.228 178.073 251.447C178.269 251.662 178.505 251.816 178.784 251.909C179.067 252.001 179.348 252.048 179.626 252.048C179.997 252.048 180.307 251.999 180.556 251.901C180.81 251.799 181 251.662 181.127 251.491C181.259 251.315 181.325 251.118 181.325 250.898ZM187.792 246.108H183.5V245.075H187.792V246.108ZM186.313 243.149V251.037C186.313 251.311 186.354 251.516 186.438 251.652C186.521 251.789 186.628 251.879 186.76 251.923C186.892 251.967 187.033 251.989 187.185 251.989C187.297 251.989 187.414 251.979 187.536 251.96C187.663 251.94 187.756 251.923 187.814 251.909L187.822 253C187.714 253.034 187.573 253.066 187.397 253.095C187.226 253.129 187.019 253.146 186.774 253.146C186.442 253.146 186.137 253.081 185.859 252.949C185.581 252.817 185.358 252.597 185.192 252.29C185.026 251.977 184.943 251.557 184.943 251.03V243.149H186.313ZM192.663 253.146C191.926 253.146 191.284 252.983 190.737 252.656C190.195 252.324 189.772 251.87 189.47 251.293C189.172 250.717 189.023 250.058 189.023 249.316V249.001C189.023 248.142 189.187 247.409 189.514 246.804C189.846 246.193 190.275 245.729 190.803 245.412C191.335 245.09 191.896 244.929 192.487 244.929C193.249 244.929 193.869 245.1 194.348 245.441C194.831 245.778 195.185 246.24 195.41 246.826C195.639 247.407 195.754 248.066 195.754 248.803V249.411H189.836V248.312H194.384V248.21C194.365 247.858 194.294 247.517 194.172 247.185C194.05 246.848 193.854 246.572 193.586 246.357C193.317 246.137 192.951 246.027 192.487 246.027C192.077 246.027 191.713 246.145 191.396 246.379C191.083 246.608 190.837 246.945 190.656 247.39C190.48 247.829 190.393 248.366 190.393 249.001V249.316C190.393 249.819 190.485 250.278 190.671 250.693C190.856 251.103 191.125 251.433 191.477 251.682C191.828 251.926 192.248 252.048 192.736 252.048C193.215 252.048 193.62 251.95 193.952 251.755C194.284 251.56 194.575 251.298 194.824 250.971L195.651 251.616C195.397 252.006 195.031 252.36 194.553 252.678C194.079 252.99 193.449 253.146 192.663 253.146ZM198.698 253H197.329V245.075H198.625L198.698 246.65V253ZM197.783 248.708C197.788 247.985 197.91 247.341 198.149 246.774C198.393 246.203 198.752 245.754 199.226 245.427C199.704 245.095 200.297 244.929 201.005 244.929C201.748 244.929 202.36 245.146 202.844 245.581C203.327 246.015 203.569 246.728 203.569 247.719V253H202.199V247.785C202.199 247.37 202.128 247.038 201.987 246.789C201.85 246.535 201.655 246.352 201.401 246.24C201.147 246.123 200.849 246.064 200.507 246.064C200.112 246.064 199.78 246.135 199.511 246.276C199.248 246.418 199.035 246.613 198.874 246.862C198.713 247.111 198.596 247.397 198.522 247.719C198.454 248.037 198.42 248.374 198.42 248.73L197.783 248.708ZM202.639 248.261C202.644 247.685 202.766 247.143 203.005 246.635C203.249 246.127 203.605 245.717 204.074 245.405C204.543 245.087 205.114 244.929 205.788 244.929C206.354 244.929 206.835 245.029 207.231 245.229C207.626 245.429 207.927 245.739 208.132 246.159C208.337 246.579 208.439 247.124 208.439 247.792V253H207.07V247.778C207.07 247.333 206.999 246.987 206.857 246.738C206.721 246.489 206.525 246.315 206.271 246.218C206.022 246.115 205.727 246.064 205.385 246.064C205.087 246.064 204.824 246.115 204.594 246.218C204.37 246.32 204.179 246.462 204.023 246.643C203.872 246.818 203.754 247.021 203.671 247.25C203.593 247.48 203.554 247.724 203.554 247.983L202.639 248.261ZM215.163 247.565C215.163 247.092 215.021 246.716 214.738 246.438C214.46 246.154 214.047 246.013 213.5 246.013C213.164 246.013 212.866 246.071 212.607 246.188C212.353 246.306 212.155 246.459 212.014 246.65C211.872 246.84 211.801 247.048 211.801 247.272H210.432C210.432 246.892 210.561 246.523 210.82 246.167C211.079 245.805 211.442 245.51 211.911 245.28C212.385 245.046 212.941 244.929 213.581 244.929C214.157 244.929 214.667 245.026 215.112 245.222C215.556 245.417 215.903 245.712 216.152 246.108C216.406 246.499 216.533 246.989 216.533 247.58V251.271C216.533 251.535 216.555 251.816 216.599 252.114C216.647 252.412 216.718 252.668 216.811 252.883V253H215.383C215.314 252.844 215.261 252.636 215.222 252.377C215.183 252.114 215.163 251.87 215.163 251.645V247.565ZM215.412 249.147H214.05C213.278 249.147 212.683 249.27 212.263 249.514C211.843 249.758 211.633 250.124 211.633 250.612C211.633 250.993 211.76 251.315 212.014 251.579C212.272 251.843 212.648 251.975 213.142 251.975C213.557 251.975 213.923 251.887 214.24 251.711C214.558 251.535 214.809 251.318 214.995 251.059C215.18 250.8 215.28 250.551 215.295 250.312L215.881 250.964C215.847 251.169 215.754 251.396 215.603 251.645C215.451 251.894 215.249 252.133 214.995 252.363C214.746 252.587 214.448 252.775 214.101 252.927C213.759 253.073 213.374 253.146 212.944 253.146C212.407 253.146 211.936 253.044 211.53 252.839C211.13 252.629 210.817 252.346 210.593 251.989C210.373 251.633 210.263 251.237 210.263 250.803C210.263 249.948 210.585 249.301 211.23 248.862C211.875 248.417 212.741 248.195 213.83 248.195H215.397L215.412 249.147ZM223.278 250.898C223.278 250.703 223.234 250.522 223.146 250.356C223.063 250.185 222.893 250.031 222.634 249.895C222.375 249.753 221.984 249.628 221.462 249.521C220.876 249.399 220.368 249.245 219.938 249.06C219.514 248.869 219.184 248.627 218.95 248.334C218.72 248.042 218.605 247.678 218.605 247.243C218.605 246.823 218.725 246.44 218.964 246.093C219.208 245.742 219.55 245.461 219.99 245.251C220.434 245.036 220.952 244.929 221.542 244.929C222.177 244.929 222.719 245.041 223.168 245.266C223.623 245.485 223.969 245.783 224.208 246.159C224.448 246.53 224.567 246.943 224.567 247.397H223.198C223.198 247.07 223.054 246.76 222.766 246.467C222.482 246.174 222.075 246.027 221.542 246.027C221.171 246.027 220.869 246.086 220.634 246.203C220.405 246.315 220.236 246.462 220.129 246.643C220.026 246.818 219.975 247.004 219.975 247.199C219.975 247.395 220.024 247.565 220.122 247.712C220.219 247.854 220.397 247.98 220.656 248.093C220.92 248.205 221.301 248.317 221.799 248.43C222.448 248.576 222.983 248.752 223.403 248.957C223.823 249.162 224.135 249.414 224.34 249.711C224.545 250.009 224.648 250.373 224.648 250.803C224.648 251.262 224.521 251.669 224.267 252.026C224.013 252.377 223.657 252.653 223.198 252.854C222.739 253.049 222.199 253.146 221.579 253.146C220.881 253.146 220.29 253.022 219.807 252.773C219.323 252.524 218.957 252.204 218.708 251.813C218.459 251.418 218.334 251 218.334 250.561H219.704C219.729 250.932 219.836 251.228 220.026 251.447C220.222 251.662 220.458 251.816 220.737 251.909C221.02 252.001 221.301 252.048 221.579 252.048C221.95 252.048 222.26 251.999 222.509 251.901C222.763 251.799 222.954 251.662 223.081 251.491C223.212 251.315 223.278 251.118 223.278 250.898ZM57.0625 275H55.6929V267.075H56.9893L57.0625 268.65V275ZM56.147 270.708C56.1519 269.985 56.2739 269.341 56.5132 268.774C56.7573 268.203 57.1162 267.754 57.5898 267.427C58.0684 267.095 58.6616 266.929 59.3696 266.929C60.1118 266.929 60.7246 267.146 61.208 267.581C61.6914 268.015 61.9331 268.728 61.9331 269.719V275H60.5635V269.785C60.5635 269.37 60.4927 269.038 60.3511 268.789C60.2144 268.535 60.019 268.352 59.7651 268.24C59.5112 268.123 59.2134 268.064 58.8716 268.064C58.4761 268.064 58.144 268.135 57.8755 268.276C57.6118 268.418 57.3994 268.613 57.2383 268.862C57.0771 269.111 56.96 269.397 56.8867 269.719C56.8184 270.037 56.7842 270.374 56.7842 270.73L56.147 270.708ZM61.0029 270.261C61.0078 269.685 61.1299 269.143 61.3691 268.635C61.6133 268.127 61.9697 267.717 62.4385 267.405C62.9072 267.087 63.4785 266.929 64.1523 266.929C64.7188 266.929 65.1997 267.029 65.5952 267.229C65.9907 267.429 66.291 267.739 66.4961 268.159C66.7012 268.579 66.8037 269.124 66.8037 269.792V275H65.4341V269.778C65.4341 269.333 65.3633 268.987 65.2217 268.738C65.085 268.489 64.8896 268.315 64.6357 268.218C64.3867 268.115 64.0913 268.064 63.7495 268.064C63.4517 268.064 63.188 268.115 62.9585 268.218C62.7339 268.32 62.5435 268.462 62.3872 268.643C62.2358 268.818 62.1187 269.021 62.0356 269.25C61.9575 269.48 61.9185 269.724 61.9185 269.983L61.0029 270.261ZM68.5029 270.957C68.5029 270.19 68.6494 269.504 68.9424 268.899C69.2354 268.293 69.6504 267.815 70.1875 267.463C70.7246 267.107 71.3618 266.929 72.0991 266.929C72.8462 266.929 73.4907 267.107 74.0327 267.463C74.5747 267.815 74.9897 268.293 75.2778 268.899C75.5708 269.504 75.7173 270.19 75.7173 270.957V271.125C75.7173 271.887 75.5708 272.573 75.2778 273.184C74.9897 273.789 74.5747 274.268 74.0327 274.619C73.4956 274.971 72.856 275.146 72.1138 275.146C71.3716 275.146 70.7295 274.971 70.1875 274.619C69.6504 274.268 69.2354 273.789 68.9424 273.184C68.6494 272.573 68.5029 271.887 68.5029 271.125V270.957ZM69.8726 271.125C69.8726 271.648 69.9556 272.131 70.1216 272.576C70.2876 273.02 70.5342 273.376 70.8613 273.645C71.1934 273.914 71.6108 274.048 72.1138 274.048C72.6118 274.048 73.0244 273.914 73.3516 273.645C73.6836 273.376 73.9326 273.02 74.0986 272.576C74.2646 272.131 74.3477 271.648 74.3477 271.125V270.957C74.3477 270.435 74.2646 269.951 74.0986 269.507C73.9326 269.062 73.6836 268.706 73.3516 268.438C73.0195 268.164 72.6021 268.027 72.0991 268.027C71.606 268.027 71.1934 268.164 70.8613 268.438C70.5293 268.706 70.2803 269.062 70.1143 269.507C69.9531 269.951 69.8726 270.435 69.8726 270.957V271.125ZM82.4189 263.75H83.7886V275H82.5361L82.4189 273.462V263.75ZM77.0942 270.972C77.0942 270.166 77.2236 269.46 77.4824 268.855C77.7461 268.245 78.1123 267.771 78.5811 267.434C79.0498 267.097 79.5991 266.929 80.229 266.929C80.8931 266.929 81.4473 267.083 81.8916 267.39C82.3359 267.693 82.6826 268.125 82.9316 268.687C83.1855 269.248 83.3491 269.917 83.4224 270.693V271.404C83.3491 272.17 83.188 272.834 82.939 273.396C82.6899 273.953 82.3408 274.385 81.8916 274.692C81.4473 274.995 80.8882 275.146 80.2144 275.146C79.5942 275.146 79.0498 274.973 78.5811 274.626C78.1123 274.275 77.7461 273.796 77.4824 273.191C77.2236 272.585 77.0942 271.897 77.0942 271.125V270.972ZM78.4639 271.125C78.4639 271.653 78.5347 272.134 78.6763 272.568C78.8228 273.003 79.0498 273.352 79.3574 273.616C79.665 273.875 80.063 274.004 80.5513 274.004C81.0005 274.004 81.3691 273.909 81.6572 273.718C81.9502 273.528 82.1846 273.276 82.3604 272.964C82.5361 272.651 82.6729 272.312 82.7705 271.946V270.166C82.7119 269.897 82.6265 269.639 82.5142 269.39C82.4067 269.136 82.2651 268.911 82.0894 268.716C81.9185 268.516 81.7061 268.357 81.4521 268.24C81.2031 268.123 80.9077 268.064 80.5659 268.064C80.0728 268.064 79.6699 268.196 79.3574 268.459C79.0498 268.723 78.8228 269.077 78.6763 269.521C78.5347 269.961 78.4639 270.444 78.4639 270.972V271.125ZM89.1865 275.146C88.4492 275.146 87.8071 274.983 87.2603 274.656C86.7183 274.324 86.2959 273.87 85.9932 273.293C85.6953 272.717 85.5464 272.058 85.5464 271.316V271.001C85.5464 270.142 85.71 269.409 86.0371 268.804C86.3691 268.193 86.7988 267.729 87.3262 267.412C87.8584 267.09 88.4199 266.929 89.0107 266.929C89.7725 266.929 90.3926 267.1 90.8711 267.441C91.3545 267.778 91.7085 268.24 91.9331 268.826C92.1626 269.407 92.2773 270.066 92.2773 270.803V271.411H86.3594V270.312H90.9077V270.21C90.8882 269.858 90.8174 269.517 90.6953 269.185C90.5732 268.848 90.3779 268.572 90.1094 268.357C89.8408 268.137 89.4746 268.027 89.0107 268.027C88.6006 268.027 88.2368 268.145 87.9194 268.379C87.6069 268.608 87.3604 268.945 87.1797 269.39C87.0039 269.829 86.916 270.366 86.916 271.001V271.316C86.916 271.819 87.0088 272.278 87.1943 272.693C87.3799 273.103 87.6484 273.433 88 273.682C88.3516 273.926 88.7715 274.048 89.2598 274.048C89.7383 274.048 90.1436 273.95 90.4756 273.755C90.8076 273.56 91.0981 273.298 91.3472 272.971L92.1748 273.616C91.9209 274.006 91.5547 274.36 91.0762 274.678C90.6025 274.99 89.9727 275.146 89.1865 275.146ZM95.229 275H93.8594V267.075H95.1924L95.229 268.32V275ZM97.6973 268.284C97.5801 268.259 97.4702 268.245 97.3677 268.24C97.27 268.23 97.1577 268.225 97.0308 268.225C96.6157 268.225 96.2642 268.311 95.9761 268.481C95.6929 268.652 95.4731 268.889 95.3169 269.192C95.1606 269.49 95.063 269.832 95.0239 270.217L94.6357 270.437C94.6357 269.797 94.7212 269.214 94.8921 268.687C95.063 268.154 95.3291 267.729 95.6904 267.412C96.0566 267.09 96.5254 266.929 97.0967 266.929C97.1895 266.929 97.2993 266.941 97.4263 266.965C97.5581 266.985 97.6484 267.007 97.6973 267.031V268.284ZM100.312 275H98.9424V267.075H100.239L100.312 268.767V275ZM99.4185 270.708C99.4282 269.985 99.5674 269.341 99.8359 268.774C100.104 268.203 100.478 267.754 100.957 267.427C101.44 267.095 102.001 266.929 102.641 266.929C103.164 266.929 103.613 267.026 103.989 267.222C104.37 267.412 104.663 267.717 104.868 268.137C105.078 268.557 105.183 269.114 105.183 269.807V275H103.813V269.792C103.813 269.377 103.752 269.043 103.63 268.789C103.513 268.535 103.337 268.352 103.103 268.24C102.868 268.123 102.58 268.064 102.238 268.064C101.901 268.064 101.596 268.135 101.323 268.276C101.049 268.418 100.812 268.613 100.612 268.862C100.412 269.111 100.258 269.397 100.151 269.719C100.043 270.037 99.9897 270.374 99.9897 270.73L99.4185 270.708ZM106.882 270.957C106.882 270.19 107.028 269.504 107.321 268.899C107.614 268.293 108.029 267.815 108.566 267.463C109.104 267.107 109.741 266.929 110.478 266.929C111.225 266.929 111.87 267.107 112.412 267.463C112.954 267.815 113.369 268.293 113.657 268.899C113.95 269.504 114.096 270.19 114.096 270.957V271.125C114.096 271.887 113.95 272.573 113.657 273.184C113.369 273.789 112.954 274.268 112.412 274.619C111.875 274.971 111.235 275.146 110.493 275.146C109.75 275.146 109.108 274.971 108.566 274.619C108.029 274.268 107.614 273.789 107.321 273.184C107.028 272.573 106.882 271.887 106.882 271.125V270.957ZM108.251 271.125C108.251 271.648 108.334 272.131 108.5 272.576C108.667 273.02 108.913 273.376 109.24 273.645C109.572 273.914 109.99 274.048 110.493 274.048C110.991 274.048 111.403 273.914 111.73 273.645C112.062 273.376 112.312 273.02 112.478 272.576C112.644 272.131 112.727 271.648 112.727 271.125V270.957C112.727 270.435 112.644 269.951 112.478 269.507C112.312 269.062 112.062 268.706 111.73 268.438C111.398 268.164 110.981 268.027 110.478 268.027C109.985 268.027 109.572 268.164 109.24 268.438C108.908 268.706 108.659 269.062 108.493 269.507C108.332 269.951 108.251 270.435 108.251 270.957V271.125ZM120.417 272.898C120.417 272.703 120.373 272.522 120.285 272.356C120.202 272.185 120.031 272.031 119.772 271.895C119.514 271.753 119.123 271.628 118.601 271.521C118.015 271.399 117.507 271.245 117.077 271.06C116.652 270.869 116.323 270.627 116.088 270.334C115.859 270.042 115.744 269.678 115.744 269.243C115.744 268.823 115.864 268.44 116.103 268.093C116.347 267.742 116.689 267.461 117.128 267.251C117.573 267.036 118.09 266.929 118.681 266.929C119.316 266.929 119.858 267.041 120.307 267.266C120.761 267.485 121.108 267.783 121.347 268.159C121.586 268.53 121.706 268.943 121.706 269.397H120.336C120.336 269.07 120.192 268.76 119.904 268.467C119.621 268.174 119.213 268.027 118.681 268.027C118.31 268.027 118.007 268.086 117.773 268.203C117.543 268.315 117.375 268.462 117.268 268.643C117.165 268.818 117.114 269.004 117.114 269.199C117.114 269.395 117.163 269.565 117.26 269.712C117.358 269.854 117.536 269.98 117.795 270.093C118.059 270.205 118.439 270.317 118.938 270.43C119.587 270.576 120.122 270.752 120.542 270.957C120.961 271.162 121.274 271.414 121.479 271.711C121.684 272.009 121.787 272.373 121.787 272.803C121.787 273.262 121.66 273.669 121.406 274.026C121.152 274.377 120.795 274.653 120.336 274.854C119.877 275.049 119.338 275.146 118.718 275.146C118.02 275.146 117.429 275.022 116.945 274.773C116.462 274.524 116.096 274.204 115.847 273.813C115.598 273.418 115.473 273 115.473 272.561H116.843C116.867 272.932 116.975 273.228 117.165 273.447C117.36 273.662 117.597 273.816 117.875 273.909C118.159 274.001 118.439 274.048 118.718 274.048C119.089 274.048 119.399 273.999 119.648 273.901C119.902 273.799 120.092 273.662 120.219 273.491C120.351 273.315 120.417 273.118 120.417 272.898ZM130.568 275.146C129.831 275.146 129.189 274.983 128.642 274.656C128.1 274.324 127.678 273.87 127.375 273.293C127.077 272.717 126.928 272.058 126.928 271.316V271.001C126.928 270.142 127.092 269.409 127.419 268.804C127.751 268.193 128.181 267.729 128.708 267.412C129.24 267.09 129.802 266.929 130.393 266.929C131.154 266.929 131.774 267.1 132.253 267.441C132.736 267.778 133.09 268.24 133.315 268.826C133.544 269.407 133.659 270.066 133.659 270.803V271.411H127.741V270.312H132.29V270.21C132.27 269.858 132.199 269.517 132.077 269.185C131.955 268.848 131.76 268.572 131.491 268.357C131.223 268.137 130.856 268.027 130.393 268.027C129.982 268.027 129.619 268.145 129.301 268.379C128.989 268.608 128.742 268.945 128.562 269.39C128.386 269.829 128.298 270.366 128.298 271.001V271.316C128.298 271.819 128.391 272.278 128.576 272.693C128.762 273.103 129.03 273.433 129.382 273.682C129.733 273.926 130.153 274.048 130.642 274.048C131.12 274.048 131.525 273.95 131.857 273.755C132.189 273.56 132.48 273.298 132.729 272.971L133.557 273.616C133.303 274.006 132.937 274.36 132.458 274.678C131.984 274.99 131.354 275.146 130.568 275.146ZM142.141 274.048C142.463 274.048 142.761 273.982 143.034 273.85C143.308 273.713 143.532 273.528 143.708 273.293C143.884 273.059 143.984 272.793 144.008 272.495H145.305C145.28 272.964 145.122 273.401 144.829 273.806C144.536 274.207 144.155 274.531 143.686 274.78C143.217 275.024 142.702 275.146 142.141 275.146C141.345 275.146 140.686 274.966 140.163 274.604C139.641 274.238 139.25 273.755 138.991 273.154C138.737 272.554 138.61 271.899 138.61 271.191V270.884C138.61 270.171 138.74 269.517 138.999 268.921C139.257 268.32 139.648 267.839 140.17 267.478C140.693 267.112 141.35 266.929 142.141 266.929C142.761 266.929 143.303 267.056 143.767 267.31C144.235 267.559 144.602 267.9 144.865 268.335C145.134 268.765 145.28 269.253 145.305 269.8H144.008C143.984 269.473 143.891 269.175 143.73 268.906C143.574 268.638 143.359 268.425 143.085 268.269C142.817 268.108 142.502 268.027 142.141 268.027C141.589 268.027 141.154 268.169 140.837 268.452C140.524 268.735 140.302 269.097 140.17 269.536C140.043 269.971 139.98 270.42 139.98 270.884V271.191C139.98 271.655 140.043 272.107 140.17 272.546C140.297 272.986 140.517 273.347 140.83 273.63C141.147 273.909 141.584 274.048 142.141 274.048ZM146.477 270.957C146.477 270.19 146.623 269.504 146.916 268.899C147.209 268.293 147.624 267.815 148.161 267.463C148.698 267.107 149.335 266.929 150.073 266.929C150.82 266.929 151.464 267.107 152.006 267.463C152.548 267.815 152.963 268.293 153.251 268.899C153.544 269.504 153.691 270.19 153.691 270.957V271.125C153.691 271.887 153.544 272.573 153.251 273.184C152.963 273.789 152.548 274.268 152.006 274.619C151.469 274.971 150.83 275.146 150.087 275.146C149.345 275.146 148.703 274.971 148.161 274.619C147.624 274.268 147.209 273.789 146.916 273.184C146.623 272.573 146.477 271.887 146.477 271.125V270.957ZM147.846 271.125C147.846 271.648 147.929 272.131 148.095 272.576C148.261 273.02 148.508 273.376 148.835 273.645C149.167 273.914 149.584 274.048 150.087 274.048C150.585 274.048 150.998 273.914 151.325 273.645C151.657 273.376 151.906 273.02 152.072 272.576C152.238 272.131 152.321 271.648 152.321 271.125V270.957C152.321 270.435 152.238 269.951 152.072 269.507C151.906 269.062 151.657 268.706 151.325 268.438C150.993 268.164 150.576 268.027 150.073 268.027C149.58 268.027 149.167 268.164 148.835 268.438C148.503 268.706 148.254 269.062 148.088 269.507C147.927 269.951 147.846 270.435 147.846 270.957V271.125ZM156.76 275H155.39V267.075H156.687L156.76 268.65V275ZM155.844 270.708C155.849 269.985 155.971 269.341 156.21 268.774C156.455 268.203 156.813 267.754 157.287 267.427C157.766 267.095 158.359 266.929 159.067 266.929C159.809 266.929 160.422 267.146 160.905 267.581C161.389 268.015 161.63 268.728 161.63 269.719V275H160.261V269.785C160.261 269.37 160.19 269.038 160.048 268.789C159.912 268.535 159.716 268.352 159.462 268.24C159.208 268.123 158.911 268.064 158.569 268.064C158.173 268.064 157.841 268.135 157.573 268.276C157.309 268.418 157.097 268.613 156.936 268.862C156.774 269.111 156.657 269.397 156.584 269.719C156.516 270.037 156.481 270.374 156.481 270.73L155.844 270.708ZM160.7 270.261C160.705 269.685 160.827 269.143 161.066 268.635C161.311 268.127 161.667 267.717 162.136 267.405C162.604 267.087 163.176 266.929 163.85 266.929C164.416 266.929 164.897 267.029 165.292 267.229C165.688 267.429 165.988 267.739 166.193 268.159C166.398 268.579 166.501 269.124 166.501 269.792V275H165.131V269.778C165.131 269.333 165.061 268.987 164.919 268.738C164.782 268.489 164.587 268.315 164.333 268.218C164.084 268.115 163.789 268.064 163.447 268.064C163.149 268.064 162.885 268.115 162.656 268.218C162.431 268.32 162.241 268.462 162.084 268.643C161.933 268.818 161.816 269.021 161.733 269.25C161.655 269.48 161.616 269.724 161.616 269.983L160.7 270.261ZM176.945 269.565C176.945 269.092 176.804 268.716 176.521 268.438C176.242 268.154 175.83 268.013 175.283 268.013C174.946 268.013 174.648 268.071 174.389 268.188C174.135 268.306 173.938 268.459 173.796 268.65C173.654 268.84 173.583 269.048 173.583 269.272H172.214C172.214 268.892 172.343 268.523 172.602 268.167C172.861 267.805 173.225 267.51 173.693 267.28C174.167 267.046 174.724 266.929 175.363 266.929C175.939 266.929 176.45 267.026 176.894 267.222C177.338 267.417 177.685 267.712 177.934 268.108C178.188 268.499 178.315 268.989 178.315 269.58V273.271C178.315 273.535 178.337 273.816 178.381 274.114C178.43 274.412 178.5 274.668 178.593 274.883V275H177.165C177.097 274.844 177.043 274.636 177.004 274.377C176.965 274.114 176.945 273.87 176.945 273.645V269.565ZM177.194 271.147H175.832C175.061 271.147 174.465 271.27 174.045 271.514C173.625 271.758 173.415 272.124 173.415 272.612C173.415 272.993 173.542 273.315 173.796 273.579C174.055 273.843 174.431 273.975 174.924 273.975C175.339 273.975 175.705 273.887 176.022 273.711C176.34 273.535 176.591 273.318 176.777 273.059C176.962 272.8 177.062 272.551 177.077 272.312L177.663 272.964C177.629 273.169 177.536 273.396 177.385 273.645C177.233 273.894 177.031 274.133 176.777 274.363C176.528 274.587 176.23 274.775 175.883 274.927C175.542 275.073 175.156 275.146 174.726 275.146C174.189 275.146 173.718 275.044 173.312 274.839C172.912 274.629 172.6 274.346 172.375 273.989C172.155 273.633 172.045 273.237 172.045 272.803C172.045 271.948 172.368 271.301 173.012 270.862C173.657 270.417 174.523 270.195 175.612 270.195H177.18L177.194 271.147ZM181.933 275H180.563V263.75H181.933V275ZM187.426 268.108H183.134V267.075H187.426V268.108ZM185.947 265.149V273.037C185.947 273.311 185.988 273.516 186.071 273.652C186.154 273.789 186.262 273.879 186.394 273.923C186.525 273.967 186.667 273.989 186.818 273.989C186.931 273.989 187.048 273.979 187.17 273.96C187.297 273.94 187.39 273.923 187.448 273.909L187.456 275C187.348 275.034 187.207 275.066 187.031 275.095C186.86 275.129 186.652 275.146 186.408 275.146C186.076 275.146 185.771 275.081 185.493 274.949C185.214 274.817 184.992 274.597 184.826 274.29C184.66 273.977 184.577 273.557 184.577 273.03V265.149H185.947ZM188.43 270.957C188.43 270.19 188.576 269.504 188.869 268.899C189.162 268.293 189.577 267.815 190.114 267.463C190.651 267.107 191.289 266.929 192.026 266.929C192.773 266.929 193.417 267.107 193.959 267.463C194.501 267.815 194.917 268.293 195.205 268.899C195.498 269.504 195.644 270.19 195.644 270.957V271.125C195.644 271.887 195.498 272.573 195.205 273.184C194.917 273.789 194.501 274.268 193.959 274.619C193.422 274.971 192.783 275.146 192.041 275.146C191.298 275.146 190.656 274.971 190.114 274.619C189.577 274.268 189.162 273.789 188.869 273.184C188.576 272.573 188.43 271.887 188.43 271.125V270.957ZM189.799 271.125C189.799 271.648 189.882 272.131 190.048 272.576C190.214 273.02 190.461 273.376 190.788 273.645C191.12 273.914 191.538 274.048 192.041 274.048C192.539 274.048 192.951 273.914 193.278 273.645C193.61 273.376 193.859 273.02 194.025 272.576C194.191 272.131 194.274 271.648 194.274 271.125V270.957C194.274 270.435 194.191 269.951 194.025 269.507C193.859 269.062 193.61 268.706 193.278 268.438C192.946 268.164 192.529 268.027 192.026 268.027C191.533 268.027 191.12 268.164 190.788 268.438C190.456 268.706 190.207 269.062 190.041 269.507C189.88 269.951 189.799 270.435 189.799 270.957V271.125ZM86.125 285.75H87.4946V297H86.2422L86.125 295.462V285.75ZM80.8003 292.972C80.8003 292.166 80.9297 291.46 81.1885 290.855C81.4521 290.245 81.8184 289.771 82.2871 289.434C82.7559 289.097 83.3052 288.929 83.9351 288.929C84.5991 288.929 85.1533 289.083 85.5977 289.39C86.042 289.693 86.3887 290.125 86.6377 290.687C86.8916 291.248 87.0552 291.917 87.1284 292.693V293.404C87.0552 294.17 86.894 294.834 86.645 295.396C86.396 295.953 86.0469 296.385 85.5977 296.692C85.1533 296.995 84.5942 297.146 83.9204 297.146C83.3003 297.146 82.7559 296.973 82.2871 296.626C81.8184 296.275 81.4521 295.796 81.1885 295.191C80.9297 294.585 80.8003 293.897 80.8003 293.125V292.972ZM82.1699 293.125C82.1699 293.653 82.2407 294.134 82.3823 294.568C82.5288 295.003 82.7559 295.352 83.0635 295.616C83.3711 295.875 83.769 296.004 84.2573 296.004C84.7065 296.004 85.0752 295.909 85.3633 295.718C85.6562 295.528 85.8906 295.276 86.0664 294.964C86.2422 294.651 86.3789 294.312 86.4766 293.946V292.166C86.418 291.897 86.3325 291.639 86.2202 291.39C86.1128 291.136 85.9712 290.911 85.7954 290.716C85.6245 290.516 85.4121 290.357 85.1582 290.24C84.9092 290.123 84.6138 290.064 84.272 290.064C83.7788 290.064 83.376 290.196 83.0635 290.459C82.7559 290.723 82.5288 291.077 82.3823 291.521C82.2407 291.961 82.1699 292.444 82.1699 292.972V293.125ZM92.8926 297.146C92.1553 297.146 91.5132 296.983 90.9663 296.656C90.4243 296.324 90.002 295.87 89.6992 295.293C89.4014 294.717 89.2524 294.058 89.2524 293.316V293.001C89.2524 292.142 89.416 291.409 89.7432 290.804C90.0752 290.193 90.5049 289.729 91.0322 289.412C91.5645 289.09 92.126 288.929 92.7168 288.929C93.4785 288.929 94.0986 289.1 94.5771 289.441C95.0605 289.778 95.4146 290.24 95.6392 290.826C95.8687 291.407 95.9834 292.066 95.9834 292.803V293.411H90.0654V292.312H94.6138V292.21C94.5942 291.858 94.5234 291.517 94.4014 291.185C94.2793 290.848 94.084 290.572 93.8154 290.357C93.5469 290.137 93.1807 290.027 92.7168 290.027C92.3066 290.027 91.9429 290.145 91.6255 290.379C91.313 290.608 91.0664 290.945 90.8857 291.39C90.71 291.829 90.6221 292.366 90.6221 293.001V293.316C90.6221 293.819 90.7148 294.278 90.9004 294.693C91.0859 295.103 91.3545 295.433 91.7061 295.682C92.0576 295.926 92.4775 296.048 92.9658 296.048C93.4443 296.048 93.8496 295.95 94.1816 295.755C94.5137 295.56 94.8042 295.298 95.0532 294.971L95.8809 295.616C95.627 296.006 95.2607 296.36 94.7822 296.678C94.3086 296.99 93.6787 297.146 92.8926 297.146ZM102.18 294.898C102.18 294.703 102.136 294.522 102.048 294.356C101.965 294.185 101.794 294.031 101.535 293.895C101.276 293.753 100.886 293.628 100.363 293.521C99.7773 293.399 99.2695 293.245 98.8398 293.06C98.415 292.869 98.0854 292.627 97.8511 292.334C97.6216 292.042 97.5068 291.678 97.5068 291.243C97.5068 290.823 97.6265 290.44 97.8657 290.093C98.1099 289.742 98.4517 289.461 98.8911 289.251C99.3354 289.036 99.853 288.929 100.444 288.929C101.079 288.929 101.621 289.041 102.07 289.266C102.524 289.485 102.871 289.783 103.11 290.159C103.349 290.53 103.469 290.943 103.469 291.397H102.099C102.099 291.07 101.955 290.76 101.667 290.467C101.384 290.174 100.976 290.027 100.444 290.027C100.073 290.027 99.77 290.086 99.5356 290.203C99.3062 290.315 99.1377 290.462 99.0303 290.643C98.9277 290.818 98.8765 291.004 98.8765 291.199C98.8765 291.395 98.9253 291.565 99.0229 291.712C99.1206 291.854 99.2988 291.98 99.5576 292.093C99.8213 292.205 100.202 292.317 100.7 292.43C101.35 292.576 101.884 292.752 102.304 292.957C102.724 293.162 103.037 293.414 103.242 293.711C103.447 294.009 103.549 294.373 103.549 294.803C103.549 295.262 103.422 295.669 103.168 296.026C102.915 296.377 102.558 296.653 102.099 296.854C101.64 297.049 101.101 297.146 100.48 297.146C99.7822 297.146 99.1914 297.022 98.708 296.773C98.2246 296.524 97.8584 296.204 97.6094 295.813C97.3604 295.418 97.2358 295 97.2358 294.561H98.6055C98.6299 294.932 98.7373 295.228 98.9277 295.447C99.123 295.662 99.3599 295.816 99.6382 295.909C99.9214 296.001 100.202 296.048 100.48 296.048C100.852 296.048 101.162 295.999 101.411 295.901C101.665 295.799 101.855 295.662 101.982 295.491C102.114 295.315 102.18 295.118 102.18 294.898ZM108.61 297.146C107.873 297.146 107.231 296.983 106.684 296.656C106.142 296.324 105.72 295.87 105.417 295.293C105.119 294.717 104.97 294.058 104.97 293.316V293.001C104.97 292.142 105.134 291.409 105.461 290.804C105.793 290.193 106.223 289.729 106.75 289.412C107.282 289.09 107.844 288.929 108.435 288.929C109.196 288.929 109.816 289.1 110.295 289.441C110.778 289.778 111.132 290.24 111.357 290.826C111.586 291.407 111.701 292.066 111.701 292.803V293.411H105.783V292.312H110.332V292.21C110.312 291.858 110.241 291.517 110.119 291.185C109.997 290.848 109.802 290.572 109.533 290.357C109.265 290.137 108.898 290.027 108.435 290.027C108.024 290.027 107.661 290.145 107.343 290.379C107.031 290.608 106.784 290.945 106.604 291.39C106.428 291.829 106.34 292.366 106.34 293.001V293.316C106.34 293.819 106.433 294.278 106.618 294.693C106.804 295.103 107.072 295.433 107.424 295.682C107.775 295.926 108.195 296.048 108.684 296.048C109.162 296.048 109.567 295.95 109.899 295.755C110.231 295.56 110.522 295.298 110.771 294.971L111.599 295.616C111.345 296.006 110.979 296.36 110.5 296.678C110.026 296.99 109.396 297.146 108.61 297.146ZM114.646 297H113.276V289.075H114.572L114.646 290.65V297ZM113.73 292.708C113.735 291.985 113.857 291.341 114.096 290.774C114.34 290.203 114.699 289.754 115.173 289.427C115.651 289.095 116.245 288.929 116.953 288.929C117.695 288.929 118.308 289.146 118.791 289.581C119.274 290.015 119.516 290.728 119.516 291.719V297H118.146V291.785C118.146 291.37 118.076 291.038 117.934 290.789C117.797 290.535 117.602 290.352 117.348 290.24C117.094 290.123 116.796 290.064 116.455 290.064C116.059 290.064 115.727 290.135 115.458 290.276C115.195 290.418 114.982 290.613 114.821 290.862C114.66 291.111 114.543 291.397 114.47 291.719C114.401 292.037 114.367 292.374 114.367 292.73L113.73 292.708ZM118.586 292.261C118.591 291.685 118.713 291.143 118.952 290.635C119.196 290.127 119.553 289.717 120.021 289.405C120.49 289.087 121.062 288.929 121.735 288.929C122.302 288.929 122.783 289.029 123.178 289.229C123.574 289.429 123.874 289.739 124.079 290.159C124.284 290.579 124.387 291.124 124.387 291.792V297H123.017V291.778C123.017 291.333 122.946 290.987 122.805 290.738C122.668 290.489 122.473 290.315 122.219 290.218C121.97 290.115 121.674 290.064 121.333 290.064C121.035 290.064 120.771 290.115 120.542 290.218C120.317 290.32 120.126 290.462 119.97 290.643C119.819 290.818 119.702 291.021 119.619 291.25C119.541 291.48 119.501 291.724 119.501 291.983L118.586 292.261ZM127.807 300.047H126.438V289.075H127.683L127.807 290.599V300.047ZM133.139 293.125C133.139 293.897 133.02 294.585 132.78 295.191C132.541 295.796 132.192 296.275 131.733 296.626C131.279 296.973 130.725 297.146 130.07 297.146C129.392 297.146 128.823 297 128.364 296.707C127.905 296.414 127.546 295.999 127.287 295.462C127.028 294.92 126.86 294.28 126.782 293.543V292.693C126.86 291.917 127.028 291.248 127.287 290.687C127.551 290.125 127.91 289.693 128.364 289.39C128.823 289.083 129.384 288.929 130.048 288.929C130.712 288.929 131.274 289.097 131.733 289.434C132.192 289.771 132.541 290.245 132.78 290.855C133.02 291.46 133.139 292.166 133.139 292.972V293.125ZM131.77 292.972C131.77 292.444 131.694 291.961 131.542 291.521C131.396 291.077 131.164 290.723 130.847 290.459C130.534 290.196 130.131 290.064 129.638 290.064C129.301 290.064 129.008 290.123 128.759 290.24C128.51 290.357 128.298 290.516 128.122 290.716C127.946 290.911 127.802 291.136 127.69 291.39C127.583 291.639 127.502 291.897 127.448 292.166V294.078C127.546 294.419 127.68 294.742 127.851 295.044C128.027 295.342 128.259 295.584 128.547 295.77C128.84 295.955 129.208 296.048 129.653 296.048C130.141 296.048 130.542 295.914 130.854 295.645C131.167 295.376 131.396 295.022 131.542 294.583C131.694 294.139 131.77 293.653 131.77 293.125V292.972ZM138.156 297.146C137.419 297.146 136.777 296.983 136.23 296.656C135.688 296.324 135.266 295.87 134.963 295.293C134.665 294.717 134.516 294.058 134.516 293.316V293.001C134.516 292.142 134.68 291.409 135.007 290.804C135.339 290.193 135.769 289.729 136.296 289.412C136.828 289.09 137.39 288.929 137.98 288.929C138.742 288.929 139.362 289.1 139.841 289.441C140.324 289.778 140.678 290.24 140.903 290.826C141.132 291.407 141.247 292.066 141.247 292.803V293.411H135.329V292.312H139.877V292.21C139.858 291.858 139.787 291.517 139.665 291.185C139.543 290.848 139.348 290.572 139.079 290.357C138.811 290.137 138.444 290.027 137.98 290.027C137.57 290.027 137.207 290.145 136.889 290.379C136.577 290.608 136.33 290.945 136.149 291.39C135.974 291.829 135.886 292.366 135.886 293.001V293.316C135.886 293.819 135.979 294.278 136.164 294.693C136.35 295.103 136.618 295.433 136.97 295.682C137.321 295.926 137.741 296.048 138.229 296.048C138.708 296.048 139.113 295.95 139.445 295.755C139.777 295.56 140.068 295.298 140.317 294.971L141.145 295.616C140.891 296.006 140.524 296.36 140.046 296.678C139.572 296.99 138.942 297.146 138.156 297.146ZM144.199 297H142.829V289.075H144.125L144.199 290.767V297ZM143.305 292.708C143.315 291.985 143.454 291.341 143.723 290.774C143.991 290.203 144.365 289.754 144.843 289.427C145.327 289.095 145.888 288.929 146.528 288.929C147.05 288.929 147.5 289.026 147.875 289.222C148.256 289.412 148.549 289.717 148.754 290.137C148.964 290.557 149.069 291.114 149.069 291.807V297H147.7V291.792C147.7 291.377 147.639 291.043 147.517 290.789C147.399 290.535 147.224 290.352 146.989 290.24C146.755 290.123 146.467 290.064 146.125 290.064C145.788 290.064 145.483 290.135 145.209 290.276C144.936 290.418 144.699 290.613 144.499 290.862C144.299 291.111 144.145 291.397 144.038 291.719C143.93 292.037 143.876 292.374 143.876 292.73L143.305 292.708ZM152.49 297H151.12V285.75H152.49V297ZM151.596 292.708C151.606 291.985 151.745 291.341 152.014 290.774C152.282 290.203 152.656 289.754 153.134 289.427C153.618 289.095 154.179 288.929 154.819 288.929C155.341 288.929 155.791 289.026 156.167 289.222C156.547 289.412 156.84 289.717 157.045 290.137C157.255 290.557 157.36 291.114 157.36 291.807V297H155.991V291.792C155.991 291.377 155.93 291.043 155.808 290.789C155.69 290.535 155.515 290.352 155.28 290.24C155.046 290.123 154.758 290.064 154.416 290.064C154.079 290.064 153.774 290.135 153.5 290.276C153.227 290.418 152.99 290.613 152.79 290.862C152.59 291.111 152.436 291.397 152.329 291.719C152.221 292.037 152.167 292.374 152.167 292.73L151.596 292.708ZM159.03 292.957C159.03 292.19 159.177 291.504 159.47 290.899C159.763 290.293 160.178 289.815 160.715 289.463C161.252 289.107 161.889 288.929 162.626 288.929C163.374 288.929 164.018 289.107 164.56 289.463C165.102 289.815 165.517 290.293 165.805 290.899C166.098 291.504 166.245 292.19 166.245 292.957V293.125C166.245 293.887 166.098 294.573 165.805 295.184C165.517 295.789 165.102 296.268 164.56 296.619C164.023 296.971 163.383 297.146 162.641 297.146C161.899 297.146 161.257 296.971 160.715 296.619C160.178 296.268 159.763 295.789 159.47 295.184C159.177 294.573 159.03 293.887 159.03 293.125V292.957ZM160.4 293.125C160.4 293.648 160.483 294.131 160.649 294.576C160.815 295.02 161.062 295.376 161.389 295.645C161.721 295.914 162.138 296.048 162.641 296.048C163.139 296.048 163.552 295.914 163.879 295.645C164.211 295.376 164.46 295.02 164.626 294.576C164.792 294.131 164.875 293.648 164.875 293.125V292.957C164.875 292.435 164.792 291.951 164.626 291.507C164.46 291.062 164.211 290.706 163.879 290.438C163.547 290.164 163.129 290.027 162.626 290.027C162.133 290.027 161.721 290.164 161.389 290.438C161.057 290.706 160.808 291.062 160.642 291.507C160.48 291.951 160.4 292.435 160.4 292.957V293.125ZM167.98 296.29C167.98 296.06 168.051 295.867 168.193 295.711C168.339 295.55 168.549 295.469 168.823 295.469C169.101 295.469 169.311 295.55 169.453 295.711C169.599 295.867 169.672 296.06 169.672 296.29C169.672 296.514 169.599 296.702 169.453 296.854C169.311 297.005 169.101 297.081 168.823 297.081C168.549 297.081 168.339 297.005 168.193 296.854C168.051 296.702 167.98 296.514 167.98 296.29Z" fill="#171717"/>
<path d="M66.3483 27.235V29.746H58.3833V35.281H64.5933V37.792H58.3833V46H55.3053V27.235H66.3483ZM68.1748 38.494C68.1748 37 68.4808 35.677 69.0928 34.525C69.7228 33.373 70.5688 32.482 71.6308 31.852C72.7108 31.204 73.8988 30.88 75.1948 30.88C76.3648 30.88 77.3818 31.114 78.2458 31.582C79.1278 32.032 79.8298 32.599 80.3518 33.283V31.123H83.4568V46H80.3518V43.786C79.8298 44.488 79.1188 45.073 78.2188 45.541C77.3188 46.009 76.2928 46.243 75.1408 46.243C73.8628 46.243 72.6928 45.919 71.6308 45.271C70.5688 44.605 69.7228 43.687 69.0928 42.517C68.4808 41.329 68.1748 39.988 68.1748 38.494ZM80.3518 38.548C80.3518 37.522 80.1358 36.631 79.7038 35.875C79.2898 35.119 78.7408 34.543 78.0568 34.147C77.3728 33.751 76.6348 33.553 75.8428 33.553C75.0508 33.553 74.3128 33.751 73.6288 34.147C72.9448 34.525 72.3868 35.092 71.9548 35.848C71.5408 36.586 71.3338 37.468 71.3338 38.494C71.3338 39.52 71.5408 40.42 71.9548 41.194C72.3868 41.968 72.9448 42.562 73.6288 42.976C74.3308 43.372 75.0688 43.57 75.8428 43.57C76.6348 43.57 77.3728 43.372 78.0568 42.976C78.7408 42.58 79.2898 42.004 79.7038 41.248C80.1358 40.474 80.3518 39.574 80.3518 38.548ZM90.5776 33.337C91.0996 32.617 91.8106 32.032 92.7106 31.582C93.6286 31.114 94.6456 30.88 95.7616 30.88C97.0756 30.88 98.2636 31.195 99.3256 31.825C100.388 32.455 101.225 33.355 101.837 34.525C102.449 35.677 102.755 37 102.755 38.494C102.755 39.988 102.449 41.329 101.837 42.517C101.225 43.687 100.379 44.605 99.2986 45.271C98.2366 45.919 97.0576 46.243 95.7616 46.243C94.6096 46.243 93.5836 46.018 92.6836 45.568C91.8016 45.118 91.0996 44.542 90.5776 43.84V46H87.4996V26.02H90.5776V33.337ZM99.6226 38.494C99.6226 37.468 99.4066 36.586 98.9746 35.848C98.5606 35.092 98.0026 34.525 97.3006 34.147C96.6166 33.751 95.8786 33.553 95.0866 33.553C94.3126 33.553 93.5746 33.751 92.8726 34.147C92.1886 34.543 91.6306 35.119 91.1986 35.875C90.7846 36.631 90.5776 37.522 90.5776 38.548C90.5776 39.574 90.7846 40.474 91.1986 41.248C91.6306 42.004 92.1886 42.58 92.8726 42.976C93.5746 43.372 94.3126 43.57 95.0866 43.57C95.8786 43.57 96.6166 43.372 97.3006 42.976C98.0026 42.562 98.5606 41.968 98.9746 41.194C99.4066 40.42 99.6226 39.52 99.6226 38.494ZM108.876 33.283C109.326 32.527 109.92 31.942 110.658 31.528C111.414 31.096 112.305 30.88 113.331 30.88V34.066H112.548C111.342 34.066 110.424 34.372 109.794 34.984C109.182 35.596 108.876 36.658 108.876 38.17V46H105.798V31.123H108.876V33.283ZM117.727 29.152C117.169 29.152 116.701 28.963 116.323 28.585C115.945 28.207 115.756 27.739 115.756 27.181C115.756 26.623 115.945 26.155 116.323 25.777C116.701 25.399 117.169 25.21 117.727 25.21C118.267 25.21 118.726 25.399 119.104 25.777C119.482 26.155 119.671 26.623 119.671 27.181C119.671 27.739 119.482 28.207 119.104 28.585C118.726 28.963 118.267 29.152 117.727 29.152ZM119.239 31.123V46H116.161V31.123H119.239ZM122.254 38.548C122.254 37.018 122.56 35.677 123.172 34.525C123.802 33.355 124.666 32.455 125.764 31.825C126.862 31.195 128.122 30.88 129.544 30.88C131.344 30.88 132.829 31.312 133.999 32.176C135.187 33.022 135.988 34.237 136.402 35.821H133.081C132.811 35.083 132.379 34.507 131.785 34.093C131.191 33.679 130.444 33.472 129.544 33.472C128.284 33.472 127.276 33.922 126.52 34.822C125.782 35.704 125.413 36.946 125.413 38.548C125.413 40.15 125.782 41.401 126.52 42.301C127.276 43.201 128.284 43.651 129.544 43.651C131.326 43.651 132.505 42.868 133.081 41.302H136.402C135.97 42.814 135.16 44.02 133.972 44.92C132.784 45.802 131.308 46.243 129.544 46.243C128.122 46.243 126.862 45.928 125.764 45.298C124.666 44.65 123.802 43.75 123.172 42.598C122.56 41.428 122.254 40.078 122.254 38.548ZM138.443 38.494C138.443 37 138.749 35.677 139.361 34.525C139.991 33.373 140.837 32.482 141.899 31.852C142.979 31.204 144.167 30.88 145.463 30.88C146.633 30.88 147.65 31.114 148.514 31.582C149.396 32.032 150.098 32.599 150.62 33.283V31.123H153.725V46H150.62V43.786C150.098 44.488 149.387 45.073 148.487 45.541C147.587 46.009 146.561 46.243 145.409 46.243C144.131 46.243 142.961 45.919 141.899 45.271C140.837 44.605 139.991 43.687 139.361 42.517C138.749 41.329 138.443 39.988 138.443 38.494ZM150.62 38.548C150.62 37.522 150.404 36.631 149.972 35.875C149.558 35.119 149.009 34.543 148.325 34.147C147.641 33.751 146.903 33.553 146.111 33.553C145.319 33.553 144.581 33.751 143.897 34.147C143.213 34.525 142.655 35.092 142.223 35.848C141.809 36.586 141.602 37.468 141.602 38.494C141.602 39.52 141.809 40.42 142.223 41.194C142.655 41.968 143.213 42.562 143.897 42.976C144.599 43.372 145.337 43.57 146.111 43.57C146.903 43.57 147.641 43.372 148.325 42.976C149.009 42.58 149.558 42.004 149.972 41.248C150.404 40.474 150.62 39.574 150.62 38.548ZM163.756 38.494C163.756 37 164.062 35.677 164.674 34.525C165.304 33.373 166.15 32.482 167.212 31.852C168.292 31.204 169.489 30.88 170.803 30.88C171.775 30.88 172.729 31.096 173.665 31.528C174.619 31.942 175.375 32.5 175.933 33.202V26.02H179.038V46H175.933V43.759C175.429 44.479 174.727 45.073 173.827 45.541C172.945 46.009 171.928 46.243 170.776 46.243C169.48 46.243 168.292 45.919 167.212 45.271C166.15 44.605 165.304 43.687 164.674 42.517C164.062 41.329 163.756 39.988 163.756 38.494ZM175.933 38.548C175.933 37.522 175.717 36.631 175.285 35.875C174.871 35.119 174.322 34.543 173.638 34.147C172.954 33.751 172.216 33.553 171.424 33.553C170.632 33.553 169.894 33.751 169.21 34.147C168.526 34.525 167.968 35.092 167.536 35.848C167.122 36.586 166.915 37.468 166.915 38.494C166.915 39.52 167.122 40.42 167.536 41.194C167.968 41.968 168.526 42.562 169.21 42.976C169.912 43.372 170.65 43.57 171.424 43.57C172.216 43.57 172.954 43.372 173.638 42.976C174.322 42.58 174.871 42.004 175.285 41.248C175.717 40.474 175.933 39.574 175.933 38.548ZM196.716 38.197C196.716 38.755 196.68 39.259 196.608 39.709H185.241C185.331 40.897 185.772 41.851 186.564 42.571C187.356 43.291 188.328 43.651 189.48 43.651C191.136 43.651 192.306 42.958 192.99 41.572H196.311C195.861 42.94 195.042 44.065 193.854 44.947C192.684 45.811 191.226 46.243 189.48 46.243C188.058 46.243 186.78 45.928 185.646 45.298C184.53 44.65 183.648 43.75 183 42.598C182.37 41.428 182.055 40.078 182.055 38.548C182.055 37.018 182.361 35.677 182.973 34.525C183.603 33.355 184.476 32.455 185.592 31.825C186.726 31.195 188.022 30.88 189.48 30.88C190.884 30.88 192.135 31.186 193.233 31.798C194.331 32.41 195.186 33.274 195.798 34.39C196.41 35.488 196.716 36.757 196.716 38.197ZM193.503 37.225C193.485 36.091 193.08 35.182 192.288 34.498C191.496 33.814 190.515 33.472 189.345 33.472C188.283 33.472 187.374 33.814 186.618 34.498C185.862 35.164 185.412 36.073 185.268 37.225H193.503ZM73.6435 87.189C72.3835 87.189 71.2495 86.973 70.2415 86.541C69.2335 86.091 68.4415 85.461 67.8655 84.651C67.2895 83.841 67.0015 82.896 67.0015 81.816H70.2955C70.3675 82.626 70.6825 83.292 71.2405 83.814C71.8165 84.336 72.6175 84.597 73.6435 84.597C74.7055 84.597 75.5335 84.345 76.1275 83.841C76.7215 83.319 77.0185 82.653 77.0185 81.843C77.0185 81.213 76.8295 80.7 76.4515 80.304C76.0915 79.908 75.6325 79.602 75.0745 79.386C74.5345 79.17 73.7785 78.936 72.8065 78.684C71.5825 78.36 70.5835 78.036 69.8095 77.712C69.0535 77.37 68.4055 76.848 67.8655 76.146C67.3255 75.444 67.0555 74.508 67.0555 73.338C67.0555 72.258 67.3255 71.313 67.8655 70.503C68.4055 69.693 69.1615 69.072 70.1335 68.64C71.1055 68.208 72.2305 67.992 73.5085 67.992C75.3265 67.992 76.8115 68.451 77.9635 69.369C79.1335 70.269 79.7815 71.511 79.9075 73.095H76.5055C76.4515 72.411 76.1275 71.826 75.5335 71.34C74.9395 70.854 74.1565 70.611 73.1845 70.611C72.3025 70.611 71.5825 70.836 71.0245 71.286C70.4665 71.736 70.1875 72.384 70.1875 73.23C70.1875 73.806 70.3585 74.283 70.7005 74.661C71.0605 75.021 71.5105 75.309 72.0505 75.525C72.5905 75.741 73.3285 75.975 74.2645 76.227C75.5065 76.569 76.5145 76.911 77.2885 77.253C78.0805 77.595 78.7465 78.126 79.2865 78.846C79.8445 79.548 80.1235 80.493 80.1235 81.681C80.1235 82.635 79.8625 83.535 79.3405 84.381C78.8365 85.227 78.0895 85.911 77.0995 86.433C76.1275 86.937 74.9755 87.189 73.6435 87.189ZM90.2085 87.243C88.8045 87.243 87.5355 86.928 86.4015 86.298C85.2675 85.65 84.3765 84.75 83.7285 83.598C83.0805 82.428 82.7565 81.078 82.7565 79.548C82.7565 78.036 83.0895 76.695 83.7555 75.525C84.4215 74.355 85.3305 73.455 86.4825 72.825C87.6345 72.195 88.9215 71.88 90.3435 71.88C91.7655 71.88 93.0525 72.195 94.2045 72.825C95.3565 73.455 96.2655 74.355 96.9315 75.525C97.5975 76.695 97.9305 78.036 97.9305 79.548C97.9305 81.06 97.5885 82.401 96.9045 83.571C96.2205 84.741 95.2845 85.65 94.0965 86.298C92.9265 86.928 91.6305 87.243 90.2085 87.243ZM90.2085 84.57C91.0005 84.57 91.7385 84.381 92.4225 84.003C93.1245 83.625 93.6915 83.058 94.1235 82.302C94.5555 81.546 94.7715 80.628 94.7715 79.548C94.7715 78.468 94.5645 77.559 94.1505 76.821C93.7365 76.065 93.1875 75.498 92.5035 75.12C91.8195 74.742 91.0815 74.553 90.2895 74.553C89.4975 74.553 88.7595 74.742 88.0755 75.12C87.4095 75.498 86.8785 76.065 86.4825 76.821C86.0865 77.559 85.8885 78.468 85.8885 79.548C85.8885 81.15 86.2935 82.392 87.1035 83.274C87.9315 84.138 88.9665 84.57 90.2085 84.57ZM107.21 74.634H104.456V87H101.351V74.634H99.5962V72.123H101.351V71.07C101.351 69.36 101.801 68.118 102.701 67.344C103.619 66.552 105.05 66.156 106.994 66.156V68.721C106.058 68.721 105.401 68.901 105.023 69.261C104.645 69.603 104.456 70.206 104.456 71.07V72.123H107.21V74.634ZM113.529 74.634V82.869C113.529 83.427 113.655 83.832 113.907 84.084C114.177 84.318 114.627 84.435 115.257 84.435H117.147V87H114.717C113.331 87 112.269 86.676 111.531 86.028C110.793 85.38 110.424 84.327 110.424 82.869V74.634H108.669V72.123H110.424V68.424H113.529V72.123H117.147V74.634H113.529ZM139.964 72.123L135.347 87H132.107L129.11 76.011L126.113 87H122.873L118.229 72.123H121.361L124.466 84.084L127.625 72.123H130.838L133.862 84.03L136.94 72.123H139.964ZM141.238 79.494C141.238 78 141.544 76.677 142.156 75.525C142.786 74.373 143.632 73.482 144.694 72.852C145.774 72.204 146.962 71.88 148.258 71.88C149.428 71.88 150.445 72.114 151.309 72.582C152.191 73.032 152.893 73.599 153.415 74.283V72.123H156.52V87H153.415V84.786C152.893 85.488 152.182 86.073 151.282 86.541C150.382 87.009 149.356 87.243 148.204 87.243C146.926 87.243 145.756 86.919 144.694 86.271C143.632 85.605 142.786 84.687 142.156 83.517C141.544 82.329 141.238 80.988 141.238 79.494ZM153.415 79.548C153.415 78.522 153.199 77.631 152.767 76.875C152.353 76.119 151.804 75.543 151.12 75.147C150.436 74.751 149.698 74.553 148.906 74.553C148.114 74.553 147.376 74.751 146.692 75.147C146.008 75.525 145.45 76.092 145.018 76.848C144.604 77.586 144.397 78.468 144.397 79.494C144.397 80.52 144.604 81.42 145.018 82.194C145.45 82.968 146.008 83.562 146.692 83.976C147.394 84.372 148.132 84.57 148.906 84.57C149.698 84.57 150.436 84.372 151.12 83.976C151.804 83.58 152.353 83.004 152.767 82.248C153.199 81.474 153.415 80.574 153.415 79.548ZM163.641 74.283C164.091 73.527 164.685 72.942 165.423 72.528C166.179 72.096 167.07 71.88 168.096 71.88V75.066H167.313C166.107 75.066 165.189 75.372 164.559 75.984C163.947 76.596 163.641 77.658 163.641 79.17V87H160.563V72.123H163.641V74.283ZM184.56 79.197C184.56 79.755 184.524 80.259 184.452 80.709H173.085C173.175 81.897 173.616 82.851 174.408 83.571C175.2 84.291 176.172 84.651 177.324 84.651C178.98 84.651 180.15 83.958 180.834 82.572H184.155C183.705 83.94 182.886 85.065 181.698 85.947C180.528 86.811 179.07 87.243 177.324 87.243C175.902 87.243 174.624 86.928 173.49 86.298C172.374 85.65 171.492 84.75 170.844 83.598C170.214 82.428 169.899 81.078 169.899 79.548C169.899 78.018 170.205 76.677 170.817 75.525C171.447 74.355 172.32 73.455 173.436 72.825C174.57 72.195 175.866 71.88 177.324 71.88C178.728 71.88 179.979 72.186 181.077 72.798C182.175 73.41 183.03 74.274 183.642 75.39C184.254 76.488 184.56 77.757 184.56 79.197ZM181.347 78.225C181.329 77.091 180.924 76.182 180.132 75.498C179.34 74.814 178.359 74.472 177.189 74.472C176.127 74.472 175.218 74.814 174.462 75.498C173.706 76.164 173.256 77.073 173.112 78.225H181.347Z" fill="#171717"/>
<path d="M179.213 114.362H70.7872C69.8 114.362 69 115.162 69 116.149V213.851C69 214.838 69.8 215.638 70.7872 215.638H179.213C180.2 215.638 181 214.838 181 213.851V116.149C181 115.162 180.2 114.362 179.213 114.362ZM177.426 212.064H72.5745V117.936H138.702V128.66H77.9362C76.9489 128.66 76.1489 129.46 76.1489 130.447C76.1489 131.434 76.9489 132.234 77.9362 132.234H172.064C173.051 132.234 173.851 131.434 173.851 130.447C173.851 129.46 173.051 128.66 172.064 128.66H142.277V117.936H177.426V212.064Z" fill="black"/>
<path d="M159.911 125.085C160.898 125.085 161.698 124.285 161.698 123.298C161.698 122.311 160.898 121.511 159.911 121.511C158.924 121.511 158.123 122.311 158.123 123.298C158.123 124.285 158.924 125.085 159.911 125.085Z" fill="black"/>
<path d="M150.14 125.085C151.127 125.085 151.928 124.285 151.928 123.298C151.928 122.311 151.127 121.511 150.14 121.511C149.153 121.511 148.353 122.311 148.353 123.298C148.353 124.285 149.153 125.085 150.14 125.085Z" fill="black"/>
<path d="M169.681 125.085C170.668 125.085 171.468 124.285 171.468 123.298C171.468 122.311 170.668 121.511 169.681 121.511C168.694 121.511 167.894 122.311 167.894 123.298C167.894 124.285 168.694 125.085 169.681 125.085Z" fill="black"/>
<path d="M125 158.25C117.697 158.25 111.756 164.192 111.756 171.494C111.756 178.797 117.697 184.738 125 184.738C127.101 184.738 129.197 184.23 131.061 183.269C131.939 182.816 132.283 181.738 131.831 180.861C131.378 179.983 130.3 179.64 129.423 180.091C128.044 180.803 126.556 181.164 125 181.164C119.668 181.164 115.331 176.826 115.331 171.494C115.331 166.162 119.668 161.825 125 161.825C130.332 161.825 134.669 166.162 134.669 171.494C134.669 173.05 134.309 174.538 133.598 175.917C133.145 176.794 133.49 177.872 134.367 178.325C135.244 178.776 136.322 178.433 136.775 177.555C137.736 175.692 138.244 173.596 138.244 171.494C138.244 164.191 132.303 158.25 125 158.25Z" fill="black"/>
<path d="M154.331 164.941H146.815C146.374 163.476 145.785 162.059 145.054 160.707L150.374 155.388C150.709 155.052 150.898 154.598 150.898 154.124C150.898 153.65 150.709 153.195 150.374 152.86L143.634 146.12C142.936 145.422 141.805 145.422 141.107 146.12L135.787 151.44C134.435 150.71 133.019 150.12 131.553 149.679V142.163C131.553 141.175 130.753 140.375 129.766 140.375H120.234C119.247 140.375 118.447 141.175 118.447 142.163V149.679C116.981 150.12 115.565 150.709 114.213 151.44L108.893 146.12C108.195 145.422 107.064 145.422 106.366 146.12L99.6258 152.86C99.2908 153.195 99.1025 153.65 99.1025 154.124C99.1025 154.598 99.2908 155.052 99.6258 155.388L104.946 160.707C104.215 162.059 103.626 163.475 103.185 164.941H95.6686C94.6814 164.941 93.8814 165.741 93.8814 166.728V176.26C93.8814 177.248 94.6814 178.048 95.6686 178.048H103.186C103.627 179.514 104.215 180.93 104.946 182.281L99.6261 187.601C99.2908 187.936 99.1025 188.39 99.1025 188.865C99.1025 189.339 99.2908 189.793 99.6258 190.129L106.366 196.869C107.064 197.566 108.195 197.567 108.893 196.869L114.213 191.549C115.565 192.279 116.981 192.868 118.447 193.309V200.826C118.447 201.813 119.247 202.613 120.234 202.613H129.766C130.753 202.613 131.553 201.813 131.553 200.826V193.309C133.019 192.868 134.435 192.279 135.787 191.549L141.107 196.869C141.805 197.566 142.936 197.566 143.634 196.869L150.374 190.129C150.709 189.793 150.898 189.339 150.898 188.865C150.898 188.39 150.709 187.936 150.374 187.601L145.054 182.281C145.785 180.93 146.373 179.514 146.815 178.048H154.331C155.319 178.048 156.119 177.248 156.119 176.26V166.728C156.119 165.741 155.318 164.941 154.331 164.941ZM152.544 174.473H145.442C144.612 174.473 143.89 175.045 143.702 175.855C143.226 177.895 142.419 179.837 141.302 181.627C140.862 182.333 140.967 183.249 141.555 183.837L146.583 188.865L142.371 193.077L137.342 188.049C136.754 187.461 135.839 187.357 135.133 187.797C133.343 188.913 131.401 189.721 129.36 190.196C128.551 190.385 127.979 191.106 127.979 191.937V199.038H122.021V191.937C122.021 191.106 121.449 190.385 120.64 190.196C118.599 189.721 116.657 188.913 114.867 187.797C114.162 187.356 113.245 187.461 112.658 188.049L107.63 193.077L103.417 188.865L108.445 183.837C109.033 183.248 109.138 182.332 108.698 181.627C107.581 179.838 106.774 177.896 106.298 175.855C106.11 175.045 105.389 174.473 104.558 174.473H97.4559V168.516H104.558C105.388 168.516 106.11 167.943 106.298 167.134C106.774 165.094 107.581 163.152 108.698 161.362C109.138 160.656 109.033 159.74 108.445 159.152L103.417 154.124L107.63 149.911L112.658 154.94C113.246 155.528 114.162 155.633 114.867 155.192C116.657 154.075 118.599 153.268 120.64 152.793C121.449 152.604 122.021 151.883 122.021 151.052V143.95H127.979V151.052C127.979 151.883 128.551 152.604 129.36 152.793C131.401 153.268 133.343 154.075 135.133 155.192C135.839 155.633 136.755 155.527 137.342 154.94L142.371 149.911L146.583 154.124L141.555 159.152C140.967 159.74 140.862 160.656 141.302 161.362C142.419 163.152 143.226 165.094 143.702 167.134C143.89 167.943 144.611 168.516 145.442 168.516H152.544V174.473Z" fill="black"/>
</svg>
