<svg width="251" height="329" viewBox="0 0 251 329" fill="none" xmlns="http://www.w3.org/2000/svg">
<rect width="251" height="329" rx="40" fill="#F8F6F3"/>
<path d="M44.7944 222.012C44.7944 223.077 44.6187 223.992 44.2671 224.759C43.9155 225.525 43.4199 226.116 42.7803 226.531C42.1406 226.941 41.3862 227.146 40.5171 227.146C39.6772 227.146 38.9326 226.941 38.2832 226.531C37.6338 226.116 37.126 225.525 36.7598 224.759C36.3936 223.992 36.2104 223.077 36.2104 222.012V221.331C36.2104 220.267 36.3911 219.351 36.7524 218.584C37.1187 217.813 37.624 217.222 38.2686 216.812C38.918 216.397 39.6626 216.189 40.5024 216.189C41.3716 216.189 42.126 216.397 42.7656 216.812C43.4102 217.222 43.9082 217.813 44.2598 218.584C44.6162 219.351 44.7944 220.267 44.7944 221.331V222.012ZM43.3882 221.316C43.3882 220.467 43.2734 219.751 43.0439 219.17C42.8145 218.584 42.4849 218.14 42.0552 217.837C41.6255 217.535 41.1079 217.383 40.5024 217.383C39.9214 217.383 39.4136 217.535 38.979 217.837C38.5493 218.14 38.2148 218.584 37.9756 219.17C37.7412 219.751 37.624 220.467 37.624 221.316V222.012C37.624 222.867 37.7437 223.587 37.9829 224.173C38.2222 224.759 38.5591 225.203 38.9937 225.506C39.4282 225.809 39.936 225.96 40.5171 225.96C41.1274 225.96 41.645 225.809 42.0698 225.506C42.4995 225.203 42.8267 224.759 43.0513 224.173C43.2759 223.587 43.3882 222.867 43.3882 222.012V221.316ZM47.3652 227V218.233C47.3652 217.383 47.5972 216.731 48.061 216.277C48.5298 215.823 49.1694 215.596 49.98 215.596C50.1362 215.596 50.2925 215.606 50.4487 215.625C50.605 215.645 50.7588 215.674 50.9102 215.713L50.8369 216.805C50.7344 216.785 50.6172 216.771 50.4854 216.761C50.3584 216.751 50.2314 216.746 50.1045 216.746C49.6748 216.746 49.3379 216.875 49.0938 217.134C48.8545 217.388 48.7349 217.754 48.7349 218.233V227H47.3652ZM50.4194 220.108H46.1201V219.075H50.4194V220.108ZM55.2095 227.146C54.4722 227.146 53.8301 226.983 53.2832 226.656C52.7412 226.324 52.3188 225.87 52.0161 225.293C51.7183 224.717 51.5693 224.058 51.5693 223.316V223.001C51.5693 222.142 51.7329 221.409 52.0601 220.804C52.3921 220.193 52.8218 219.729 53.3491 219.412C53.8813 219.09 54.4429 218.929 55.0337 218.929C55.7954 218.929 56.4155 219.1 56.894 219.441C57.3774 219.778 57.7314 220.24 57.9561 220.826C58.1855 221.407 58.3003 222.066 58.3003 222.803V223.411H52.3823V222.312H56.9307V222.21C56.9111 221.858 56.8403 221.517 56.7183 221.185C56.5962 220.848 56.4009 220.572 56.1323 220.357C55.8638 220.137 55.4976 220.027 55.0337 220.027C54.6235 220.027 54.2598 220.145 53.9424 220.379C53.6299 220.608 53.3833 220.945 53.2026 221.39C53.0269 221.829 52.939 222.366 52.939 223.001V223.316C52.939 223.819 53.0317 224.278 53.2173 224.693C53.4028 225.103 53.6714 225.433 54.0229 225.682C54.3745 225.926 54.7944 226.048 55.2827 226.048C55.7612 226.048 56.1665 225.95 56.4985 225.755C56.8306 225.56 57.1211 225.298 57.3701 224.971L58.1978 225.616C57.9438 226.006 57.5776 226.36 57.0991 226.678C56.6255 226.99 55.9956 227.146 55.2095 227.146ZM61.252 227H59.8823V219.075H61.2153L61.252 220.32V227ZM63.7202 220.284C63.603 220.259 63.4932 220.245 63.3906 220.24C63.293 220.23 63.1807 220.225 63.0537 220.225C62.6387 220.225 62.2871 220.311 61.999 220.481C61.7158 220.652 61.4961 220.889 61.3398 221.192C61.1836 221.49 61.0859 221.832 61.0469 222.217L60.6587 222.437C60.6587 221.797 60.7441 221.214 60.915 220.687C61.0859 220.154 61.3521 219.729 61.7134 219.412C62.0796 219.09 62.5483 218.929 63.1196 218.929C63.2124 218.929 63.3223 218.941 63.4492 218.965C63.5811 218.985 63.6714 219.007 63.7202 219.031V220.284ZM68.2612 227.146C67.5239 227.146 66.8818 226.983 66.335 226.656C65.793 226.324 65.3706 225.87 65.0679 225.293C64.77 224.717 64.6211 224.058 64.6211 223.316V223.001C64.6211 222.142 64.7847 221.409 65.1118 220.804C65.4438 220.193 65.8735 219.729 66.4009 219.412C66.9331 219.09 67.4946 218.929 68.0854 218.929C68.8472 218.929 69.4673 219.1 69.9458 219.441C70.4292 219.778 70.7832 220.24 71.0078 220.826C71.2373 221.407 71.3521 222.066 71.3521 222.803V223.411H65.4341V222.312H69.9824V222.21C69.9629 221.858 69.8921 221.517 69.77 221.185C69.6479 220.848 69.4526 220.572 69.1841 220.357C68.9155 220.137 68.5493 220.027 68.0854 220.027C67.6753 220.027 67.3115 220.145 66.9941 220.379C66.6816 220.608 66.4351 220.945 66.2544 221.39C66.0786 221.829 65.9907 222.366 65.9907 223.001V223.316C65.9907 223.819 66.0835 224.278 66.269 224.693C66.4546 225.103 66.7231 225.433 67.0747 225.682C67.4263 225.926 67.8462 226.048 68.3345 226.048C68.813 226.048 69.2183 225.95 69.5503 225.755C69.8823 225.56 70.1729 225.298 70.4219 224.971L71.2495 225.616C70.9956 226.006 70.6294 226.36 70.1509 226.678C69.6772 226.99 69.0474 227.146 68.2612 227.146ZM76.1128 226.048C76.4351 226.048 76.7329 225.982 77.0063 225.85C77.2798 225.713 77.5044 225.528 77.6802 225.293C77.856 225.059 77.9561 224.793 77.9805 224.495H79.2769C79.2524 224.964 79.0938 225.401 78.8008 225.806C78.5078 226.207 78.127 226.531 77.6582 226.78C77.1895 227.024 76.6743 227.146 76.1128 227.146C75.3169 227.146 74.6577 226.966 74.1353 226.604C73.6128 226.238 73.2222 225.755 72.9634 225.154C72.7095 224.554 72.5825 223.899 72.5825 223.191V222.884C72.5825 222.171 72.7119 221.517 72.9707 220.921C73.2295 220.32 73.6201 219.839 74.1426 219.478C74.665 219.112 75.3218 218.929 76.1128 218.929C76.7329 218.929 77.2749 219.056 77.7388 219.31C78.2075 219.559 78.5737 219.9 78.8374 220.335C79.106 220.765 79.2524 221.253 79.2769 221.8H77.9805C77.9561 221.473 77.8633 221.175 77.7021 220.906C77.5459 220.638 77.3311 220.425 77.0576 220.269C76.7891 220.108 76.4741 220.027 76.1128 220.027C75.561 220.027 75.1265 220.169 74.8091 220.452C74.4966 220.735 74.2744 221.097 74.1426 221.536C74.0156 221.971 73.9521 222.42 73.9521 222.884V223.191C73.9521 223.655 74.0156 224.107 74.1426 224.546C74.2695 224.986 74.4893 225.347 74.8018 225.63C75.1191 225.909 75.5562 226.048 76.1128 226.048ZM84.0962 227.146C83.3589 227.146 82.7168 226.983 82.1699 226.656C81.6279 226.324 81.2056 225.87 80.9028 225.293C80.605 224.717 80.4561 224.058 80.4561 223.316V223.001C80.4561 222.142 80.6196 221.409 80.9468 220.804C81.2788 220.193 81.7085 219.729 82.2358 219.412C82.7681 219.09 83.3296 218.929 83.9204 218.929C84.6821 218.929 85.3022 219.1 85.7808 219.441C86.2642 219.778 86.6182 220.24 86.8428 220.826C87.0723 221.407 87.187 222.066 87.187 222.803V223.411H81.269V222.312H85.8174V222.21C85.7979 221.858 85.7271 221.517 85.605 221.185C85.4829 220.848 85.2876 220.572 85.019 220.357C84.7505 220.137 84.3843 220.027 83.9204 220.027C83.5103 220.027 83.1465 220.145 82.8291 220.379C82.5166 220.608 82.27 220.945 82.0894 221.39C81.9136 221.829 81.8257 222.366 81.8257 223.001V223.316C81.8257 223.819 81.9185 224.278 82.104 224.693C82.2896 225.103 82.5581 225.433 82.9097 225.682C83.2612 225.926 83.6812 226.048 84.1694 226.048C84.6479 226.048 85.0532 225.95 85.3853 225.755C85.7173 225.56 86.0078 225.298 86.2568 224.971L87.0845 225.616C86.8306 226.006 86.4644 226.36 85.9858 226.678C85.5122 226.99 84.8823 227.146 84.0962 227.146ZM90.1313 227H88.7617V219.075H90.0581L90.1313 220.65V227ZM89.2158 222.708C89.2207 221.985 89.3428 221.341 89.582 220.774C89.8262 220.203 90.1851 219.754 90.6587 219.427C91.1372 219.095 91.7305 218.929 92.4385 218.929C93.1807 218.929 93.7935 219.146 94.2769 219.581C94.7603 220.015 95.002 220.728 95.002 221.719V227H93.6323V221.785C93.6323 221.37 93.5615 221.038 93.4199 220.789C93.2832 220.535 93.0879 220.352 92.834 220.24C92.5801 220.123 92.2822 220.064 91.9404 220.064C91.5449 220.064 91.2129 220.135 90.9443 220.276C90.6807 220.418 90.4683 220.613 90.3071 220.862C90.146 221.111 90.0288 221.397 89.9556 221.719C89.8872 222.037 89.853 222.374 89.853 222.73L89.2158 222.708ZM94.0718 222.261C94.0767 221.685 94.1987 221.143 94.438 220.635C94.6821 220.127 95.0386 219.717 95.5073 219.405C95.9761 219.087 96.5474 218.929 97.2212 218.929C97.7876 218.929 98.2686 219.029 98.6641 219.229C99.0596 219.429 99.3599 219.739 99.5649 220.159C99.77 220.579 99.8726 221.124 99.8726 221.792V227H98.5029V221.778C98.5029 221.333 98.4321 220.987 98.2905 220.738C98.1538 220.489 97.9585 220.315 97.7046 220.218C97.4556 220.115 97.1602 220.064 96.8184 220.064C96.5205 220.064 96.2568 220.115 96.0273 220.218C95.8027 220.32 95.6123 220.462 95.4561 220.643C95.3047 220.818 95.1875 221.021 95.1045 221.25C95.0264 221.48 94.9873 221.724 94.9873 221.983L94.0718 222.261ZM101.572 222.957C101.572 222.19 101.718 221.504 102.011 220.899C102.304 220.293 102.719 219.815 103.256 219.463C103.793 219.107 104.431 218.929 105.168 218.929C105.915 218.929 106.56 219.107 107.102 219.463C107.644 219.815 108.059 220.293 108.347 220.899C108.64 221.504 108.786 222.19 108.786 222.957V223.125C108.786 223.887 108.64 224.573 108.347 225.184C108.059 225.789 107.644 226.268 107.102 226.619C106.564 226.971 105.925 227.146 105.183 227.146C104.44 227.146 103.798 226.971 103.256 226.619C102.719 226.268 102.304 225.789 102.011 225.184C101.718 224.573 101.572 223.887 101.572 223.125V222.957ZM102.941 223.125C102.941 223.648 103.024 224.131 103.19 224.576C103.356 225.02 103.603 225.376 103.93 225.645C104.262 225.914 104.68 226.048 105.183 226.048C105.681 226.048 106.093 225.914 106.42 225.645C106.752 225.376 107.001 225.02 107.167 224.576C107.333 224.131 107.417 223.648 107.417 223.125V222.957C107.417 222.435 107.333 221.951 107.167 221.507C107.001 221.062 106.752 220.706 106.42 220.438C106.088 220.164 105.671 220.027 105.168 220.027C104.675 220.027 104.262 220.164 103.93 220.438C103.598 220.706 103.349 221.062 103.183 221.507C103.022 221.951 102.941 222.435 102.941 222.957V223.125ZM115.107 224.898C115.107 224.703 115.063 224.522 114.975 224.356C114.892 224.185 114.721 224.031 114.462 223.895C114.204 223.753 113.813 223.628 113.291 223.521C112.705 223.399 112.197 223.245 111.767 223.06C111.342 222.869 111.013 222.627 110.778 222.334C110.549 222.042 110.434 221.678 110.434 221.243C110.434 220.823 110.554 220.44 110.793 220.093C111.037 219.742 111.379 219.461 111.818 219.251C112.263 219.036 112.78 218.929 113.371 218.929C114.006 218.929 114.548 219.041 114.997 219.266C115.451 219.485 115.798 219.783 116.037 220.159C116.276 220.53 116.396 220.943 116.396 221.397H115.026C115.026 221.07 114.882 220.76 114.594 220.467C114.311 220.174 113.903 220.027 113.371 220.027C113 220.027 112.697 220.086 112.463 220.203C112.233 220.315 112.065 220.462 111.958 220.643C111.855 220.818 111.804 221.004 111.804 221.199C111.804 221.395 111.853 221.565 111.95 221.712C112.048 221.854 112.226 221.98 112.485 222.093C112.749 222.205 113.129 222.317 113.627 222.43C114.277 222.576 114.812 222.752 115.231 222.957C115.651 223.162 115.964 223.414 116.169 223.711C116.374 224.009 116.477 224.373 116.477 224.803C116.477 225.262 116.35 225.669 116.096 226.026C115.842 226.377 115.485 226.653 115.026 226.854C114.567 227.049 114.028 227.146 113.408 227.146C112.709 227.146 112.119 227.022 111.635 226.773C111.152 226.524 110.786 226.204 110.537 225.813C110.288 225.418 110.163 225 110.163 224.561H111.533C111.557 224.932 111.665 225.228 111.855 225.447C112.05 225.662 112.287 225.816 112.565 225.909C112.849 226.001 113.129 226.048 113.408 226.048C113.779 226.048 114.089 225.999 114.338 225.901C114.592 225.799 114.782 225.662 114.909 225.491C115.041 225.315 115.107 225.118 115.107 224.898ZM125.141 226.048C125.463 226.048 125.761 225.982 126.035 225.85C126.308 225.713 126.533 225.528 126.708 225.293C126.884 225.059 126.984 224.793 127.009 224.495H128.305C128.281 224.964 128.122 225.401 127.829 225.806C127.536 226.207 127.155 226.531 126.687 226.78C126.218 227.024 125.703 227.146 125.141 227.146C124.345 227.146 123.686 226.966 123.164 226.604C122.641 226.238 122.25 225.755 121.992 225.154C121.738 224.554 121.611 223.899 121.611 223.191V222.884C121.611 222.171 121.74 221.517 121.999 220.921C122.258 220.32 122.648 219.839 123.171 219.478C123.693 219.112 124.35 218.929 125.141 218.929C125.761 218.929 126.303 219.056 126.767 219.31C127.236 219.559 127.602 219.9 127.866 220.335C128.134 220.765 128.281 221.253 128.305 221.8H127.009C126.984 221.473 126.892 221.175 126.73 220.906C126.574 220.638 126.359 220.425 126.086 220.269C125.817 220.108 125.502 220.027 125.141 220.027C124.589 220.027 124.155 220.169 123.837 220.452C123.525 220.735 123.303 221.097 123.171 221.536C123.044 221.971 122.98 222.42 122.98 222.884V223.191C122.98 223.655 123.044 224.107 123.171 224.546C123.298 224.986 123.518 225.347 123.83 225.63C124.147 225.909 124.584 226.048 125.141 226.048ZM129.477 222.957C129.477 222.19 129.624 221.504 129.917 220.899C130.209 220.293 130.625 219.815 131.162 219.463C131.699 219.107 132.336 218.929 133.073 218.929C133.82 218.929 134.465 219.107 135.007 219.463C135.549 219.815 135.964 220.293 136.252 220.899C136.545 221.504 136.691 222.19 136.691 222.957V223.125C136.691 223.887 136.545 224.573 136.252 225.184C135.964 225.789 135.549 226.268 135.007 226.619C134.47 226.971 133.83 227.146 133.088 227.146C132.346 227.146 131.704 226.971 131.162 226.619C130.625 226.268 130.209 225.789 129.917 225.184C129.624 224.573 129.477 223.887 129.477 223.125V222.957ZM130.847 223.125C130.847 223.648 130.93 224.131 131.096 224.576C131.262 225.02 131.508 225.376 131.835 225.645C132.167 225.914 132.585 226.048 133.088 226.048C133.586 226.048 133.999 225.914 134.326 225.645C134.658 225.376 134.907 225.02 135.073 224.576C135.239 224.131 135.322 223.648 135.322 223.125V222.957C135.322 222.435 135.239 221.951 135.073 221.507C134.907 221.062 134.658 220.706 134.326 220.438C133.994 220.164 133.576 220.027 133.073 220.027C132.58 220.027 132.167 220.164 131.835 220.438C131.503 220.706 131.254 221.062 131.088 221.507C130.927 221.951 130.847 222.435 130.847 222.957V223.125ZM139.768 227H138.398V219.075H139.694L139.768 220.767V227ZM138.874 222.708C138.884 221.985 139.023 221.341 139.292 220.774C139.56 220.203 139.934 219.754 140.412 219.427C140.896 219.095 141.457 218.929 142.097 218.929C142.619 218.929 143.068 219.026 143.444 219.222C143.825 219.412 144.118 219.717 144.323 220.137C144.533 220.557 144.638 221.114 144.638 221.807V227H143.269V221.792C143.269 221.377 143.208 221.043 143.085 220.789C142.968 220.535 142.792 220.352 142.558 220.24C142.324 220.123 142.036 220.064 141.694 220.064C141.357 220.064 141.052 220.135 140.778 220.276C140.505 220.418 140.268 220.613 140.068 220.862C139.868 221.111 139.714 221.397 139.606 221.719C139.499 222.037 139.445 222.374 139.445 222.73L138.874 222.708ZM151.303 224.898C151.303 224.703 151.259 224.522 151.171 224.356C151.088 224.185 150.917 224.031 150.659 223.895C150.4 223.753 150.009 223.628 149.487 223.521C148.901 223.399 148.393 223.245 147.963 223.06C147.539 222.869 147.209 222.627 146.975 222.334C146.745 222.042 146.63 221.678 146.63 221.243C146.63 220.823 146.75 220.44 146.989 220.093C147.233 219.742 147.575 219.461 148.015 219.251C148.459 219.036 148.977 218.929 149.567 218.929C150.202 218.929 150.744 219.041 151.193 219.266C151.647 219.485 151.994 219.783 152.233 220.159C152.473 220.53 152.592 220.943 152.592 221.397H151.223C151.223 221.07 151.079 220.76 150.791 220.467C150.507 220.174 150.1 220.027 149.567 220.027C149.196 220.027 148.894 220.086 148.659 220.203C148.43 220.315 148.261 220.462 148.154 220.643C148.051 220.818 148 221.004 148 221.199C148 221.395 148.049 221.565 148.146 221.712C148.244 221.854 148.422 221.98 148.681 222.093C148.945 222.205 149.326 222.317 149.824 222.43C150.473 222.576 151.008 222.752 151.428 222.957C151.848 223.162 152.16 223.414 152.365 223.711C152.57 224.009 152.673 224.373 152.673 224.803C152.673 225.262 152.546 225.669 152.292 226.026C152.038 226.377 151.682 226.653 151.223 226.854C150.764 227.049 150.224 227.146 149.604 227.146C148.906 227.146 148.315 227.022 147.832 226.773C147.348 226.524 146.982 226.204 146.733 225.813C146.484 225.418 146.359 225 146.359 224.561H147.729C147.753 224.932 147.861 225.228 148.051 225.447C148.247 225.662 148.483 225.816 148.762 225.909C149.045 226.001 149.326 226.048 149.604 226.048C149.975 226.048 150.285 225.999 150.534 225.901C150.788 225.799 150.979 225.662 151.105 225.491C151.237 225.315 151.303 225.118 151.303 224.898ZM159.287 219.075H160.656V227H159.353L159.287 225.169V219.075ZM160.114 223.484C160.114 224.188 160.014 224.815 159.814 225.367C159.614 225.918 159.287 226.353 158.833 226.67C158.378 226.988 157.771 227.146 157.009 227.146C156.232 227.146 155.605 226.917 155.126 226.458C154.648 225.999 154.409 225.242 154.409 224.188V219.075H155.778V224.202C155.778 224.681 155.847 225.052 155.983 225.315C156.125 225.574 156.306 225.755 156.525 225.857C156.75 225.955 156.984 226.004 157.229 226.004C157.805 226.004 158.261 225.894 158.598 225.674C158.935 225.45 159.177 225.147 159.323 224.766C159.47 224.385 159.543 223.963 159.543 223.499L160.114 223.484ZM164.201 227H162.832V215.75H164.201V227ZM169.694 220.108H165.402V219.075H169.694V220.108ZM168.215 217.149V225.037C168.215 225.311 168.256 225.516 168.339 225.652C168.422 225.789 168.53 225.879 168.662 225.923C168.793 225.967 168.935 225.989 169.086 225.989C169.199 225.989 169.316 225.979 169.438 225.96C169.565 225.94 169.658 225.923 169.716 225.909L169.724 227C169.616 227.034 169.475 227.066 169.299 227.095C169.128 227.129 168.92 227.146 168.676 227.146C168.344 227.146 168.039 227.081 167.761 226.949C167.482 226.817 167.26 226.597 167.094 226.29C166.928 225.977 166.845 225.557 166.845 225.03V217.149H168.215ZM170.698 222.957C170.698 222.19 170.844 221.504 171.137 220.899C171.43 220.293 171.845 219.815 172.382 219.463C172.919 219.107 173.557 218.929 174.294 218.929C175.041 218.929 175.686 219.107 176.228 219.463C176.77 219.815 177.185 220.293 177.473 220.899C177.766 221.504 177.912 222.19 177.912 222.957V223.125C177.912 223.887 177.766 224.573 177.473 225.184C177.185 225.789 176.77 226.268 176.228 226.619C175.69 226.971 175.051 227.146 174.309 227.146C173.566 227.146 172.924 226.971 172.382 226.619C171.845 226.268 171.43 225.789 171.137 225.184C170.844 224.573 170.698 223.887 170.698 223.125V222.957ZM172.067 223.125C172.067 223.648 172.15 224.131 172.316 224.576C172.482 225.02 172.729 225.376 173.056 225.645C173.388 225.914 173.806 226.048 174.309 226.048C174.807 226.048 175.219 225.914 175.546 225.645C175.878 225.376 176.127 225.02 176.293 224.576C176.459 224.131 176.542 223.648 176.542 223.125V222.957C176.542 222.435 176.459 221.951 176.293 221.507C176.127 221.062 175.878 220.706 175.546 220.438C175.214 220.164 174.797 220.027 174.294 220.027C173.801 220.027 173.388 220.164 173.056 220.438C172.724 220.706 172.475 221.062 172.309 221.507C172.148 221.951 172.067 222.435 172.067 222.957V223.125ZM180.988 227H179.619V219.075H180.952L180.988 220.32V227ZM183.457 220.284C183.339 220.259 183.229 220.245 183.127 220.24C183.029 220.23 182.917 220.225 182.79 220.225C182.375 220.225 182.023 220.311 181.735 220.481C181.452 220.652 181.232 220.889 181.076 221.192C180.92 221.49 180.822 221.832 180.783 222.217L180.395 222.437C180.395 221.797 180.48 221.214 180.651 220.687C180.822 220.154 181.088 219.729 181.45 219.412C181.816 219.09 182.285 218.929 182.856 218.929C182.949 218.929 183.059 218.941 183.186 218.965C183.317 218.985 183.408 219.007 183.457 219.031V220.284ZM186.188 227H184.819V219.075H186.188V227ZM184.716 216.966C184.716 216.751 184.782 216.568 184.914 216.417C185.051 216.265 185.251 216.189 185.515 216.189C185.778 216.189 185.979 216.265 186.115 216.417C186.257 216.568 186.328 216.751 186.328 216.966C186.328 217.176 186.257 217.356 186.115 217.508C185.979 217.654 185.778 217.728 185.515 217.728C185.251 217.728 185.051 217.654 184.914 217.508C184.782 217.356 184.716 217.176 184.716 216.966ZM193.022 221.565C193.022 221.092 192.88 220.716 192.597 220.438C192.319 220.154 191.906 220.013 191.359 220.013C191.022 220.013 190.725 220.071 190.466 220.188C190.212 220.306 190.014 220.459 189.873 220.65C189.731 220.84 189.66 221.048 189.66 221.272H188.291C188.291 220.892 188.42 220.523 188.679 220.167C188.938 219.805 189.301 219.51 189.77 219.28C190.244 219.046 190.8 218.929 191.44 218.929C192.016 218.929 192.526 219.026 192.971 219.222C193.415 219.417 193.762 219.712 194.011 220.108C194.265 220.499 194.392 220.989 194.392 221.58V225.271C194.392 225.535 194.414 225.816 194.458 226.114C194.506 226.412 194.577 226.668 194.67 226.883V227H193.242C193.173 226.844 193.12 226.636 193.081 226.377C193.042 226.114 193.022 225.87 193.022 225.645V221.565ZM193.271 223.147H191.909C191.137 223.147 190.542 223.27 190.122 223.514C189.702 223.758 189.492 224.124 189.492 224.612C189.492 224.993 189.619 225.315 189.873 225.579C190.131 225.843 190.507 225.975 191 225.975C191.416 225.975 191.782 225.887 192.099 225.711C192.417 225.535 192.668 225.318 192.854 225.059C193.039 224.8 193.139 224.551 193.154 224.312L193.74 224.964C193.706 225.169 193.613 225.396 193.461 225.645C193.31 225.894 193.107 226.133 192.854 226.363C192.604 226.587 192.307 226.775 191.96 226.927C191.618 227.073 191.232 227.146 190.803 227.146C190.266 227.146 189.794 227.044 189.389 226.839C188.989 226.629 188.676 226.346 188.452 225.989C188.232 225.633 188.122 225.237 188.122 224.803C188.122 223.948 188.444 223.301 189.089 222.862C189.733 222.417 190.6 222.195 191.689 222.195H193.256L193.271 223.147ZM205.239 215.75H206.608V227H205.356L205.239 225.462V215.75ZM199.914 222.972C199.914 222.166 200.043 221.46 200.302 220.855C200.566 220.245 200.932 219.771 201.401 219.434C201.87 219.097 202.419 218.929 203.049 218.929C203.713 218.929 204.267 219.083 204.711 219.39C205.156 219.693 205.502 220.125 205.751 220.687C206.005 221.248 206.169 221.917 206.242 222.693V223.404C206.169 224.17 206.008 224.834 205.759 225.396C205.51 225.953 205.161 226.385 204.711 226.692C204.267 226.995 203.708 227.146 203.034 227.146C202.414 227.146 201.87 226.973 201.401 226.626C200.932 226.275 200.566 225.796 200.302 225.191C200.043 224.585 199.914 223.897 199.914 223.125V222.972ZM201.284 223.125C201.284 223.653 201.354 224.134 201.496 224.568C201.643 225.003 201.87 225.352 202.177 225.616C202.485 225.875 202.883 226.004 203.371 226.004C203.82 226.004 204.189 225.909 204.477 225.718C204.77 225.528 205.004 225.276 205.18 224.964C205.356 224.651 205.493 224.312 205.59 223.946V222.166C205.532 221.897 205.446 221.639 205.334 221.39C205.227 221.136 205.085 220.911 204.909 220.716C204.738 220.516 204.526 220.357 204.272 220.24C204.023 220.123 203.728 220.064 203.386 220.064C202.893 220.064 202.49 220.196 202.177 220.459C201.87 220.723 201.643 221.077 201.496 221.521C201.354 221.961 201.284 222.444 201.284 222.972V223.125ZM212.006 227.146C211.269 227.146 210.627 226.983 210.08 226.656C209.538 226.324 209.116 225.87 208.813 225.293C208.515 224.717 208.366 224.058 208.366 223.316V223.001C208.366 222.142 208.53 221.409 208.857 220.804C209.189 220.193 209.619 219.729 210.146 219.412C210.678 219.09 211.24 218.929 211.831 218.929C212.592 218.929 213.212 219.1 213.691 219.441C214.174 219.778 214.528 220.24 214.753 220.826C214.982 221.407 215.097 222.066 215.097 222.803V223.411H209.179V222.312H213.728V222.21C213.708 221.858 213.637 221.517 213.515 221.185C213.393 220.848 213.198 220.572 212.929 220.357C212.661 220.137 212.294 220.027 211.831 220.027C211.42 220.027 211.057 220.145 210.739 220.379C210.427 220.608 210.18 220.945 210 221.39C209.824 221.829 209.736 222.366 209.736 223.001V223.316C209.736 223.819 209.829 224.278 210.014 224.693C210.2 225.103 210.468 225.433 210.82 225.682C211.171 225.926 211.591 226.048 212.08 226.048C212.558 226.048 212.963 225.95 213.295 225.755C213.627 225.56 213.918 225.298 214.167 224.971L214.995 225.616C214.741 226.006 214.375 226.36 213.896 226.678C213.422 226.99 212.792 227.146 212.006 227.146ZM36.4814 252.047H35.1118V241.075H36.3569L36.4814 242.599V252.047ZM41.8135 245.125C41.8135 245.897 41.6938 246.585 41.4546 247.191C41.2153 247.796 40.8662 248.275 40.4072 248.626C39.9531 248.973 39.3989 249.146 38.7446 249.146C38.0659 249.146 37.4971 249 37.0381 248.707C36.5791 248.414 36.2202 247.999 35.9614 247.462C35.7026 246.92 35.5342 246.28 35.4561 245.543V244.693C35.5342 243.917 35.7026 243.248 35.9614 242.687C36.2251 242.125 36.584 241.693 37.0381 241.39C37.4971 241.083 38.0586 240.929 38.7227 240.929C39.3867 240.929 39.9482 241.097 40.4072 241.434C40.8662 241.771 41.2153 242.245 41.4546 242.855C41.6938 243.46 41.8135 244.166 41.8135 244.972V245.125ZM40.4438 244.972C40.4438 244.444 40.3682 243.961 40.2168 243.521C40.0703 243.077 39.8384 242.723 39.521 242.459C39.2085 242.196 38.8057 242.064 38.3125 242.064C37.9756 242.064 37.6826 242.123 37.4336 242.24C37.1846 242.357 36.9722 242.516 36.7964 242.716C36.6206 242.911 36.4766 243.136 36.3643 243.39C36.2568 243.639 36.1763 243.897 36.1226 244.166V246.078C36.2202 246.419 36.3545 246.742 36.5254 247.044C36.7012 247.342 36.9331 247.584 37.2212 247.77C37.5142 247.955 37.8828 248.048 38.3271 248.048C38.8154 248.048 39.2158 247.914 39.5283 247.645C39.8408 247.376 40.0703 247.022 40.2168 246.583C40.3682 246.139 40.4438 245.653 40.4438 245.125V244.972ZM43.1831 244.957C43.1831 244.19 43.3296 243.504 43.6226 242.899C43.9155 242.293 44.3306 241.815 44.8677 241.463C45.4048 241.107 46.042 240.929 46.7793 240.929C47.5264 240.929 48.1709 241.107 48.7129 241.463C49.2549 241.815 49.6699 242.293 49.958 242.899C50.251 243.504 50.3975 244.19 50.3975 244.957V245.125C50.3975 245.887 50.251 246.573 49.958 247.184C49.6699 247.789 49.2549 248.268 48.7129 248.619C48.1758 248.971 47.5361 249.146 46.7939 249.146C46.0518 249.146 45.4097 248.971 44.8677 248.619C44.3306 248.268 43.9155 247.789 43.6226 247.184C43.3296 246.573 43.1831 245.887 43.1831 245.125V244.957ZM44.5527 245.125C44.5527 245.648 44.6357 246.131 44.8018 246.576C44.9678 247.02 45.2144 247.376 45.5415 247.645C45.8735 247.914 46.291 248.048 46.7939 248.048C47.292 248.048 47.7046 247.914 48.0317 247.645C48.3638 247.376 48.6128 247.02 48.7788 246.576C48.9448 246.131 49.0278 245.648 49.0278 245.125V244.957C49.0278 244.435 48.9448 243.951 48.7788 243.507C48.6128 243.062 48.3638 242.706 48.0317 242.438C47.6997 242.164 47.2822 242.027 46.7793 242.027C46.2861 242.027 45.8735 242.164 45.5415 242.438C45.2095 242.706 44.9604 243.062 44.7944 243.507C44.6333 243.951 44.5527 244.435 44.5527 244.957V245.125ZM53.4736 249H52.104V241.075H53.4004L53.4736 242.767V249ZM52.5801 244.708C52.5898 243.985 52.729 243.341 52.9976 242.774C53.2661 242.203 53.6396 241.754 54.1182 241.427C54.6016 241.095 55.1631 240.929 55.8027 240.929C56.3252 240.929 56.7744 241.026 57.1504 241.222C57.5312 241.412 57.8242 241.717 58.0293 242.137C58.2393 242.557 58.3442 243.114 58.3442 243.807V249H56.9746V243.792C56.9746 243.377 56.9136 243.043 56.7915 242.789C56.6743 242.535 56.4985 242.352 56.2642 242.24C56.0298 242.123 55.7417 242.064 55.3999 242.064C55.063 242.064 54.7578 242.135 54.4844 242.276C54.2109 242.418 53.9741 242.613 53.7739 242.862C53.5737 243.111 53.4199 243.397 53.3125 243.719C53.2051 244.037 53.1514 244.374 53.1514 244.73L52.5801 244.708ZM63.7275 242.108H59.4355V241.075H63.7275V242.108ZM62.248 239.149V247.037C62.248 247.311 62.2896 247.516 62.3726 247.652C62.4556 247.789 62.563 247.879 62.6948 247.923C62.8267 247.967 62.9683 247.989 63.1196 247.989C63.2319 247.989 63.3491 247.979 63.4712 247.96C63.5981 247.94 63.6909 247.923 63.7495 247.909L63.7568 249C63.6494 249.034 63.5078 249.066 63.332 249.095C63.1611 249.129 62.9536 249.146 62.7095 249.146C62.3774 249.146 62.0723 249.081 61.7939 248.949C61.5156 248.817 61.2935 248.597 61.1274 248.29C60.9614 247.977 60.8784 247.557 60.8784 247.03V239.149H62.248ZM69.9751 243.565C69.9751 243.092 69.8335 242.716 69.5503 242.438C69.272 242.154 68.8594 242.013 68.3125 242.013C67.9756 242.013 67.6777 242.071 67.4189 242.188C67.165 242.306 66.9673 242.459 66.8257 242.65C66.6841 242.84 66.6133 243.048 66.6133 243.272H65.2437C65.2437 242.892 65.373 242.523 65.6318 242.167C65.8906 241.805 66.2544 241.51 66.7231 241.28C67.1968 241.046 67.7534 240.929 68.3931 240.929C68.9692 240.929 69.4795 241.026 69.9238 241.222C70.3682 241.417 70.7148 241.712 70.9639 242.108C71.2178 242.499 71.3447 242.989 71.3447 243.58V247.271C71.3447 247.535 71.3667 247.816 71.4106 248.114C71.4595 248.412 71.5303 248.668 71.623 248.883V249H70.1948C70.1265 248.844 70.0728 248.636 70.0337 248.377C69.9946 248.114 69.9751 247.87 69.9751 247.645V243.565ZM70.2241 245.147H68.8618C68.0903 245.147 67.4946 245.27 67.0747 245.514C66.6548 245.758 66.4448 246.124 66.4448 246.612C66.4448 246.993 66.5718 247.315 66.8257 247.579C67.0845 247.843 67.4604 247.975 67.9536 247.975C68.3687 247.975 68.7349 247.887 69.0522 247.711C69.3696 247.535 69.6211 247.318 69.8066 247.059C69.9922 246.8 70.0923 246.551 70.1069 246.312L70.6929 246.964C70.6587 247.169 70.5659 247.396 70.4146 247.645C70.2632 247.894 70.0605 248.133 69.8066 248.363C69.5576 248.587 69.2598 248.775 68.9131 248.927C68.5713 249.073 68.1855 249.146 67.7559 249.146C67.2188 249.146 66.7476 249.044 66.3423 248.839C65.9419 248.629 65.6294 248.346 65.4048 247.989C65.1851 247.633 65.0752 247.237 65.0752 246.803C65.0752 245.948 65.3975 245.301 66.042 244.862C66.6865 244.417 67.5532 244.195 68.6421 244.195H70.2095L70.2241 245.147ZM78.5664 252.047H77.1968V241.075H78.4419L78.5664 242.599V252.047ZM83.8984 245.125C83.8984 245.897 83.7788 246.585 83.5396 247.191C83.3003 247.796 82.9512 248.275 82.4922 248.626C82.0381 248.973 81.4839 249.146 80.8296 249.146C80.1509 249.146 79.582 249 79.123 248.707C78.6641 248.414 78.3052 247.999 78.0464 247.462C77.7876 246.92 77.6191 246.28 77.541 245.543V244.693C77.6191 243.917 77.7876 243.248 78.0464 242.687C78.3101 242.125 78.6689 241.693 79.123 241.39C79.582 241.083 80.1436 240.929 80.8076 240.929C81.4717 240.929 82.0332 241.097 82.4922 241.434C82.9512 241.771 83.3003 242.245 83.5396 242.855C83.7788 243.46 83.8984 244.166 83.8984 244.972V245.125ZM82.5288 244.972C82.5288 244.444 82.4531 243.961 82.3018 243.521C82.1553 243.077 81.9233 242.723 81.606 242.459C81.2935 242.196 80.8906 242.064 80.3975 242.064C80.0605 242.064 79.7676 242.123 79.5186 242.24C79.2695 242.357 79.0571 242.516 78.8813 242.716C78.7056 242.911 78.5615 243.136 78.4492 243.39C78.3418 243.639 78.2612 243.897 78.2075 244.166V246.078C78.3052 246.419 78.4395 246.742 78.6104 247.044C78.7861 247.342 79.0181 247.584 79.3062 247.77C79.5991 247.955 79.9678 248.048 80.4121 248.048C80.9004 248.048 81.3008 247.914 81.6133 247.645C81.9258 247.376 82.1553 247.022 82.3018 246.583C82.4531 246.139 82.5288 245.653 82.5288 245.125V244.972ZM90.2925 243.565C90.2925 243.092 90.1509 242.716 89.8677 242.438C89.5894 242.154 89.1768 242.013 88.6299 242.013C88.293 242.013 87.9951 242.071 87.7363 242.188C87.4824 242.306 87.2847 242.459 87.1431 242.65C87.0015 242.84 86.9307 243.048 86.9307 243.272H85.561C85.561 242.892 85.6904 242.523 85.9492 242.167C86.208 241.805 86.5718 241.51 87.0405 241.28C87.5142 241.046 88.0708 240.929 88.7104 240.929C89.2866 240.929 89.7969 241.026 90.2412 241.222C90.6855 241.417 91.0322 241.712 91.2812 242.108C91.5352 242.499 91.6621 242.989 91.6621 243.58V247.271C91.6621 247.535 91.6841 247.816 91.728 248.114C91.7769 248.412 91.8477 248.668 91.9404 248.883V249H90.5122C90.4438 248.844 90.3901 248.636 90.3511 248.377C90.312 248.114 90.2925 247.87 90.2925 247.645V243.565ZM90.5415 245.147H89.1792C88.4077 245.147 87.812 245.27 87.3921 245.514C86.9722 245.758 86.7622 246.124 86.7622 246.612C86.7622 246.993 86.8892 247.315 87.1431 247.579C87.4019 247.843 87.7778 247.975 88.271 247.975C88.686 247.975 89.0522 247.887 89.3696 247.711C89.687 247.535 89.9385 247.318 90.124 247.059C90.3096 246.8 90.4097 246.551 90.4243 246.312L91.0103 246.964C90.9761 247.169 90.8833 247.396 90.7319 247.645C90.5806 247.894 90.3779 248.133 90.124 248.363C89.875 248.587 89.5771 248.775 89.2305 248.927C88.8887 249.073 88.5029 249.146 88.0732 249.146C87.5361 249.146 87.0649 249.044 86.6597 248.839C86.2593 248.629 85.9468 248.346 85.7222 247.989C85.5024 247.633 85.3926 247.237 85.3926 246.803C85.3926 245.948 85.7148 245.301 86.3594 244.862C87.0039 244.417 87.8706 244.195 88.9595 244.195H90.5269L90.5415 245.147ZM95.1631 249H93.7935V241.075H95.1265L95.1631 242.32V249ZM97.6313 242.284C97.5142 242.259 97.4043 242.245 97.3018 242.24C97.2041 242.23 97.0918 242.225 96.9648 242.225C96.5498 242.225 96.1982 242.311 95.9102 242.481C95.627 242.652 95.4072 242.889 95.251 243.192C95.0947 243.49 94.9971 243.832 94.958 244.217L94.5698 244.437C94.5698 243.797 94.6553 243.214 94.8262 242.687C94.9971 242.154 95.2632 241.729 95.6245 241.412C95.9907 241.09 96.4595 240.929 97.0308 240.929C97.1235 240.929 97.2334 240.941 97.3604 240.965C97.4922 240.985 97.5825 241.007 97.6313 241.031V242.284ZM103.315 243.565C103.315 243.092 103.173 242.716 102.89 242.438C102.612 242.154 102.199 242.013 101.652 242.013C101.315 242.013 101.018 242.071 100.759 242.188C100.505 242.306 100.307 242.459 100.166 242.65C100.024 242.84 99.9531 243.048 99.9531 243.272H98.5835C98.5835 242.892 98.7129 242.523 98.9717 242.167C99.2305 241.805 99.5942 241.51 100.063 241.28C100.537 241.046 101.093 240.929 101.733 240.929C102.309 240.929 102.819 241.026 103.264 241.222C103.708 241.417 104.055 241.712 104.304 242.108C104.558 242.499 104.685 242.989 104.685 243.58V247.271C104.685 247.535 104.707 247.816 104.75 248.114C104.799 248.412 104.87 248.668 104.963 248.883V249H103.535C103.466 248.844 103.413 248.636 103.374 248.377C103.334 248.114 103.315 247.87 103.315 247.645V243.565ZM103.564 245.147H102.202C101.43 245.147 100.834 245.27 100.415 245.514C99.9946 245.758 99.7847 246.124 99.7847 246.612C99.7847 246.993 99.9116 247.315 100.166 247.579C100.424 247.843 100.8 247.975 101.293 247.975C101.708 247.975 102.075 247.887 102.392 247.711C102.709 247.535 102.961 247.318 103.146 247.059C103.332 246.8 103.432 246.551 103.447 246.312L104.033 246.964C103.999 247.169 103.906 247.396 103.754 247.645C103.603 247.894 103.4 248.133 103.146 248.363C102.897 248.587 102.6 248.775 102.253 248.927C101.911 249.073 101.525 249.146 101.096 249.146C100.559 249.146 100.087 249.044 99.6821 248.839C99.2817 248.629 98.9692 248.346 98.7446 247.989C98.5249 247.633 98.415 247.237 98.415 246.803C98.415 245.948 98.7373 245.301 99.3818 244.862C100.026 244.417 100.893 244.195 101.982 244.195H103.549L103.564 245.147ZM111.906 249H110.537V241.075H111.833L111.906 242.767V249ZM111.013 244.708C111.022 243.985 111.162 243.341 111.43 242.774C111.699 242.203 112.072 241.754 112.551 241.427C113.034 241.095 113.596 240.929 114.235 240.929C114.758 240.929 115.207 241.026 115.583 241.222C115.964 241.412 116.257 241.717 116.462 242.137C116.672 242.557 116.777 243.114 116.777 243.807V249H115.407V243.792C115.407 243.377 115.346 243.043 115.224 242.789C115.107 242.535 114.931 242.352 114.697 242.24C114.462 242.123 114.174 242.064 113.833 242.064C113.496 242.064 113.19 242.135 112.917 242.276C112.644 242.418 112.407 242.613 112.207 242.862C112.006 243.111 111.853 243.397 111.745 243.719C111.638 244.037 111.584 244.374 111.584 244.73L111.013 244.708ZM118.476 244.957C118.476 244.19 118.623 243.504 118.916 242.899C119.208 242.293 119.624 241.815 120.161 241.463C120.698 241.107 121.335 240.929 122.072 240.929C122.819 240.929 123.464 241.107 124.006 241.463C124.548 241.815 124.963 242.293 125.251 242.899C125.544 243.504 125.69 244.19 125.69 244.957V245.125C125.69 245.887 125.544 246.573 125.251 247.184C124.963 247.789 124.548 248.268 124.006 248.619C123.469 248.971 122.829 249.146 122.087 249.146C121.345 249.146 120.703 248.971 120.161 248.619C119.624 248.268 119.208 247.789 118.916 247.184C118.623 246.573 118.476 245.887 118.476 245.125V244.957ZM119.846 245.125C119.846 245.648 119.929 246.131 120.095 246.576C120.261 247.02 120.507 247.376 120.834 247.645C121.167 247.914 121.584 248.048 122.087 248.048C122.585 248.048 122.998 247.914 123.325 247.645C123.657 247.376 123.906 247.02 124.072 246.576C124.238 246.131 124.321 245.648 124.321 245.125V244.957C124.321 244.435 124.238 243.951 124.072 243.507C123.906 243.062 123.657 242.706 123.325 242.438C122.993 242.164 122.575 242.027 122.072 242.027C121.579 242.027 121.167 242.164 120.834 242.438C120.502 242.706 120.253 243.062 120.087 243.507C119.926 243.951 119.846 244.435 119.846 244.957V245.125ZM132.011 246.898C132.011 246.703 131.967 246.522 131.879 246.356C131.796 246.185 131.625 246.031 131.367 245.895C131.108 245.753 130.717 245.628 130.195 245.521C129.609 245.399 129.101 245.245 128.671 245.06C128.247 244.869 127.917 244.627 127.683 244.334C127.453 244.042 127.338 243.678 127.338 243.243C127.338 242.823 127.458 242.44 127.697 242.093C127.941 241.742 128.283 241.461 128.723 241.251C129.167 241.036 129.685 240.929 130.275 240.929C130.91 240.929 131.452 241.041 131.901 241.266C132.355 241.485 132.702 241.783 132.941 242.159C133.181 242.53 133.3 242.943 133.3 243.397H131.931C131.931 243.07 131.787 242.76 131.499 242.467C131.215 242.174 130.808 242.027 130.275 242.027C129.904 242.027 129.602 242.086 129.367 242.203C129.138 242.315 128.969 242.462 128.862 242.643C128.759 242.818 128.708 243.004 128.708 243.199C128.708 243.395 128.757 243.565 128.854 243.712C128.952 243.854 129.13 243.98 129.389 244.093C129.653 244.205 130.034 244.317 130.532 244.43C131.181 244.576 131.716 244.752 132.136 244.957C132.556 245.162 132.868 245.414 133.073 245.711C133.278 246.009 133.381 246.373 133.381 246.803C133.381 247.262 133.254 247.669 133 248.026C132.746 248.377 132.39 248.653 131.931 248.854C131.472 249.049 130.932 249.146 130.312 249.146C129.614 249.146 129.023 249.022 128.54 248.773C128.056 248.524 127.69 248.204 127.441 247.813C127.192 247.418 127.067 247 127.067 246.561H128.437C128.461 246.932 128.569 247.228 128.759 247.447C128.955 247.662 129.191 247.816 129.47 247.909C129.753 248.001 130.034 248.048 130.312 248.048C130.683 248.048 130.993 247.999 131.242 247.901C131.496 247.799 131.687 247.662 131.813 247.491C131.945 247.315 132.011 247.118 132.011 246.898ZM139.76 246.898C139.76 246.703 139.716 246.522 139.628 246.356C139.545 246.185 139.375 246.031 139.116 245.895C138.857 245.753 138.466 245.628 137.944 245.521C137.358 245.399 136.85 245.245 136.42 245.06C135.996 244.869 135.666 244.627 135.432 244.334C135.202 244.042 135.087 243.678 135.087 243.243C135.087 242.823 135.207 242.44 135.446 242.093C135.69 241.742 136.032 241.461 136.472 241.251C136.916 241.036 137.434 240.929 138.024 240.929C138.659 240.929 139.201 241.041 139.65 241.266C140.104 241.485 140.451 241.783 140.69 242.159C140.93 242.53 141.049 242.943 141.049 243.397H139.68C139.68 243.07 139.536 242.76 139.248 242.467C138.964 242.174 138.557 242.027 138.024 242.027C137.653 242.027 137.351 242.086 137.116 242.203C136.887 242.315 136.718 242.462 136.611 242.643C136.508 242.818 136.457 243.004 136.457 243.199C136.457 243.395 136.506 243.565 136.604 243.712C136.701 243.854 136.879 243.98 137.138 244.093C137.402 244.205 137.783 244.317 138.281 244.43C138.93 244.576 139.465 244.752 139.885 244.957C140.305 245.162 140.617 245.414 140.822 245.711C141.027 246.009 141.13 246.373 141.13 246.803C141.13 247.262 141.003 247.669 140.749 248.026C140.495 248.377 140.139 248.653 139.68 248.854C139.221 249.049 138.681 249.146 138.061 249.146C137.363 249.146 136.772 249.022 136.289 248.773C135.805 248.524 135.439 248.204 135.19 247.813C134.941 247.418 134.816 247 134.816 246.561H136.186C136.21 246.932 136.318 247.228 136.508 247.447C136.704 247.662 136.94 247.816 137.219 247.909C137.502 248.001 137.783 248.048 138.061 248.048C138.432 248.048 138.742 247.999 138.991 247.901C139.245 247.799 139.436 247.662 139.562 247.491C139.694 247.315 139.76 247.118 139.76 246.898ZM142.543 244.957C142.543 244.19 142.69 243.504 142.983 242.899C143.276 242.293 143.691 241.815 144.228 241.463C144.765 241.107 145.402 240.929 146.14 240.929C146.887 240.929 147.531 241.107 148.073 241.463C148.615 241.815 149.03 242.293 149.318 242.899C149.611 243.504 149.758 244.19 149.758 244.957V245.125C149.758 245.887 149.611 246.573 149.318 247.184C149.03 247.789 148.615 248.268 148.073 248.619C147.536 248.971 146.896 249.146 146.154 249.146C145.412 249.146 144.77 248.971 144.228 248.619C143.691 248.268 143.276 247.789 142.983 247.184C142.69 246.573 142.543 245.887 142.543 245.125V244.957ZM143.913 245.125C143.913 245.648 143.996 246.131 144.162 246.576C144.328 247.02 144.575 247.376 144.902 247.645C145.234 247.914 145.651 248.048 146.154 248.048C146.652 248.048 147.065 247.914 147.392 247.645C147.724 247.376 147.973 247.02 148.139 246.576C148.305 246.131 148.388 245.648 148.388 245.125V244.957C148.388 244.435 148.305 243.951 148.139 243.507C147.973 243.062 147.724 242.706 147.392 242.438C147.06 242.164 146.643 242.027 146.14 242.027C145.646 242.027 145.234 242.164 144.902 242.438C144.57 242.706 144.321 243.062 144.155 243.507C143.994 243.951 143.913 244.435 143.913 244.957V245.125ZM156.079 246.898C156.079 246.703 156.035 246.522 155.947 246.356C155.864 246.185 155.693 246.031 155.434 245.895C155.175 245.753 154.785 245.628 154.262 245.521C153.676 245.399 153.168 245.245 152.739 245.06C152.314 244.869 151.984 244.627 151.75 244.334C151.521 244.042 151.406 243.678 151.406 243.243C151.406 242.823 151.525 242.44 151.765 242.093C152.009 241.742 152.351 241.461 152.79 241.251C153.234 241.036 153.752 240.929 154.343 240.929C154.978 240.929 155.52 241.041 155.969 241.266C156.423 241.485 156.77 241.783 157.009 242.159C157.248 242.53 157.368 242.943 157.368 243.397H155.998C155.998 243.07 155.854 242.76 155.566 242.467C155.283 242.174 154.875 242.027 154.343 242.027C153.972 242.027 153.669 242.086 153.435 242.203C153.205 242.315 153.037 242.462 152.929 242.643C152.827 242.818 152.775 243.004 152.775 243.199C152.775 243.395 152.824 243.565 152.922 243.712C153.02 243.854 153.198 243.98 153.457 244.093C153.72 244.205 154.101 244.317 154.599 244.43C155.249 244.576 155.783 244.752 156.203 244.957C156.623 245.162 156.936 245.414 157.141 245.711C157.346 246.009 157.448 246.373 157.448 246.803C157.448 247.262 157.321 247.669 157.067 248.026C156.813 248.377 156.457 248.653 155.998 248.854C155.539 249.049 155 249.146 154.379 249.146C153.681 249.146 153.09 249.022 152.607 248.773C152.124 248.524 151.757 248.204 151.508 247.813C151.259 247.418 151.135 247 151.135 246.561H152.504C152.529 246.932 152.636 247.228 152.827 247.447C153.022 247.662 153.259 247.816 153.537 247.909C153.82 248.001 154.101 248.048 154.379 248.048C154.75 248.048 155.061 247.999 155.31 247.901C155.563 247.799 155.754 247.662 155.881 247.491C156.013 247.315 156.079 247.118 156.079 246.898ZM166.113 248.048C166.435 248.048 166.733 247.982 167.006 247.85C167.28 247.713 167.504 247.528 167.68 247.293C167.856 247.059 167.956 246.793 167.98 246.495H169.277C169.252 246.964 169.094 247.401 168.801 247.806C168.508 248.207 168.127 248.531 167.658 248.78C167.189 249.024 166.674 249.146 166.113 249.146C165.317 249.146 164.658 248.966 164.135 248.604C163.613 248.238 163.222 247.755 162.963 247.154C162.709 246.554 162.583 245.899 162.583 245.191V244.884C162.583 244.171 162.712 243.517 162.971 242.921C163.229 242.32 163.62 241.839 164.143 241.478C164.665 241.112 165.322 240.929 166.113 240.929C166.733 240.929 167.275 241.056 167.739 241.31C168.208 241.559 168.574 241.9 168.837 242.335C169.106 242.765 169.252 243.253 169.277 243.8H167.98C167.956 243.473 167.863 243.175 167.702 242.906C167.546 242.638 167.331 242.425 167.058 242.269C166.789 242.108 166.474 242.027 166.113 242.027C165.561 242.027 165.126 242.169 164.809 242.452C164.497 242.735 164.274 243.097 164.143 243.536C164.016 243.971 163.952 244.42 163.952 244.884V245.191C163.952 245.655 164.016 246.107 164.143 246.546C164.27 246.986 164.489 247.347 164.802 247.63C165.119 247.909 165.556 248.048 166.113 248.048ZM172.287 249H170.917V237.75H172.287V249ZM175.935 249H174.565V241.075H175.935V249ZM174.462 238.966C174.462 238.751 174.528 238.568 174.66 238.417C174.797 238.265 174.997 238.189 175.261 238.189C175.524 238.189 175.725 238.265 175.861 238.417C176.003 238.568 176.074 238.751 176.074 238.966C176.074 239.176 176.003 239.356 175.861 239.508C175.725 239.654 175.524 239.728 175.261 239.728C174.997 239.728 174.797 239.654 174.66 239.508C174.528 239.356 174.462 239.176 174.462 238.966ZM181.391 249.146C180.654 249.146 180.012 248.983 179.465 248.656C178.923 248.324 178.5 247.87 178.198 247.293C177.9 246.717 177.751 246.058 177.751 245.316V245.001C177.751 244.142 177.915 243.409 178.242 242.804C178.574 242.193 179.003 241.729 179.531 241.412C180.063 241.09 180.625 240.929 181.215 240.929C181.977 240.929 182.597 241.1 183.076 241.441C183.559 241.778 183.913 242.24 184.138 242.826C184.367 243.407 184.482 244.066 184.482 244.803V245.411H178.564V244.312H183.112V244.21C183.093 243.858 183.022 243.517 182.9 243.185C182.778 242.848 182.583 242.572 182.314 242.357C182.045 242.137 181.679 242.027 181.215 242.027C180.805 242.027 180.441 242.145 180.124 242.379C179.812 242.608 179.565 242.945 179.384 243.39C179.208 243.829 179.121 244.366 179.121 245.001V245.316C179.121 245.819 179.213 246.278 179.399 246.693C179.584 247.103 179.853 247.433 180.205 247.682C180.556 247.926 180.976 248.048 181.464 248.048C181.943 248.048 182.348 247.95 182.68 247.755C183.012 247.56 183.303 247.298 183.552 246.971L184.379 247.616C184.125 248.006 183.759 248.36 183.281 248.678C182.807 248.99 182.177 249.146 181.391 249.146ZM187.434 249H186.064V241.075H187.36L187.434 242.767V249ZM186.54 244.708C186.55 243.985 186.689 243.341 186.958 242.774C187.226 242.203 187.6 241.754 188.078 241.427C188.562 241.095 189.123 240.929 189.763 240.929C190.285 240.929 190.734 241.026 191.11 241.222C191.491 241.412 191.784 241.717 191.989 242.137C192.199 242.557 192.304 243.114 192.304 243.807V249H190.935V243.792C190.935 243.377 190.874 243.043 190.751 242.789C190.634 242.535 190.458 242.352 190.224 242.24C189.99 242.123 189.702 242.064 189.36 242.064C189.023 242.064 188.718 242.135 188.444 242.276C188.171 242.418 187.934 242.613 187.734 242.862C187.534 243.111 187.38 243.397 187.272 243.719C187.165 244.037 187.111 244.374 187.111 244.73L186.54 244.708ZM197.688 242.108H193.396V241.075H197.688V242.108ZM196.208 239.149V247.037C196.208 247.311 196.25 247.516 196.333 247.652C196.416 247.789 196.523 247.879 196.655 247.923C196.787 247.967 196.928 247.989 197.08 247.989C197.192 247.989 197.309 247.979 197.431 247.96C197.558 247.94 197.651 247.923 197.709 247.909L197.717 249C197.609 249.034 197.468 249.066 197.292 249.095C197.121 249.129 196.914 249.146 196.669 249.146C196.337 249.146 196.032 249.081 195.754 248.949C195.476 248.817 195.253 248.597 195.087 248.29C194.921 247.977 194.838 247.557 194.838 247.03V239.149H196.208ZM202.558 249.146C201.821 249.146 201.179 248.983 200.632 248.656C200.09 248.324 199.667 247.87 199.365 247.293C199.067 246.717 198.918 246.058 198.918 245.316V245.001C198.918 244.142 199.082 243.409 199.409 242.804C199.741 242.193 200.17 241.729 200.698 241.412C201.23 241.09 201.792 240.929 202.382 240.929C203.144 240.929 203.764 241.1 204.243 241.441C204.726 241.778 205.08 242.24 205.305 242.826C205.534 243.407 205.649 244.066 205.649 244.803V245.411H199.731V244.312H204.279V244.21C204.26 243.858 204.189 243.517 204.067 243.185C203.945 242.848 203.75 242.572 203.481 242.357C203.212 242.137 202.846 242.027 202.382 242.027C201.972 242.027 201.608 242.145 201.291 242.379C200.979 242.608 200.732 242.945 200.551 243.39C200.375 243.829 200.288 244.366 200.288 245.001V245.316C200.288 245.819 200.38 246.278 200.566 246.693C200.751 247.103 201.02 247.433 201.372 247.682C201.723 247.926 202.143 248.048 202.631 248.048C203.11 248.048 203.515 247.95 203.847 247.755C204.179 247.56 204.47 247.298 204.719 246.971L205.546 247.616C205.292 248.006 204.926 248.36 204.448 248.678C203.974 248.99 203.344 249.146 202.558 249.146ZM211.845 246.898C211.845 246.703 211.801 246.522 211.713 246.356C211.63 246.185 211.459 246.031 211.201 245.895C210.942 245.753 210.551 245.628 210.029 245.521C209.443 245.399 208.935 245.245 208.505 245.06C208.081 244.869 207.751 244.627 207.517 244.334C207.287 244.042 207.172 243.678 207.172 243.243C207.172 242.823 207.292 242.44 207.531 242.093C207.775 241.742 208.117 241.461 208.557 241.251C209.001 241.036 209.519 240.929 210.109 240.929C210.744 240.929 211.286 241.041 211.735 241.266C212.189 241.485 212.536 241.783 212.775 242.159C213.015 242.53 213.134 242.943 213.134 243.397H211.765C211.765 243.07 211.621 242.76 211.333 242.467C211.049 242.174 210.642 242.027 210.109 242.027C209.738 242.027 209.436 242.086 209.201 242.203C208.972 242.315 208.803 242.462 208.696 242.643C208.593 242.818 208.542 243.004 208.542 243.199C208.542 243.395 208.591 243.565 208.688 243.712C208.786 243.854 208.964 243.98 209.223 244.093C209.487 244.205 209.868 244.317 210.366 244.43C211.015 244.576 211.55 244.752 211.97 244.957C212.39 245.162 212.702 245.414 212.907 245.711C213.112 246.009 213.215 246.373 213.215 246.803C213.215 247.262 213.088 247.669 212.834 248.026C212.58 248.377 212.224 248.653 211.765 248.854C211.306 249.049 210.766 249.146 210.146 249.146C209.448 249.146 208.857 249.022 208.374 248.773C207.89 248.524 207.524 248.204 207.275 247.813C207.026 247.418 206.901 247 206.901 246.561H208.271C208.295 246.932 208.403 247.228 208.593 247.447C208.789 247.662 209.025 247.816 209.304 247.909C209.587 248.001 209.868 248.048 210.146 248.048C210.517 248.048 210.827 247.999 211.076 247.901C211.33 247.799 211.521 247.662 211.647 247.491C211.779 247.315 211.845 247.118 211.845 246.898ZM216.225 248.48C216.225 248.924 216.113 249.393 215.888 249.886C215.664 250.379 215.346 250.792 214.936 251.124L214.16 250.597C214.316 250.382 214.448 250.165 214.555 249.945C214.663 249.725 214.743 249.496 214.797 249.256C214.855 249.017 214.885 248.766 214.885 248.502V247.396H216.225V248.48ZM29.0181 268.898C29.0181 268.703 28.9741 268.522 28.8862 268.356C28.8032 268.185 28.6323 268.031 28.3735 267.895C28.1147 267.753 27.7241 267.628 27.2017 267.521C26.6157 267.399 26.1079 267.245 25.6782 267.06C25.2534 266.869 24.9238 266.627 24.6895 266.334C24.46 266.042 24.3452 265.678 24.3452 265.243C24.3452 264.823 24.4648 264.44 24.7041 264.093C24.9482 263.742 25.29 263.461 25.7295 263.251C26.1738 263.036 26.6914 262.929 27.2822 262.929C27.917 262.929 28.459 263.041 28.9082 263.266C29.3623 263.485 29.709 263.783 29.9482 264.159C30.1875 264.53 30.3071 264.943 30.3071 265.397H28.9375C28.9375 265.07 28.7935 264.76 28.5054 264.467C28.2222 264.174 27.8145 264.027 27.2822 264.027C26.9111 264.027 26.6084 264.086 26.374 264.203C26.1445 264.315 25.9761 264.462 25.8687 264.643C25.7661 264.818 25.7148 265.004 25.7148 265.199C25.7148 265.395 25.7637 265.565 25.8613 265.712C25.959 265.854 26.1372 265.98 26.396 266.093C26.6597 266.205 27.0405 266.317 27.5386 266.43C28.188 266.576 28.7227 266.752 29.1426 266.957C29.5625 267.162 29.875 267.414 30.0801 267.711C30.2852 268.009 30.3877 268.373 30.3877 268.803C30.3877 269.262 30.2607 269.669 30.0068 270.026C29.7529 270.377 29.3965 270.653 28.9375 270.854C28.4785 271.049 27.939 271.146 27.3188 271.146C26.6206 271.146 26.0298 271.022 25.5464 270.773C25.063 270.524 24.6968 270.204 24.4478 269.813C24.1987 269.418 24.0742 269 24.0742 268.561H25.4438C25.4683 268.932 25.5757 269.228 25.7661 269.447C25.9614 269.662 26.1982 269.816 26.4766 269.909C26.7598 270.001 27.0405 270.048 27.3188 270.048C27.6899 270.048 28 269.999 28.249 269.901C28.5029 269.799 28.6934 269.662 28.8203 269.491C28.9521 269.315 29.0181 269.118 29.0181 268.898ZM35.4487 271.146C34.7114 271.146 34.0693 270.983 33.5225 270.656C32.9805 270.324 32.5581 269.87 32.2554 269.293C31.9575 268.717 31.8086 268.058 31.8086 267.316V267.001C31.8086 266.142 31.9722 265.409 32.2993 264.804C32.6313 264.193 33.061 263.729 33.5884 263.412C34.1206 263.09 34.6821 262.929 35.2729 262.929C36.0347 262.929 36.6548 263.1 37.1333 263.441C37.6167 263.778 37.9707 264.24 38.1953 264.826C38.4248 265.407 38.5396 266.066 38.5396 266.803V267.411H32.6216V266.312H37.1699V266.21C37.1504 265.858 37.0796 265.517 36.9575 265.185C36.8354 264.848 36.6401 264.572 36.3716 264.357C36.103 264.137 35.7368 264.027 35.2729 264.027C34.8628 264.027 34.499 264.145 34.1816 264.379C33.8691 264.608 33.6226 264.945 33.4419 265.39C33.2661 265.829 33.1782 266.366 33.1782 267.001V267.316C33.1782 267.819 33.271 268.278 33.4565 268.693C33.6421 269.103 33.9106 269.433 34.2622 269.682C34.6138 269.926 35.0337 270.048 35.522 270.048C36.0005 270.048 36.4058 269.95 36.7378 269.755C37.0698 269.56 37.3604 269.298 37.6094 268.971L38.437 269.616C38.1831 270.006 37.8169 270.36 37.3384 270.678C36.8647 270.99 36.2349 271.146 35.4487 271.146ZM41.4839 271H40.1143V263.075H41.4106L41.4839 264.65V271ZM40.5684 266.708C40.5732 265.985 40.6953 265.341 40.9346 264.774C41.1787 264.203 41.5376 263.754 42.0112 263.427C42.4897 263.095 43.083 262.929 43.791 262.929C44.5332 262.929 45.146 263.146 45.6294 263.581C46.1128 264.015 46.3545 264.728 46.3545 265.719V271H44.9849V265.785C44.9849 265.37 44.9141 265.038 44.7725 264.789C44.6357 264.535 44.4404 264.352 44.1865 264.24C43.9326 264.123 43.6348 264.064 43.293 264.064C42.8975 264.064 42.5654 264.135 42.2969 264.276C42.0332 264.418 41.8208 264.613 41.6597 264.862C41.4985 265.111 41.3813 265.397 41.3081 265.719C41.2397 266.037 41.2056 266.374 41.2056 266.73L40.5684 266.708ZM45.4243 266.261C45.4292 265.685 45.5513 265.143 45.7905 264.635C46.0347 264.127 46.3911 263.717 46.8599 263.405C47.3286 263.087 47.8999 262.929 48.5737 262.929C49.1401 262.929 49.6211 263.029 50.0166 263.229C50.4121 263.429 50.7124 263.739 50.9175 264.159C51.1226 264.579 51.2251 265.124 51.2251 265.792V271H49.8555V265.778C49.8555 265.333 49.7847 264.987 49.6431 264.738C49.5063 264.489 49.311 264.315 49.0571 264.218C48.8081 264.115 48.5127 264.064 48.1709 264.064C47.873 264.064 47.6094 264.115 47.3799 264.218C47.1553 264.32 46.9648 264.462 46.8086 264.643C46.6572 264.818 46.54 265.021 46.457 265.25C46.3789 265.48 46.3398 265.724 46.3398 265.983L45.4243 266.261ZM54.6455 274.047H53.2759V263.075H54.521L54.6455 264.599V274.047ZM59.9775 267.125C59.9775 267.897 59.8579 268.585 59.6187 269.191C59.3794 269.796 59.0303 270.275 58.5713 270.626C58.1172 270.973 57.563 271.146 56.9087 271.146C56.23 271.146 55.6611 271 55.2021 270.707C54.7432 270.414 54.3843 269.999 54.1255 269.462C53.8667 268.92 53.6982 268.28 53.6201 267.543V266.693C53.6982 265.917 53.8667 265.248 54.1255 264.687C54.3892 264.125 54.748 263.693 55.2021 263.39C55.6611 263.083 56.2227 262.929 56.8867 262.929C57.5508 262.929 58.1123 263.097 58.5713 263.434C59.0303 263.771 59.3794 264.245 59.6187 264.855C59.8579 265.46 59.9775 266.166 59.9775 266.972V267.125ZM58.6079 266.972C58.6079 266.444 58.5322 265.961 58.3809 265.521C58.2344 265.077 58.0024 264.723 57.6851 264.459C57.3726 264.196 56.9697 264.064 56.4766 264.064C56.1396 264.064 55.8467 264.123 55.5977 264.24C55.3486 264.357 55.1362 264.516 54.9604 264.716C54.7847 264.911 54.6406 265.136 54.5283 265.39C54.4209 265.639 54.3403 265.897 54.2866 266.166V268.078C54.3843 268.419 54.5186 268.742 54.6895 269.044C54.8652 269.342 55.0972 269.584 55.3853 269.77C55.6782 269.955 56.0469 270.048 56.4912 270.048C56.9795 270.048 57.3799 269.914 57.6924 269.645C58.0049 269.376 58.2344 269.022 58.3809 268.583C58.5322 268.139 58.6079 267.653 58.6079 267.125V266.972ZM63.0684 271H61.6987V263.075H63.0317L63.0684 264.32V271ZM65.5366 264.284C65.4194 264.259 65.3096 264.245 65.207 264.24C65.1094 264.23 64.9971 264.225 64.8701 264.225C64.4551 264.225 64.1035 264.311 63.8154 264.481C63.5322 264.652 63.3125 264.889 63.1562 265.192C63 265.49 62.9023 265.832 62.8633 266.217L62.4751 266.437C62.4751 265.797 62.5605 265.214 62.7314 264.687C62.9023 264.154 63.1685 263.729 63.5298 263.412C63.896 263.09 64.3647 262.929 64.936 262.929C65.0288 262.929 65.1387 262.941 65.2656 262.965C65.3975 262.985 65.4878 263.007 65.5366 263.031V264.284ZM70.0776 271.146C69.3403 271.146 68.6982 270.983 68.1514 270.656C67.6094 270.324 67.187 269.87 66.8843 269.293C66.5864 268.717 66.4375 268.058 66.4375 267.316V267.001C66.4375 266.142 66.6011 265.409 66.9282 264.804C67.2603 264.193 67.6899 263.729 68.2173 263.412C68.7495 263.09 69.311 262.929 69.9019 262.929C70.6636 262.929 71.2837 263.1 71.7622 263.441C72.2456 263.778 72.5996 264.24 72.8242 264.826C73.0537 265.407 73.1685 266.066 73.1685 266.803V267.411H67.2505V266.312H71.7988V266.21C71.7793 265.858 71.7085 265.517 71.5864 265.185C71.4644 264.848 71.269 264.572 71.0005 264.357C70.7319 264.137 70.3657 264.027 69.9019 264.027C69.4917 264.027 69.1279 264.145 68.8105 264.379C68.498 264.608 68.2515 264.945 68.0708 265.39C67.895 265.829 67.8071 266.366 67.8071 267.001V267.316C67.8071 267.819 67.8999 268.278 68.0854 268.693C68.271 269.103 68.5396 269.433 68.8911 269.682C69.2427 269.926 69.6626 270.048 70.1509 270.048C70.6294 270.048 71.0347 269.95 71.3667 269.755C71.6987 269.56 71.9893 269.298 72.2383 268.971L73.0659 269.616C72.812 270.006 72.4458 270.36 71.9673 270.678C71.4937 270.99 70.8638 271.146 70.0776 271.146ZM83.0415 263.075H84.4404L81.5986 271H80.6758L80.8882 269.784L83.0415 263.075ZM81.313 269.821L81.4741 271H80.5586L77.6875 263.075H79.0864L81.313 269.821ZM87.2383 271H85.8687V263.075H87.2383V271ZM85.7661 260.966C85.7661 260.751 85.832 260.568 85.9639 260.417C86.1006 260.265 86.3008 260.189 86.5645 260.189C86.8281 260.189 87.0283 260.265 87.165 260.417C87.3066 260.568 87.3774 260.751 87.3774 260.966C87.3774 261.176 87.3066 261.356 87.165 261.508C87.0283 261.654 86.8281 261.728 86.5645 261.728C86.3008 261.728 86.1006 261.654 85.9639 261.508C85.832 261.356 85.7661 261.176 85.7661 260.966ZM94.0132 268.898C94.0132 268.703 93.9692 268.522 93.8813 268.356C93.7983 268.185 93.6274 268.031 93.3687 267.895C93.1099 267.753 92.7192 267.628 92.1968 267.521C91.6108 267.399 91.103 267.245 90.6733 267.06C90.2485 266.869 89.9189 266.627 89.6846 266.334C89.4551 266.042 89.3403 265.678 89.3403 265.243C89.3403 264.823 89.46 264.44 89.6992 264.093C89.9434 263.742 90.2852 263.461 90.7246 263.251C91.1689 263.036 91.6865 262.929 92.2773 262.929C92.9121 262.929 93.4541 263.041 93.9033 263.266C94.3574 263.485 94.7041 263.783 94.9434 264.159C95.1826 264.53 95.3022 264.943 95.3022 265.397H93.9326C93.9326 265.07 93.7886 264.76 93.5005 264.467C93.2173 264.174 92.8096 264.027 92.2773 264.027C91.9062 264.027 91.6035 264.086 91.3691 264.203C91.1396 264.315 90.9712 264.462 90.8638 264.643C90.7612 264.818 90.71 265.004 90.71 265.199C90.71 265.395 90.7588 265.565 90.8564 265.712C90.9541 265.854 91.1323 265.98 91.3911 266.093C91.6548 266.205 92.0356 266.317 92.5337 266.43C93.1831 266.576 93.7178 266.752 94.1377 266.957C94.5576 267.162 94.8701 267.414 95.0752 267.711C95.2803 268.009 95.3828 268.373 95.3828 268.803C95.3828 269.262 95.2559 269.669 95.002 270.026C94.748 270.377 94.3916 270.653 93.9326 270.854C93.4736 271.049 92.9341 271.146 92.314 271.146C91.6157 271.146 91.0249 271.022 90.5415 270.773C90.0581 270.524 89.6919 270.204 89.4429 269.813C89.1938 269.418 89.0693 269 89.0693 268.561H90.439C90.4634 268.932 90.5708 269.228 90.7612 269.447C90.9565 269.662 91.1934 269.816 91.4717 269.909C91.7549 270.001 92.0356 270.048 92.314 270.048C92.6851 270.048 92.9951 269.999 93.2441 269.901C93.498 269.799 93.6885 269.662 93.8154 269.491C93.9473 269.315 94.0132 269.118 94.0132 268.898ZM101.821 265.565C101.821 265.092 101.679 264.716 101.396 264.438C101.118 264.154 100.705 264.013 100.158 264.013C99.8213 264.013 99.5234 264.071 99.2646 264.188C99.0107 264.306 98.813 264.459 98.6714 264.65C98.5298 264.84 98.459 265.048 98.459 265.272H97.0894C97.0894 264.892 97.2188 264.523 97.4775 264.167C97.7363 263.805 98.1001 263.51 98.5688 263.28C99.0425 263.046 99.5991 262.929 100.239 262.929C100.815 262.929 101.325 263.026 101.77 263.222C102.214 263.417 102.561 263.712 102.81 264.108C103.063 264.499 103.19 264.989 103.19 265.58V269.271C103.19 269.535 103.212 269.816 103.256 270.114C103.305 270.412 103.376 270.668 103.469 270.883V271H102.041C101.972 270.844 101.918 270.636 101.879 270.377C101.84 270.114 101.821 269.87 101.821 269.645V265.565ZM102.07 267.147H100.708C99.936 267.147 99.3403 267.27 98.9204 267.514C98.5005 267.758 98.2905 268.124 98.2905 268.612C98.2905 268.993 98.4175 269.315 98.6714 269.579C98.9302 269.843 99.3062 269.975 99.7993 269.975C100.214 269.975 100.581 269.887 100.898 269.711C101.215 269.535 101.467 269.318 101.652 269.059C101.838 268.8 101.938 268.551 101.953 268.312L102.539 268.964C102.504 269.169 102.412 269.396 102.26 269.645C102.109 269.894 101.906 270.133 101.652 270.363C101.403 270.587 101.105 270.775 100.759 270.927C100.417 271.073 100.031 271.146 99.6016 271.146C99.0645 271.146 98.5933 271.044 98.188 270.839C97.7876 270.629 97.4751 270.346 97.2505 269.989C97.0308 269.633 96.9209 269.237 96.9209 268.803C96.9209 267.948 97.2432 267.301 97.8877 266.862C98.5322 266.417 99.3989 266.195 100.488 266.195H102.055L102.07 267.147ZM106.691 271H105.322V263.075H106.618L106.691 264.767V271ZM105.798 266.708C105.808 265.985 105.947 265.341 106.215 264.774C106.484 264.203 106.857 263.754 107.336 263.427C107.819 263.095 108.381 262.929 109.021 262.929C109.543 262.929 109.992 263.026 110.368 263.222C110.749 263.412 111.042 263.717 111.247 264.137C111.457 264.557 111.562 265.114 111.562 265.807V271H110.192V265.792C110.192 265.377 110.131 265.043 110.009 264.789C109.892 264.535 109.716 264.352 109.482 264.24C109.248 264.123 108.959 264.064 108.618 264.064C108.281 264.064 107.976 264.135 107.702 264.276C107.429 264.418 107.192 264.613 106.992 264.862C106.792 265.111 106.638 265.397 106.53 265.719C106.423 266.037 106.369 266.374 106.369 266.73L105.798 266.708ZM118.608 259.75H119.978V271H118.725L118.608 269.462V259.75ZM113.283 266.972C113.283 266.166 113.413 265.46 113.671 264.855C113.935 264.245 114.301 263.771 114.77 263.434C115.239 263.097 115.788 262.929 116.418 262.929C117.082 262.929 117.636 263.083 118.081 263.39C118.525 263.693 118.872 264.125 119.121 264.687C119.375 265.248 119.538 265.917 119.611 266.693V267.404C119.538 268.17 119.377 268.834 119.128 269.396C118.879 269.953 118.53 270.385 118.081 270.692C117.636 270.995 117.077 271.146 116.403 271.146C115.783 271.146 115.239 270.973 114.77 270.626C114.301 270.275 113.935 269.796 113.671 269.191C113.413 268.585 113.283 267.897 113.283 267.125V266.972ZM114.653 267.125C114.653 267.653 114.724 268.134 114.865 268.568C115.012 269.003 115.239 269.352 115.546 269.616C115.854 269.875 116.252 270.004 116.74 270.004C117.189 270.004 117.558 269.909 117.846 269.718C118.139 269.528 118.374 269.276 118.549 268.964C118.725 268.651 118.862 268.312 118.959 267.946V266.166C118.901 265.897 118.815 265.639 118.703 265.39C118.596 265.136 118.454 264.911 118.278 264.716C118.107 264.516 117.895 264.357 117.641 264.24C117.392 264.123 117.097 264.064 116.755 264.064C116.262 264.064 115.859 264.196 115.546 264.459C115.239 264.723 115.012 265.077 114.865 265.521C114.724 265.961 114.653 266.444 114.653 266.972V267.125ZM121.728 266.957C121.728 266.19 121.875 265.504 122.167 264.899C122.46 264.293 122.875 263.815 123.413 263.463C123.95 263.107 124.587 262.929 125.324 262.929C126.071 262.929 126.716 263.107 127.258 263.463C127.8 263.815 128.215 264.293 128.503 264.899C128.796 265.504 128.942 266.19 128.942 266.957V267.125C128.942 267.887 128.796 268.573 128.503 269.184C128.215 269.789 127.8 270.268 127.258 270.619C126.721 270.971 126.081 271.146 125.339 271.146C124.597 271.146 123.955 270.971 123.413 270.619C122.875 270.268 122.46 269.789 122.167 269.184C121.875 268.573 121.728 267.887 121.728 267.125V266.957ZM123.098 267.125C123.098 267.648 123.181 268.131 123.347 268.576C123.513 269.02 123.759 269.376 124.086 269.645C124.418 269.914 124.836 270.048 125.339 270.048C125.837 270.048 126.25 269.914 126.577 269.645C126.909 269.376 127.158 269.02 127.324 268.576C127.49 268.131 127.573 267.648 127.573 267.125V266.957C127.573 266.435 127.49 265.951 127.324 265.507C127.158 265.062 126.909 264.706 126.577 264.438C126.245 264.164 125.827 264.027 125.324 264.027C124.831 264.027 124.418 264.164 124.086 264.438C123.754 264.706 123.505 265.062 123.339 265.507C123.178 265.951 123.098 266.435 123.098 266.957V267.125ZM139.042 265.565C139.042 265.092 138.901 264.716 138.618 264.438C138.339 264.154 137.927 264.013 137.38 264.013C137.043 264.013 136.745 264.071 136.486 264.188C136.232 264.306 136.035 264.459 135.893 264.65C135.751 264.84 135.681 265.048 135.681 265.272H134.311C134.311 264.892 134.44 264.523 134.699 264.167C134.958 263.805 135.322 263.51 135.791 263.28C136.264 263.046 136.821 262.929 137.46 262.929C138.037 262.929 138.547 263.026 138.991 263.222C139.436 263.417 139.782 263.712 140.031 264.108C140.285 264.499 140.412 264.989 140.412 265.58V269.271C140.412 269.535 140.434 269.816 140.478 270.114C140.527 270.412 140.598 270.668 140.69 270.883V271H139.262C139.194 270.844 139.14 270.636 139.101 270.377C139.062 270.114 139.042 269.87 139.042 269.645V265.565ZM139.292 267.147H137.929C137.158 267.147 136.562 267.27 136.142 267.514C135.722 267.758 135.512 268.124 135.512 268.612C135.512 268.993 135.639 269.315 135.893 269.579C136.152 269.843 136.528 269.975 137.021 269.975C137.436 269.975 137.802 269.887 138.12 269.711C138.437 269.535 138.688 269.318 138.874 269.059C139.06 268.8 139.16 268.551 139.174 268.312L139.76 268.964C139.726 269.169 139.633 269.396 139.482 269.645C139.331 269.894 139.128 270.133 138.874 270.363C138.625 270.587 138.327 270.775 137.98 270.927C137.639 271.073 137.253 271.146 136.823 271.146C136.286 271.146 135.815 271.044 135.41 270.839C135.009 270.629 134.697 270.346 134.472 269.989C134.252 269.633 134.143 269.237 134.143 268.803C134.143 267.948 134.465 267.301 135.109 266.862C135.754 266.417 136.621 266.195 137.709 266.195H139.277L139.292 267.147ZM149.56 271.146C148.823 271.146 148.181 270.983 147.634 270.656C147.092 270.324 146.669 269.87 146.367 269.293C146.069 268.717 145.92 268.058 145.92 267.316V267.001C145.92 266.142 146.083 265.409 146.411 264.804C146.743 264.193 147.172 263.729 147.7 263.412C148.232 263.09 148.793 262.929 149.384 262.929C150.146 262.929 150.766 263.1 151.245 263.441C151.728 263.778 152.082 264.24 152.307 264.826C152.536 265.407 152.651 266.066 152.651 266.803V267.411H146.733V266.312H151.281V266.21C151.262 265.858 151.191 265.517 151.069 265.185C150.947 264.848 150.751 264.572 150.483 264.357C150.214 264.137 149.848 264.027 149.384 264.027C148.974 264.027 148.61 264.145 148.293 264.379C147.98 264.608 147.734 264.945 147.553 265.39C147.377 265.829 147.29 266.366 147.29 267.001V267.316C147.29 267.819 147.382 268.278 147.568 268.693C147.753 269.103 148.022 269.433 148.374 269.682C148.725 269.926 149.145 270.048 149.633 270.048C150.112 270.048 150.517 269.95 150.849 269.755C151.181 269.56 151.472 269.298 151.721 268.971L152.548 269.616C152.294 270.006 151.928 270.36 151.45 270.678C150.976 270.99 150.346 271.146 149.56 271.146ZM156.899 265.968L158.642 263.075H160.239L157.653 266.986L160.319 271H158.745L156.921 268.019L155.104 271H153.508L156.181 266.986L153.588 263.075H155.17L156.899 265.968ZM164.707 270.048C165.029 270.048 165.327 269.982 165.6 269.85C165.874 269.713 166.098 269.528 166.274 269.293C166.45 269.059 166.55 268.793 166.574 268.495H167.871C167.846 268.964 167.688 269.401 167.395 269.806C167.102 270.207 166.721 270.531 166.252 270.78C165.783 271.024 165.268 271.146 164.707 271.146C163.911 271.146 163.251 270.966 162.729 270.604C162.207 270.238 161.816 269.755 161.557 269.154C161.303 268.554 161.176 267.899 161.176 267.191V266.884C161.176 266.171 161.306 265.517 161.564 264.921C161.823 264.32 162.214 263.839 162.736 263.478C163.259 263.112 163.916 262.929 164.707 262.929C165.327 262.929 165.869 263.056 166.333 263.31C166.801 263.559 167.167 263.9 167.431 264.335C167.7 264.765 167.846 265.253 167.871 265.8H166.574C166.55 265.473 166.457 265.175 166.296 264.906C166.14 264.638 165.925 264.425 165.651 264.269C165.383 264.108 165.068 264.027 164.707 264.027C164.155 264.027 163.72 264.169 163.403 264.452C163.09 264.735 162.868 265.097 162.736 265.536C162.609 265.971 162.546 266.42 162.546 266.884V267.191C162.546 267.655 162.609 268.107 162.736 268.546C162.863 268.986 163.083 269.347 163.396 269.63C163.713 269.909 164.15 270.048 164.707 270.048ZM172.69 271.146C171.953 271.146 171.311 270.983 170.764 270.656C170.222 270.324 169.799 269.87 169.497 269.293C169.199 268.717 169.05 268.058 169.05 267.316V267.001C169.05 266.142 169.213 265.409 169.541 264.804C169.873 264.193 170.302 263.729 170.83 263.412C171.362 263.09 171.923 262.929 172.514 262.929C173.276 262.929 173.896 263.1 174.375 263.441C174.858 263.778 175.212 264.24 175.437 264.826C175.666 265.407 175.781 266.066 175.781 266.803V267.411H169.863V266.312H174.411V266.21C174.392 265.858 174.321 265.517 174.199 265.185C174.077 264.848 173.881 264.572 173.613 264.357C173.344 264.137 172.978 264.027 172.514 264.027C172.104 264.027 171.74 264.145 171.423 264.379C171.11 264.608 170.864 264.945 170.683 265.39C170.507 265.829 170.419 266.366 170.419 267.001V267.316C170.419 267.819 170.512 268.278 170.698 268.693C170.883 269.103 171.152 269.433 171.503 269.682C171.855 269.926 172.275 270.048 172.763 270.048C173.242 270.048 173.647 269.95 173.979 269.755C174.311 269.56 174.602 269.298 174.851 268.971L175.678 269.616C175.424 270.006 175.058 270.36 174.58 270.678C174.106 270.99 173.476 271.146 172.69 271.146ZM178.85 271H177.48V259.75H178.85V271ZM184.306 271.146C183.569 271.146 182.927 270.983 182.38 270.656C181.838 270.324 181.416 269.87 181.113 269.293C180.815 268.717 180.666 268.058 180.666 267.316V267.001C180.666 266.142 180.83 265.409 181.157 264.804C181.489 264.193 181.918 263.729 182.446 263.412C182.978 263.09 183.54 262.929 184.13 262.929C184.892 262.929 185.512 263.1 185.991 263.441C186.474 263.778 186.828 264.24 187.053 264.826C187.282 265.407 187.397 266.066 187.397 266.803V267.411H181.479V266.312H186.027V266.21C186.008 265.858 185.937 265.517 185.815 265.185C185.693 264.848 185.498 264.572 185.229 264.357C184.96 264.137 184.594 264.027 184.13 264.027C183.72 264.027 183.356 264.145 183.039 264.379C182.727 264.608 182.48 264.945 182.299 265.39C182.124 265.829 182.036 266.366 182.036 267.001V267.316C182.036 267.819 182.128 268.278 182.314 268.693C182.5 269.103 182.768 269.433 183.12 269.682C183.471 269.926 183.891 270.048 184.379 270.048C184.858 270.048 185.263 269.95 185.595 269.755C185.927 269.56 186.218 269.298 186.467 268.971L187.294 269.616C187.041 270.006 186.674 270.36 186.196 270.678C185.722 270.99 185.092 271.146 184.306 271.146ZM186.35 261.75V261.823H185.222L184.123 260.578L183.032 261.823H181.911V261.742L183.713 259.75H184.533L186.35 261.75ZM190.349 271H188.979V263.075H190.275L190.349 264.767V271ZM189.455 266.708C189.465 265.985 189.604 265.341 189.873 264.774C190.141 264.203 190.515 263.754 190.993 263.427C191.477 263.095 192.038 262.929 192.678 262.929C193.2 262.929 193.649 263.026 194.025 263.222C194.406 263.412 194.699 263.717 194.904 264.137C195.114 264.557 195.219 265.114 195.219 265.807V271H193.85V265.792C193.85 265.377 193.789 265.043 193.667 264.789C193.549 264.535 193.374 264.352 193.139 264.24C192.905 264.123 192.617 264.064 192.275 264.064C191.938 264.064 191.633 264.135 191.359 264.276C191.086 264.418 190.849 264.613 190.649 264.862C190.449 265.111 190.295 265.397 190.188 265.719C190.08 266.037 190.026 266.374 190.026 266.73L189.455 266.708ZM200.449 270.048C200.771 270.048 201.069 269.982 201.342 269.85C201.616 269.713 201.84 269.528 202.016 269.293C202.192 269.059 202.292 268.793 202.316 268.495H203.613C203.588 268.964 203.43 269.401 203.137 269.806C202.844 270.207 202.463 270.531 201.994 270.78C201.525 271.024 201.01 271.146 200.449 271.146C199.653 271.146 198.994 270.966 198.471 270.604C197.949 270.238 197.558 269.755 197.299 269.154C197.045 268.554 196.918 267.899 196.918 267.191V266.884C196.918 266.171 197.048 265.517 197.307 264.921C197.565 264.32 197.956 263.839 198.479 263.478C199.001 263.112 199.658 262.929 200.449 262.929C201.069 262.929 201.611 263.056 202.075 263.31C202.543 263.559 202.91 263.9 203.173 264.335C203.442 264.765 203.588 265.253 203.613 265.8H202.316C202.292 265.473 202.199 265.175 202.038 264.906C201.882 264.638 201.667 264.425 201.394 264.269C201.125 264.108 200.81 264.027 200.449 264.027C199.897 264.027 199.462 264.169 199.145 264.452C198.833 264.735 198.61 265.097 198.479 265.536C198.352 265.971 198.288 266.42 198.288 266.884V267.191C198.288 267.655 198.352 268.107 198.479 268.546C198.605 268.986 198.825 269.347 199.138 269.63C199.455 269.909 199.892 270.048 200.449 270.048ZM206.623 271H205.253V263.075H206.623V271ZM205.151 260.966C205.151 260.751 205.217 260.568 205.349 260.417C205.485 260.265 205.686 260.189 205.949 260.189C206.213 260.189 206.413 260.265 206.55 260.417C206.691 260.568 206.762 260.751 206.762 260.966C206.762 261.176 206.691 261.356 206.55 261.508C206.413 261.654 206.213 261.728 205.949 261.728C205.686 261.728 205.485 261.654 205.349 261.508C205.217 261.356 205.151 261.176 205.151 260.966ZM213.457 265.565C213.457 265.092 213.315 264.716 213.032 264.438C212.753 264.154 212.341 264.013 211.794 264.013C211.457 264.013 211.159 264.071 210.9 264.188C210.646 264.306 210.449 264.459 210.307 264.65C210.166 264.84 210.095 265.048 210.095 265.272H208.725C208.725 264.892 208.854 264.523 209.113 264.167C209.372 263.805 209.736 263.51 210.205 263.28C210.678 263.046 211.235 262.929 211.875 262.929C212.451 262.929 212.961 263.026 213.405 263.222C213.85 263.417 214.196 263.712 214.445 264.108C214.699 264.499 214.826 264.989 214.826 265.58V269.271C214.826 269.535 214.848 269.816 214.892 270.114C214.941 270.412 215.012 270.668 215.104 270.883V271H213.676C213.608 270.844 213.554 270.636 213.515 270.377C213.476 270.114 213.457 269.87 213.457 269.645V265.565ZM213.706 267.147H212.343C211.572 267.147 210.976 267.27 210.556 267.514C210.136 267.758 209.926 268.124 209.926 268.612C209.926 268.993 210.053 269.315 210.307 269.579C210.566 269.843 210.942 269.975 211.435 269.975C211.85 269.975 212.216 269.887 212.534 269.711C212.851 269.535 213.103 269.318 213.288 269.059C213.474 268.8 213.574 268.551 213.588 268.312L214.174 268.964C214.14 269.169 214.047 269.396 213.896 269.645C213.745 269.894 213.542 270.133 213.288 270.363C213.039 270.587 212.741 270.775 212.395 270.927C212.053 271.073 211.667 271.146 211.237 271.146C210.7 271.146 210.229 271.044 209.824 270.839C209.423 270.629 209.111 270.346 208.886 269.989C208.667 269.633 208.557 269.237 208.557 268.803C208.557 267.948 208.879 267.301 209.523 266.862C210.168 266.417 211.035 266.195 212.124 266.195H213.691L213.706 267.147ZM223.974 271.146C223.237 271.146 222.595 270.983 222.048 270.656C221.506 270.324 221.083 269.87 220.781 269.293C220.483 268.717 220.334 268.058 220.334 267.316V267.001C220.334 266.142 220.498 265.409 220.825 264.804C221.157 264.193 221.586 263.729 222.114 263.412C222.646 263.09 223.208 262.929 223.798 262.929C224.56 262.929 225.18 263.1 225.659 263.441C226.142 263.778 226.496 264.24 226.721 264.826C226.95 265.407 227.065 266.066 227.065 266.803V267.411H221.147V266.312H225.695V266.21C225.676 265.858 225.605 265.517 225.483 265.185C225.361 264.848 225.166 264.572 224.897 264.357C224.628 264.137 224.262 264.027 223.798 264.027C223.388 264.027 223.024 264.145 222.707 264.379C222.395 264.608 222.148 264.945 221.967 265.39C221.792 265.829 221.704 266.366 221.704 267.001V267.316C221.704 267.819 221.796 268.278 221.982 268.693C222.167 269.103 222.436 269.433 222.788 269.682C223.139 269.926 223.559 270.048 224.047 270.048C224.526 270.048 224.931 269.95 225.263 269.755C225.595 269.56 225.886 269.298 226.135 268.971L226.962 269.616C226.708 270.006 226.342 270.36 225.864 270.678C225.39 270.99 224.76 271.146 223.974 271.146ZM90.981 293.146C90.2437 293.146 89.6016 292.983 89.0547 292.656C88.5127 292.324 88.0903 291.87 87.7876 291.293C87.4897 290.717 87.3408 290.058 87.3408 289.316V289.001C87.3408 288.142 87.5044 287.409 87.8315 286.804C88.1636 286.193 88.5933 285.729 89.1206 285.412C89.6528 285.09 90.2144 284.929 90.8052 284.929C91.5669 284.929 92.187 285.1 92.6655 285.441C93.1489 285.778 93.5029 286.24 93.7275 286.826C93.957 287.407 94.0718 288.066 94.0718 288.803V289.411H88.1538V288.312H92.7021V288.21C92.6826 287.858 92.6118 287.517 92.4897 287.185C92.3677 286.848 92.1724 286.572 91.9038 286.357C91.6353 286.137 91.269 286.027 90.8052 286.027C90.395 286.027 90.0312 286.145 89.7139 286.379C89.4014 286.608 89.1548 286.945 88.9741 287.39C88.7983 287.829 88.7104 288.366 88.7104 289.001V289.316C88.7104 289.819 88.8032 290.278 88.9888 290.693C89.1743 291.103 89.4429 291.433 89.7944 291.682C90.146 291.926 90.5659 292.048 91.0542 292.048C91.5327 292.048 91.938 291.95 92.27 291.755C92.6021 291.56 92.8926 291.298 93.1416 290.971L93.9692 291.616C93.7153 292.006 93.3491 292.36 92.8706 292.678C92.397 292.99 91.7671 293.146 90.981 293.146ZM96.3203 293V284.233C96.3203 283.383 96.5522 282.731 97.0161 282.277C97.4849 281.823 98.1245 281.596 98.9351 281.596C99.0913 281.596 99.2476 281.606 99.4038 281.625C99.5601 281.645 99.7139 281.674 99.8652 281.713L99.792 282.805C99.6895 282.785 99.5723 282.771 99.4404 282.761C99.3135 282.751 99.1865 282.746 99.0596 282.746C98.6299 282.746 98.293 282.875 98.0488 283.134C97.8096 283.388 97.6899 283.754 97.6899 284.233V293H96.3203ZM99.3745 286.108H95.0752V285.075H99.3745V286.108ZM104.165 293.146C103.427 293.146 102.785 292.983 102.238 292.656C101.696 292.324 101.274 291.87 100.971 291.293C100.673 290.717 100.524 290.058 100.524 289.316V289.001C100.524 288.142 100.688 287.409 101.015 286.804C101.347 286.193 101.777 285.729 102.304 285.412C102.836 285.09 103.398 284.929 103.989 284.929C104.75 284.929 105.371 285.1 105.849 285.441C106.333 285.778 106.687 286.24 106.911 286.826C107.141 287.407 107.255 288.066 107.255 288.803V289.411H101.337V288.312H105.886V288.21C105.866 287.858 105.795 287.517 105.673 287.185C105.551 286.848 105.356 286.572 105.087 286.357C104.819 286.137 104.453 286.027 103.989 286.027C103.579 286.027 103.215 286.145 102.897 286.379C102.585 286.608 102.338 286.945 102.158 287.39C101.982 287.829 101.894 288.366 101.894 289.001V289.316C101.894 289.819 101.987 290.278 102.172 290.693C102.358 291.103 102.626 291.433 102.978 291.682C103.33 291.926 103.75 292.048 104.238 292.048C104.716 292.048 105.122 291.95 105.454 291.755C105.786 291.56 106.076 291.298 106.325 290.971L107.153 291.616C106.899 292.006 106.533 292.36 106.054 292.678C105.581 292.99 104.951 293.146 104.165 293.146ZM112.17 286.108H107.878V285.075H112.17V286.108ZM110.69 283.149V291.037C110.69 291.311 110.732 291.516 110.815 291.652C110.898 291.789 111.005 291.879 111.137 291.923C111.269 291.967 111.411 291.989 111.562 291.989C111.674 291.989 111.792 291.979 111.914 291.96C112.041 291.94 112.133 291.923 112.192 291.909L112.199 293C112.092 293.034 111.95 293.066 111.774 293.095C111.604 293.129 111.396 293.146 111.152 293.146C110.82 293.146 110.515 293.081 110.236 292.949C109.958 292.817 109.736 292.597 109.57 292.29C109.404 291.977 109.321 291.557 109.321 291.03V283.149H110.69ZM115.231 293H113.862V285.075H115.231V293ZM113.759 282.966C113.759 282.751 113.825 282.568 113.957 282.417C114.094 282.265 114.294 282.189 114.558 282.189C114.821 282.189 115.021 282.265 115.158 282.417C115.3 282.568 115.371 282.751 115.371 282.966C115.371 283.176 115.3 283.356 115.158 283.508C115.021 283.654 114.821 283.728 114.558 283.728C114.294 283.728 114.094 283.654 113.957 283.508C113.825 283.356 113.759 283.176 113.759 282.966ZM121.962 285.075H123.361L120.52 293H119.597L119.809 291.784L121.962 285.075ZM120.234 291.821L120.395 293H119.479L116.608 285.075H118.007L120.234 291.821ZM126.159 293H124.79V285.075H126.159V293ZM124.687 282.966C124.687 282.751 124.753 282.568 124.885 282.417C125.021 282.265 125.222 282.189 125.485 282.189C125.749 282.189 125.949 282.265 126.086 282.417C126.228 282.568 126.298 282.751 126.298 282.966C126.298 283.176 126.228 283.356 126.086 283.508C125.949 283.654 125.749 283.728 125.485 283.728C125.222 283.728 125.021 283.654 124.885 283.508C124.753 283.356 124.687 283.176 124.687 282.966ZM133.315 281.75H134.685V293H133.432L133.315 291.462V281.75ZM127.99 288.972C127.99 288.166 128.12 287.46 128.378 286.855C128.642 286.245 129.008 285.771 129.477 285.434C129.946 285.097 130.495 284.929 131.125 284.929C131.789 284.929 132.343 285.083 132.788 285.39C133.232 285.693 133.579 286.125 133.828 286.687C134.082 287.248 134.245 287.917 134.318 288.693V289.404C134.245 290.17 134.084 290.834 133.835 291.396C133.586 291.953 133.237 292.385 132.788 292.692C132.343 292.995 131.784 293.146 131.11 293.146C130.49 293.146 129.946 292.973 129.477 292.626C129.008 292.275 128.642 291.796 128.378 291.191C128.12 290.585 127.99 289.897 127.99 289.125V288.972ZM129.36 289.125C129.36 289.653 129.431 290.134 129.572 290.568C129.719 291.003 129.946 291.352 130.253 291.616C130.561 291.875 130.959 292.004 131.447 292.004C131.896 292.004 132.265 291.909 132.553 291.718C132.846 291.528 133.081 291.276 133.256 290.964C133.432 290.651 133.569 290.312 133.667 289.946V288.166C133.608 287.897 133.522 287.639 133.41 287.39C133.303 287.136 133.161 286.911 132.985 286.716C132.814 286.516 132.602 286.357 132.348 286.24C132.099 286.123 131.804 286.064 131.462 286.064C130.969 286.064 130.566 286.196 130.253 286.459C129.946 286.723 129.719 287.077 129.572 287.521C129.431 287.961 129.36 288.444 129.36 288.972V289.125ZM141.459 287.565C141.459 287.092 141.318 286.716 141.035 286.438C140.756 286.154 140.344 286.013 139.797 286.013C139.46 286.013 139.162 286.071 138.903 286.188C138.649 286.306 138.452 286.459 138.31 286.65C138.168 286.84 138.098 287.048 138.098 287.272H136.728C136.728 286.892 136.857 286.523 137.116 286.167C137.375 285.805 137.739 285.51 138.208 285.28C138.681 285.046 139.238 284.929 139.877 284.929C140.454 284.929 140.964 285.026 141.408 285.222C141.853 285.417 142.199 285.712 142.448 286.108C142.702 286.499 142.829 286.989 142.829 287.58V291.271C142.829 291.535 142.851 291.816 142.895 292.114C142.944 292.412 143.015 292.668 143.107 292.883V293H141.679C141.611 292.844 141.557 292.636 141.518 292.377C141.479 292.114 141.459 291.87 141.459 291.645V287.565ZM141.708 289.147H140.346C139.575 289.147 138.979 289.27 138.559 289.514C138.139 289.758 137.929 290.124 137.929 290.612C137.929 290.993 138.056 291.315 138.31 291.579C138.569 291.843 138.945 291.975 139.438 291.975C139.853 291.975 140.219 291.887 140.537 291.711C140.854 291.535 141.105 291.318 141.291 291.059C141.477 290.8 141.577 290.551 141.591 290.312L142.177 290.964C142.143 291.169 142.05 291.396 141.899 291.645C141.748 291.894 141.545 292.133 141.291 292.363C141.042 292.587 140.744 292.775 140.397 292.927C140.056 293.073 139.67 293.146 139.24 293.146C138.703 293.146 138.232 293.044 137.827 292.839C137.426 292.629 137.114 292.346 136.889 291.989C136.669 291.633 136.56 291.237 136.56 290.803C136.56 289.948 136.882 289.301 137.526 288.862C138.171 288.417 139.038 288.195 140.126 288.195H141.694L141.708 289.147ZM149.956 281.75H151.325V293H150.073L149.956 291.462V281.75ZM144.631 288.972C144.631 288.166 144.76 287.46 145.019 286.855C145.283 286.245 145.649 285.771 146.118 285.434C146.586 285.097 147.136 284.929 147.766 284.929C148.43 284.929 148.984 285.083 149.428 285.39C149.873 285.693 150.219 286.125 150.468 286.687C150.722 287.248 150.886 287.917 150.959 288.693V289.404C150.886 290.17 150.725 290.834 150.476 291.396C150.227 291.953 149.877 292.385 149.428 292.692C148.984 292.995 148.425 293.146 147.751 293.146C147.131 293.146 146.586 292.973 146.118 292.626C145.649 292.275 145.283 291.796 145.019 291.191C144.76 290.585 144.631 289.897 144.631 289.125V288.972ZM146 289.125C146 289.653 146.071 290.134 146.213 290.568C146.359 291.003 146.586 291.352 146.894 291.616C147.202 291.875 147.6 292.004 148.088 292.004C148.537 292.004 148.906 291.909 149.194 291.718C149.487 291.528 149.721 291.276 149.897 290.964C150.073 290.651 150.209 290.312 150.307 289.946V288.166C150.249 287.897 150.163 287.639 150.051 287.39C149.943 287.136 149.802 286.911 149.626 286.716C149.455 286.516 149.243 286.357 148.989 286.24C148.74 286.123 148.444 286.064 148.103 286.064C147.609 286.064 147.207 286.196 146.894 286.459C146.586 286.723 146.359 287.077 146.213 287.521C146.071 287.961 146 288.444 146 288.972V289.125ZM156.723 293.146C155.986 293.146 155.344 292.983 154.797 292.656C154.255 292.324 153.833 291.87 153.53 291.293C153.232 290.717 153.083 290.058 153.083 289.316V289.001C153.083 288.142 153.247 287.409 153.574 286.804C153.906 286.193 154.335 285.729 154.863 285.412C155.395 285.09 155.957 284.929 156.547 284.929C157.309 284.929 157.929 285.1 158.408 285.441C158.891 285.778 159.245 286.24 159.47 286.826C159.699 287.407 159.814 288.066 159.814 288.803V289.411H153.896V288.312H158.444V288.21C158.425 287.858 158.354 287.517 158.232 287.185C158.11 286.848 157.915 286.572 157.646 286.357C157.377 286.137 157.011 286.027 156.547 286.027C156.137 286.027 155.773 286.145 155.456 286.379C155.144 286.608 154.897 286.945 154.716 287.39C154.541 287.829 154.453 288.366 154.453 289.001V289.316C154.453 289.819 154.545 290.278 154.731 290.693C154.917 291.103 155.185 291.433 155.537 291.682C155.888 291.926 156.308 292.048 156.796 292.048C157.275 292.048 157.68 291.95 158.012 291.755C158.344 291.56 158.635 291.298 158.884 290.971L159.711 291.616C159.458 292.006 159.091 292.36 158.613 292.678C158.139 292.99 157.509 293.146 156.723 293.146ZM161.425 292.29C161.425 292.06 161.496 291.867 161.638 291.711C161.784 291.55 161.994 291.469 162.268 291.469C162.546 291.469 162.756 291.55 162.897 291.711C163.044 291.867 163.117 292.06 163.117 292.29C163.117 292.514 163.044 292.702 162.897 292.854C162.756 293.005 162.546 293.081 162.268 293.081C161.994 293.081 161.784 293.005 161.638 292.854C161.496 292.702 161.425 292.514 161.425 292.29Z" fill="#171717"/>
<path d="M43.999 36.577C43.999 34.741 44.422 33.094 45.268 31.636C46.132 30.178 47.293 29.044 48.751 28.234C50.227 27.406 51.838 26.992 53.584 26.992C55.582 26.992 57.355 27.487 58.903 28.477C60.469 29.449 61.603 30.835 62.305 32.635H58.606C58.12 31.645 57.445 30.907 56.581 30.421C55.717 29.935 54.718 29.692 53.584 29.692C52.342 29.692 51.235 29.971 50.263 30.529C49.291 31.087 48.526 31.888 47.968 32.932C47.428 33.976 47.158 35.191 47.158 36.577C47.158 37.963 47.428 39.178 47.968 40.222C48.526 41.266 49.291 42.076 50.263 42.652C51.235 43.21 52.342 43.489 53.584 43.489C54.718 43.489 55.717 43.246 56.581 42.76C57.445 42.274 58.12 41.536 58.606 40.546H62.305C61.603 42.346 60.469 43.732 58.903 44.704C57.355 45.676 55.582 46.162 53.584 46.162C51.82 46.162 50.209 45.757 48.751 44.947C47.293 44.119 46.132 42.976 45.268 41.518C44.422 40.06 43.999 38.413 43.999 36.577ZM72.3608 46.243C70.9568 46.243 69.6878 45.928 68.5538 45.298C67.4198 44.65 66.5288 43.75 65.8808 42.598C65.2328 41.428 64.9088 40.078 64.9088 38.548C64.9088 37.036 65.2418 35.695 65.9078 34.525C66.5738 33.355 67.4828 32.455 68.6348 31.825C69.7868 31.195 71.0738 30.88 72.4958 30.88C73.9178 30.88 75.2048 31.195 76.3568 31.825C77.5088 32.455 78.4178 33.355 79.0838 34.525C79.7498 35.695 80.0828 37.036 80.0828 38.548C80.0828 40.06 79.7408 41.401 79.0568 42.571C78.3728 43.741 77.4368 44.65 76.2488 45.298C75.0788 45.928 73.7828 46.243 72.3608 46.243ZM72.3608 43.57C73.1528 43.57 73.8908 43.381 74.5748 43.003C75.2768 42.625 75.8438 42.058 76.2758 41.302C76.7078 40.546 76.9238 39.628 76.9238 38.548C76.9238 37.468 76.7168 36.559 76.3028 35.821C75.8888 35.065 75.3398 34.498 74.6558 34.12C73.9718 33.742 73.2338 33.553 72.4418 33.553C71.6498 33.553 70.9118 33.742 70.2278 34.12C69.5618 34.498 69.0308 35.065 68.6348 35.821C68.2388 36.559 68.0408 37.468 68.0408 38.548C68.0408 40.15 68.4458 41.392 69.2558 42.274C70.0838 43.138 71.1188 43.57 72.3608 43.57ZM90.6316 30.88C91.8016 30.88 92.8456 31.123 93.7636 31.609C94.6996 32.095 95.4286 32.815 95.9506 33.769C96.4726 34.723 96.7336 35.875 96.7336 37.225V46H93.6826V37.684C93.6826 36.352 93.3496 35.335 92.6836 34.633C92.0176 33.913 91.1086 33.553 89.9566 33.553C88.8046 33.553 87.8866 33.913 87.2026 34.633C86.5366 35.335 86.2036 36.352 86.2036 37.684V46H83.1256V31.123H86.2036V32.824C86.7076 32.212 87.3466 31.735 88.1206 31.393C88.9126 31.051 89.7496 30.88 90.6316 30.88ZM106.06 46.243C104.89 46.243 103.837 46.036 102.901 45.622C101.983 45.19 101.254 44.614 100.714 43.894C100.174 43.156 99.8858 42.337 99.8498 41.437H103.036C103.09 42.067 103.387 42.598 103.927 43.03C104.485 43.444 105.178 43.651 106.006 43.651C106.87 43.651 107.536 43.489 108.004 43.165C108.49 42.823 108.733 42.391 108.733 41.869C108.733 41.311 108.463 40.897 107.923 40.627C107.401 40.357 106.564 40.06 105.412 39.736C104.296 39.43 103.387 39.133 102.685 38.845C101.983 38.557 101.371 38.116 100.849 37.522C100.345 36.928 100.093 36.145 100.093 35.173C100.093 34.381 100.327 33.661 100.795 33.013C101.263 32.347 101.929 31.825 102.793 31.447C103.675 31.069 104.683 30.88 105.817 30.88C107.509 30.88 108.868 31.312 109.894 32.176C110.938 33.022 111.496 34.183 111.568 35.659H108.49C108.436 34.993 108.166 34.462 107.68 34.066C107.194 33.67 106.537 33.472 105.709 33.472C104.899 33.472 104.278 33.625 103.846 33.931C103.414 34.237 103.198 34.642 103.198 35.146C103.198 35.542 103.342 35.875 103.63 36.145C103.918 36.415 104.269 36.631 104.683 36.793C105.097 36.937 105.709 37.126 106.519 37.36C107.599 37.648 108.481 37.945 109.165 38.251C109.867 38.539 110.47 38.971 110.974 39.547C111.478 40.123 111.739 40.888 111.757 41.842C111.757 42.688 111.523 43.444 111.055 44.11C110.587 44.776 109.921 45.298 109.057 45.676C108.211 46.054 107.212 46.243 106.06 46.243ZM128.556 31.123V46H125.478V44.245C124.992 44.857 124.353 45.343 123.561 45.703C122.787 46.045 121.959 46.216 121.077 46.216C119.907 46.216 118.854 45.973 117.918 45.487C117 45.001 116.271 44.281 115.731 43.327C115.209 42.373 114.948 41.221 114.948 39.871V31.123H117.999V39.412C117.999 40.744 118.332 41.77 118.998 42.49C119.664 43.192 120.573 43.543 121.725 43.543C122.877 43.543 123.786 43.192 124.452 42.49C125.136 41.77 125.478 40.744 125.478 39.412V31.123H128.556ZM135.695 26.02V46H132.617V26.02H135.695ZM143.327 33.634V41.869C143.327 42.427 143.453 42.832 143.705 43.084C143.975 43.318 144.425 43.435 145.055 43.435H146.945V46H144.515C143.129 46 142.067 45.676 141.329 45.028C140.591 44.38 140.222 43.327 140.222 41.869V33.634H138.467V31.123H140.222V27.424H143.327V31.123H146.945V33.634H143.327ZM156.235 46.243C154.831 46.243 153.562 45.928 152.428 45.298C151.294 44.65 150.403 43.75 149.755 42.598C149.107 41.428 148.783 40.078 148.783 38.548C148.783 37.036 149.116 35.695 149.782 34.525C150.448 33.355 151.357 32.455 152.509 31.825C153.661 31.195 154.948 30.88 156.37 30.88C157.792 30.88 159.079 31.195 160.231 31.825C161.383 32.455 162.292 33.355 162.958 34.525C163.624 35.695 163.957 37.036 163.957 38.548C163.957 40.06 163.615 41.401 162.931 42.571C162.247 43.741 161.311 44.65 160.123 45.298C158.953 45.928 157.657 46.243 156.235 46.243ZM156.235 43.57C157.027 43.57 157.765 43.381 158.449 43.003C159.151 42.625 159.718 42.058 160.15 41.302C160.582 40.546 160.798 39.628 160.798 38.548C160.798 37.468 160.591 36.559 160.177 35.821C159.763 35.065 159.214 34.498 158.53 34.12C157.846 33.742 157.108 33.553 156.316 33.553C155.524 33.553 154.786 33.742 154.102 34.12C153.436 34.498 152.905 35.065 152.509 35.821C152.113 36.559 151.915 37.468 151.915 38.548C151.915 40.15 152.32 41.392 153.13 42.274C153.958 43.138 154.993 43.57 156.235 43.57ZM170.078 33.283C170.528 32.527 171.122 31.942 171.86 31.528C172.616 31.096 173.507 30.88 174.533 30.88V34.066H173.75C172.544 34.066 171.626 34.372 170.996 34.984C170.384 35.596 170.078 36.658 170.078 38.17V46H167V31.123H170.078V33.283ZM178.928 29.152C178.37 29.152 177.902 28.963 177.524 28.585C177.146 28.207 176.957 27.739 176.957 27.181C176.957 26.623 177.146 26.155 177.524 25.777C177.902 25.399 178.37 25.21 178.928 25.21C179.468 25.21 179.927 25.399 180.305 25.777C180.683 26.155 180.872 26.623 180.872 27.181C180.872 27.739 180.683 28.207 180.305 28.585C179.927 28.963 179.468 29.152 178.928 29.152ZM180.44 31.123V46H177.362V31.123H180.44ZM183.455 38.494C183.455 37 183.761 35.677 184.373 34.525C185.003 33.373 185.849 32.482 186.911 31.852C187.991 31.204 189.179 30.88 190.475 30.88C191.645 30.88 192.662 31.114 193.526 31.582C194.408 32.032 195.11 32.599 195.632 33.283V31.123H198.737V46H195.632V43.786C195.11 44.488 194.399 45.073 193.499 45.541C192.599 46.009 191.573 46.243 190.421 46.243C189.143 46.243 187.973 45.919 186.911 45.271C185.849 44.605 185.003 43.687 184.373 42.517C183.761 41.329 183.455 39.988 183.455 38.494ZM195.632 38.548C195.632 37.522 195.416 36.631 194.984 35.875C194.57 35.119 194.021 34.543 193.337 34.147C192.653 33.751 191.915 33.553 191.123 33.553C190.331 33.553 189.593 33.751 188.909 34.147C188.225 34.525 187.667 35.092 187.235 35.848C186.821 36.586 186.614 37.468 186.614 38.494C186.614 39.52 186.821 40.42 187.235 41.194C187.667 41.968 188.225 42.562 188.909 42.976C189.611 43.372 190.349 43.57 191.123 43.57C191.915 43.57 192.653 43.372 193.337 42.976C194.021 42.58 194.57 42.004 194.984 41.248C195.416 40.474 195.632 39.574 195.632 38.548Z" fill="#171717"/>
<path d="M70.3469 162.423H165.398C166.009 162.423 166.609 162.185 167.057 161.736L182.313 146.481C182.761 146.032 182.994 145.432 182.994 144.821H183V87.3214C183 86.0254 181.949 84.9745 180.653 84.9745H70.3469C69.0507 84.9745 68 86.0254 68 87.3214V160.077C68 161.373 69.0507 162.423 70.3469 162.423ZM167.745 154.41V147.168H174.987L167.745 154.41ZM72.6939 89.6684H178.306V142.474H165.398C164.102 142.474 163.051 143.525 163.051 144.821V157.73H72.6939V89.6684Z" fill="black"/>
<path d="M150.143 96.7092H126.673C125.377 96.7092 124.327 97.7602 124.327 99.0562V102.577H118.459C117.163 102.577 116.112 103.628 116.112 104.924V122.526H97.3367V114.311H110.245C111.541 114.311 112.592 113.26 112.592 111.964V97.8827C112.592 96.5867 111.541 95.5358 110.245 95.5358H82.0816C80.7854 95.5358 79.7347 96.5867 79.7347 97.8827V111.964C79.7347 113.26 80.7854 114.311 82.0816 114.311H92.6428V124.872C92.6428 126.168 93.6936 127.219 94.9898 127.219H116.112V143.648C116.112 144.944 117.163 145.995 118.459 145.995H124.327V148.342C124.327 149.638 125.377 150.689 126.673 150.689H150.143C151.439 150.689 152.49 149.638 152.49 148.342V136.607C152.49 135.311 151.439 134.26 150.143 134.26H126.673C125.377 134.26 124.327 135.311 124.327 136.607V141.301H120.806V127.219H124.327V129.566C124.327 130.862 125.377 131.913 126.673 131.913H150.143C151.439 131.913 152.49 130.862 152.49 129.566V117.832C152.49 116.536 151.439 115.485 150.143 115.485H126.673C125.377 115.485 124.327 116.536 124.327 117.832V122.526H120.806V107.27H124.327V110.791C124.327 112.087 125.377 113.138 126.673 113.138H150.143C151.439 113.138 152.49 112.087 152.49 110.791V99.0562C152.49 97.7602 151.439 96.7092 150.143 96.7092ZM84.4286 109.617V100.23H107.898V109.617H84.4286ZM129.02 138.954H147.796V145.995H129.02V138.954ZM129.02 120.179H147.796V127.219H129.02V120.179ZM147.796 108.444H129.02V101.403H147.796V108.444Z" fill="black"/>
<path d="M97.3367 133.087H79.7347V137.781H97.3367V133.087Z" fill="black"/>
<path d="M97.3367 140.128H79.7347V144.821H97.3367V140.128Z" fill="black"/>
<path d="M110.245 147.168H79.7347V151.862H110.245V147.168Z" fill="black"/>
<path d="M104.378 133.087H99.6837V137.781H104.378V133.087Z" fill="black"/>
<path d="M163.051 96.7092H157.184V101.403H163.051V96.7092Z" fill="black"/>
<path d="M172.439 96.7092H166.571V101.403H172.439V96.7092Z" fill="black"/>
<path d="M163.051 103.75H157.184V108.444H163.051V103.75Z" fill="black"/>
<path d="M172.439 103.75H166.571V108.444H172.439V103.75Z" fill="black"/>
<path d="M163.051 110.791H157.184V115.485H163.051V110.791Z" fill="black"/>
<path d="M172.439 110.791H166.571V115.485H172.439V110.791Z" fill="black"/>
<path d="M163.051 117.832H157.184V122.526H163.051V117.832Z" fill="black"/>
<path d="M172.439 117.832H166.571V122.526H172.439V117.832Z" fill="black"/>
<path d="M181.395 170.758L167.314 166.064C167.071 165.984 166.821 165.947 166.571 165.947V165.944H70.3469C69.0507 165.944 68 166.995 68 168.291V177.679C68 178.975 69.0507 180.025 70.3469 180.025H166.571H166.572C166.821 180.025 167.071 179.986 167.314 179.905L181.395 175.211C182.353 174.892 183 173.995 183 172.985C183 171.975 182.354 171.078 181.395 170.758ZM82.0816 175.332H72.6939V170.638H82.0816V175.332ZM164.224 175.332H86.7755V170.638H164.224V175.332ZM168.918 174.422V171.547L173.231 172.985L168.918 174.422Z" fill="black"/>
</svg>
