<svg width="32" height="32" viewBox="0 0 32 32" fill="none" xmlns="http://www.w3.org/2000/svg">
<g clip-path="url(#clip0_49_176)">
<path fill-rule="evenodd" clip-rule="evenodd" d="M23.6555 7.48047H21.1355C20.6442 7.48406 20.2673 7.84316 20.2637 8.33174C20.2602 9.1866 20.2602 10.0379 20.2637 10.8927C20.2673 11.3778 20.6443 11.7413 21.1293 11.7413H23.6483C24.1539 11.7413 24.5237 11.3742 24.5237 10.8686C24.5273 10.0307 24.5273 9.19018 24.5237 8.35312C24.5237 7.85033 24.1539 7.48413 23.6555 7.48047Z" fill="#C7C7C7"/>
<path fill-rule="evenodd" clip-rule="evenodd" d="M16.0064 20.2623C18.3619 20.2587 20.2637 18.3534 20.2637 15.9979C20.2601 13.6423 18.3548 11.7415 15.9993 11.7415C13.6518 11.7415 11.7465 13.6494 11.7429 15.9943C11.7393 18.3534 13.6482 20.2623 16.0064 20.2623Z" fill="#C7C7C7"/>
<path fill-rule="evenodd" clip-rule="evenodd" d="M22.3816 18.4051C21.8724 19.7485 21.0212 20.8267 19.8376 21.6369C17.7027 23.0947 14.9113 23.2171 12.6674 21.9504C11.5329 21.3081 10.6432 20.4185 10.0224 19.2705C9.17117 17.7002 8.97552 16.0397 9.40516 14.3058H7.48199V23.6252C7.48199 24.1594 7.84553 24.5221 8.37884 24.5221C8.72092 24.5256 9.05949 24.5221 9.40164 24.5221H23.5991C24.1752 24.5221 24.5236 24.1701 24.5236 23.5939V14.3022H22.5978C22.9507 15.6975 22.8871 17.0651 22.3816 18.4051Z" fill="#C7C7C7"/>
<path fill-rule="evenodd" clip-rule="evenodd" d="M0 0V32H32V0H0ZM27.0748 7.44925V24.557C27.0748 25.8165 26.1012 26.9126 24.8488 27.0591C24.7506 27.0698 24.6532 27.0769 24.5558 27.0769H7.44721C6.20913 27.0769 5.12021 26.1238 4.95592 24.8991C4.93539 24.7562 4.92462 24.6097 4.92462 24.4668V7.52246C4.92462 6.24513 5.77948 5.20531 7.03536 4.96506C7.18544 4.93651 7.3427 4.92666 7.4963 4.92666C13.1694 4.92308 18.8398 4.92308 24.5102 4.92308C25.8395 4.92308 26.9319 5.91015 27.0676 7.22954C27.0784 7.30275 27.0748 7.37597 27.0748 7.44925Z" fill="#C7C7C7"/>
</g>
<defs>
<clipPath id="clip0_49_176">
<rect width="32" height="32" fill="white"/>
</clipPath>
</defs>
</svg>
